<svg xmlns="http://www.w3.org/2000/svg" width="201" height="112" viewBox="0 0 201 112">
  <g id="Grupo_80160" data-name="Grupo 80160" transform="translate(-857 -985)">
    <g id="Grupo_80149" data-name="Grupo 80149" transform="translate(-4 -5.668)">
      <g id="heno" transform="translate(886 991.543)">
        <g id="Grupo_80131" data-name="Grupo 80131" transform="translate(108.236 28.578)">
          <path id="Trazado_190763" data-name="Trazado 190763" d="M369.345,194.478a2.227,2.227,0,0,1-1.4-3.959l9.882-7.984a2.227,2.227,0,1,1,2.8,3.464l-9.882,7.984A2.219,2.219,0,0,1,369.345,194.478Z" transform="translate(-367.117 -182.04)" fill="#fec165"/>
        </g>
        <path id="Trazado_190764" data-name="Trazado 190764" d="M203.034,85.107h29.921a27.781,27.781,0,1,1,0,55.563L220.487,145.5l-17.453-4.831Z" transform="translate(-143.174 -85.107)" fill="#fee45a"/>
        <g id="Grupo_80132" data-name="Grupo 80132" transform="translate(25.772 22.484)">
          <path id="Trazado_190765" data-name="Trazado 190765" d="M97.8,175.758a2.222,2.222,0,0,1-1.722-.813l-8.162-9.935a2.227,2.227,0,0,1,3.442-2.827l8.162,9.935a2.227,2.227,0,0,1-1.72,3.641Z" transform="translate(-87.414 -161.369)" fill="#fec165"/>
        </g>
        <path id="Trazado_190766" data-name="Trazado 190766" d="M158.339,132.038c-10.849,10.849-26.133,10.723-36.983-.126s-12.4-27.51-1.554-38.36c.436-.436.639-1.113,1.1-1.514.328-.288.92-.884.92-.884a27.785,27.785,0,0,1,39.955,37.829s-2.317,1.937-3.434,3.054Z" transform="translate(-79.262 -85.108)" fill="#ffd15b"/>
        <path id="Trazado_190767" data-name="Trazado 190767" d="M159.241,143.445a27.782,27.782,0,1,1-39.955-37.829,27.785,27.785,0,0,0,39.955,37.829Z" transform="translate(-76.73 -99.569)" fill="#fec165"/>
        <g id="Grupo_80136" data-name="Grupo 80136" transform="translate(48.603 13.606)">
          <g id="Grupo_80133" data-name="Grupo 80133" transform="translate(18.578 12.927)">
            <path id="Trazado_190768" data-name="Trazado 190768" d="M231.345,188.023a2.228,2.228,0,0,1-2.2-1.9l-1.256-8.464a2.227,2.227,0,1,1,4.406-.654l1.256,8.464a2.227,2.227,0,0,1-1.876,2.53,2.28,2.28,0,0,1-.33.024Z" transform="translate(-227.864 -175.104)" fill="#fec165"/>
          </g>
          <g id="Grupo_80134" data-name="Grupo 80134" transform="translate(0.223 0)">
            <path id="Trazado_190769" data-name="Trazado 190769" d="M167.837,145.485c-.049,0-.1,0-.149-.005a2.227,2.227,0,0,1-2.075-2.369l.645-9.774a2.227,2.227,0,1,1,4.444.294l-.645,9.774A2.227,2.227,0,0,1,167.837,145.485Z" transform="translate(-165.607 -131.257)" fill="#fec165"/>
          </g>
          <g id="Grupo_80135" data-name="Grupo 80135" transform="translate(0 21.463)">
            <path id="Trazado_190770" data-name="Trazado 190770" d="M167.078,210.173a2.227,2.227,0,0,1-.493-4.4l7.278-1.66a2.227,2.227,0,1,1,.99,4.342l-7.278,1.66A2.228,2.228,0,0,1,167.078,210.173Z" transform="translate(-164.852 -204.057)" fill="#fec165"/>
          </g>
        </g>
        <path id="Trazado_190771" data-name="Trazado 190771" d="M166.248,159.342a11.876,11.876,0,1,1,16.8,0A11.89,11.89,0,0,1,166.248,159.342Z" transform="translate(-114.785 -123.163)" fill="#fec165"/>
        <g id="Grupo_80137" data-name="Grupo 80137" transform="translate(0.519 94.801)">
          <path id="Trazado_190772" data-name="Trazado 190772" d="M17.449,414.236a2.242,2.242,0,0,1-.506-.058L3.484,411.052a2.227,2.227,0,1,1,1.007-4.338l13.459,3.126a2.227,2.227,0,0,1-.5,4.4Z" transform="translate(-1.761 -406.656)" fill="#fec165"/>
        </g>
        <path id="Trazado_190773" data-name="Trazado 190773" d="M11.35,281.477a2.227,2.227,0,1,0-4.453.074l.119,7.18-3.155-3.405a2.227,2.227,0,0,0-3.267,3.027L7.127,295.4l.03,1.8a2.227,2.227,0,0,0,2.226,2.19h.038a2.227,2.227,0,0,0,2.189-2.264Z" transform="translate(0 -222.038)" fill="#fec165"/>
        <path id="Trazado_190774" data-name="Trazado 190774" d="M460.351,263.884a2.227,2.227,0,0,0-3.09.61l-1.037,1.546-1.472-5.621a2.227,2.227,0,1,0-4.308,1.129l2.724,10.4a2.251,2.251,0,0,0,4,.676l3.788-5.65a2.227,2.227,0,0,0-.609-3.09Z" transform="translate(-317.589 -207.56)" fill="#fec165"/>
        <g id="Grupo_80138" data-name="Grupo 80138" transform="translate(132.688 92.987)">
          <path id="Trazado_190775" data-name="Trazado 190775" d="M452.282,411.466a2.227,2.227,0,0,1-.951-4.242l13.809-6.508a2.227,2.227,0,1,1,1.9,4.029l-13.809,6.508A2.221,2.221,0,0,1,452.282,411.466Z" transform="translate(-450.054 -400.504)" fill="#fec165"/>
        </g>
        <path id="Trazado_190776" data-name="Trazado 190776" d="M112.03,273.564h54.892l5.762,27.781-5.106,27.781H112.03Z" transform="translate(-79.001 -218.002)" fill="#fee45a"/>
        <path id="Trazado_190777" data-name="Trazado 190777" d="M67.336,320.494c-10.849,10.849-26.133,10.723-36.983-.126s-12.4-27.51-1.554-38.36c.436-.436.639-1.113,1.1-1.514.328-.288.92-.884.92-.884A27.785,27.785,0,0,1,70.77,317.44s-2.317,1.938-3.434,3.054Z" transform="translate(-15.09 -218.003)" fill="#ffd15b"/>
        <path id="Trazado_190778" data-name="Trazado 190778" d="M68.237,331.9a27.782,27.782,0,1,1-39.955-37.829A27.785,27.785,0,0,0,68.237,331.9Z" transform="translate(-12.556 -232.464)" fill="#fec165"/>
        <path id="Trazado_190779" data-name="Trazado 190779" d="M300.487,273.564h29.921a27.781,27.781,0,1,1,0,55.563H300.487Z" transform="translate(-211.895 -218.002)" fill="#fee45a"/>
        <path id="Trazado_190780" data-name="Trazado 190780" d="M255.793,320.494c-10.849,10.849-26.133,10.723-36.983-.126s-12.4-27.51-1.554-38.36c.436-.436.639-1.113,1.1-1.514.328-.288.92-.884.92-.884a27.785,27.785,0,0,1,39.955,37.829S256.91,319.377,255.793,320.494Z" transform="translate(-147.984 -218.003)" fill="#ffd15b"/>
        <path id="Trazado_190781" data-name="Trazado 190781" d="M256.694,331.9a27.782,27.782,0,1,1-39.955-37.829A27.785,27.785,0,0,0,256.694,331.9Z" transform="translate(-145.451 -232.464)" fill="#fec165"/>
        <g id="Grupo_80142" data-name="Grupo 80142" transform="translate(74.495 71.508)">
          <g id="Grupo_80139" data-name="Grupo 80139" transform="translate(1.738 18.774)">
            <path id="Trazado_190782" data-name="Trazado 190782" d="M260.793,397.584a2.227,2.227,0,0,1-.324-4.43l12.152-1.8a2.227,2.227,0,0,1,.654,4.406l-12.152,1.8A2.27,2.27,0,0,1,260.793,397.584Z" transform="translate(-258.568 -391.326)" fill="#fec165"/>
          </g>
          <g id="Grupo_80140" data-name="Grupo 80140" transform="translate(11.87 0.571)">
            <path id="Trazado_190783" data-name="Trazado 190783" d="M307.9,334.815c-.045,0-.091,0-.137,0l-12.736-.776a2.227,2.227,0,1,1,.271-4.446l12.736.776a2.227,2.227,0,0,1-.134,4.45Z" transform="translate(-292.934 -329.586)" fill="#fec165"/>
          </g>
          <g id="Grupo_80141" data-name="Grupo 80141">
            <path id="Trazado_190784" data-name="Trazado 190784" d="M258.376,343.149a2.228,2.228,0,0,1-2.124-1.559l-3.475-11.046a2.227,2.227,0,1,1,4.248-1.337l3.475,11.046a2.228,2.228,0,0,1-2.125,2.9Z" transform="translate(-252.674 -327.648)" fill="#fec165"/>
          </g>
        </g>
        <g id="Grupo_80146" data-name="Grupo 80146" transform="translate(15.342 73.338)">
          <g id="Grupo_80143" data-name="Grupo 80143" transform="translate(0 3.871)">
            <path id="Trazado_190785" data-name="Trazado 190785" d="M61.847,360.123a2.221,2.221,0,0,1-1.678-.762l-7.583-8.684a2.227,2.227,0,1,1,3.355-2.929l7.583,8.684a2.227,2.227,0,0,1-1.677,3.691Z" transform="translate(-52.036 -346.986)" fill="#fec165"/>
          </g>
          <g id="Grupo_80144" data-name="Grupo 80144" transform="translate(23.9)">
            <path id="Trazado_190786" data-name="Trazado 190786" d="M135.327,339.692a2.227,2.227,0,0,1-.437-4.411l6.864-1.382a2.227,2.227,0,0,1,.879,4.366l-6.864,1.382A2.246,2.246,0,0,1,135.327,339.692Z" transform="translate(-133.102 -333.855)" fill="#fec165"/>
          </g>
          <g id="Grupo_80145" data-name="Grupo 80145" transform="translate(16.426 15.004)">
            <path id="Trazado_190787" data-name="Trazado 190787" d="M109.977,396.728a2.227,2.227,0,0,1-1.883-3.412l4.731-7.528a2.227,2.227,0,1,1,3.771,2.37l-4.731,7.528A2.225,2.225,0,0,1,109.977,396.728Z" transform="translate(-107.751 -384.745)" fill="#fec165"/>
          </g>
        </g>
        <g id="Grupo_80147" data-name="Grupo 80147" transform="translate(21.16 71.473)">
          <path id="Trazado_190788" data-name="Trazado 190788" d="M75.245,347.8a11.876,11.876,0,1,1,16.8,0A11.89,11.89,0,0,1,75.245,347.8Z" transform="translate(-71.772 -327.531)" fill="#fec165"/>
          <path id="Trazado_190789" data-name="Trazado 190789" d="M263.7,347.8a11.876,11.876,0,1,1,16.8,0A11.89,11.89,0,0,1,263.7,347.8Z" transform="translate(-204.667 -327.531)" fill="#fec165"/>
        </g>
      </g>
      <g id="vaca" transform="translate(936.864 1024.034)">
        <path id="Trazado_190790" data-name="Trazado 190790" d="M481.266,277.446a1.171,1.171,0,0,0-1.8-.056c-1.6,1.8-2.88,5.116-1.9,6.217,1.092,1.228.619,3.97,1.979,4.068s3.007-1.357,3.381-4.306A7.936,7.936,0,0,0,481.266,277.446Z" transform="translate(-376.176 -233.158)" fill="#493e42"/>
        <path id="Trazado_190791" data-name="Trazado 190791" d="M456.545,171.693H456.5a.969.969,0,0,1-.926-1.012l.018-.4c.517-11.539,1.007-22.439-8.216-26.9a.969.969,0,0,1,.843-1.744c4.695,2.269,7.566,6.161,8.781,11.9,1.058,5,.8,10.744.528,16.83l-.018.4A.969.969,0,0,1,456.545,171.693Z" transform="translate(-352.344 -126.885)" fill="#493e42"/>
        <path id="Trazado_190792" data-name="Trazado 190792" d="M476.133,285.114c-.067,0-.134,0-.2-.007-1.487-.108-1.8-1.6-2.035-2.685a4.2,4.2,0,0,0-.6-1.706c-1.589-1.786.361-5.774,1.9-7.505a2.14,2.14,0,0,1,3.286.1,8.971,8.971,0,0,1,1.86,6.641C479.909,283.387,477.932,285.114,476.133,285.114Zm-.009-1.938h.005c.769,0,1.989-1.069,2.293-3.463a6.934,6.934,0,0,0-1.467-5.207.191.191,0,0,0-.149-.075.194.194,0,0,0-.158.067c-1.622,1.826-2.288,4.494-1.9,4.929a5.463,5.463,0,0,1,1.047,2.592,5.138,5.138,0,0,0,.33,1.156Z" transform="translate(-372.63 -229.624)" fill="#493e42"/>
        <path id="Trazado_190793" data-name="Trazado 190793" d="M194.657,254.864l-.035.1C194.718,254.944,194.736,254.911,194.657,254.864Z" transform="translate(-154.431 -215.791)" fill="#eae7dc"/>
        <path id="Trazado_190794" data-name="Trazado 190794" d="M103.9,124.328c-.491,2.119-4.148,12.566-4.6,20.471-.254,4.449-1.32,6.331-1.861,6.96a.861.861,0,0,1-.653.3H91.831a.861.861,0,0,1-.6-1.482l1.615-1.557a.86.86,0,0,0,.252-.749,69.312,69.312,0,0,0-2.046-9.678,23.3,23.3,0,0,0-3.4-4.794.332.332,0,0,0-.584.179c-.375,3.428-2.853,8.022-3.011,10.761-.254,4.447-1.271,6.392-1.811,7.021a.865.865,0,0,1-.655.3H76.636a.861.861,0,0,1-.6-1.482l1.626-1.57a.859.859,0,0,0,.258-.721,49.942,49.942,0,0,0-1.622-8.321c-.323-.894-2.625-2.561-3.87-4.617-1.544-.209-1.839-2.444-1.839-2.444a15.359,15.359,0,0,1-3.988.207,40.921,40.921,0,0,1-6.086-.986A59.583,59.583,0,0,0,57.8,144.739c-.256,4.447-1.32,6.392-1.861,7.021a.866.866,0,0,1-.655.3H50.326a.861.861,0,0,1-.6-1.482l1.6-1.548a.861.861,0,0,0,.252-.767c-.289-1.667-1.3-7.69-1.734-10.107-.22-1.221-2.464-3.2-5-5.593a79.489,79.489,0,0,1-.5,12.344c-.541,4.24-1.408,6.064-1.867,6.769a.861.861,0,0,1-.721.388h-4.88a.861.861,0,0,1-.6-1.482l1.607-1.548a.86.86,0,0,0,.25-.767c-.286-1.667-1.3-7.527-1.734-9.943-.508-2.83-11.89-9.738-12.559-16.388-.571-5.7-3.876-6.53-5.173-12.236a20.556,20.556,0,0,1-.444-3.082c-.032-.041-.065-.084-.095-.127-3.06-4.09-4.311-11.183-4.389-19.935h0c-5.162-.327-6.385-7.188-5.472-8.02A8.093,8.093,0,0,1,16.2,76.7c2-2.044,5.026-2.724,7.8-3.114,4.24-.577,8.87.366,12,3.566a8.037,8.037,0,0,1,7.992,1.135.872.872,0,0,1,.321.605,8.468,8.468,0,0,1-.769,3.98l.017.006q.982.329,1.876.564c7.91,2.091,10.931-1,16.664-.228,4.744.642,20.956-1.079,31.588.058a15.255,15.255,0,0,1,12.5,9.254c3.655,8.827.711,18.85-2.287,31.8Z" transform="translate(-7.993 -73.429)" fill="#f2eee9"/>
        <path id="Trazado_190795" data-name="Trazado 190795" d="M248.092,249.194,248.08,249C247.981,249.022,247.991,249.089,248.092,249.194Z" transform="translate(-196.322 -211.19)" fill="#eae7dc"/>
        <g id="Grupo_80148" data-name="Grupo 80148" transform="translate(9.884 0)">
          <path id="Trazado_190796" data-name="Trazado 190796" d="M70.213,75.46l-.151,3.086c-.245,2.046-2.55,4.221-3.655,5.491-2.014,2.315-.844,8.516-.575,11.343.069.726.093,2.915.093,2.915a10.691,10.691,0,0,0-7.807-.516s.483-1.793.607-2.4c.573-2.781,1.441-9.028-.573-11.343-1.107-1.271-3.411-3.446-3.655-5.491l-.209-3.189a16.92,16.92,0,0,1,6.032-1.768,14.922,14.922,0,0,1,9.891,1.871Z" transform="translate(-54.203 -73.429)" fill="#493e42"/>
          <path id="Trazado_190797" data-name="Trazado 190797" d="M279.862,123.09c-1.292.325-2.154,3.12-4.514,4.843s-4.854-1.831-7.869-2.046-.108,4.307-5.545,5.545-9.637-10.078-12.544-13.847l.235-.075a13.932,13.932,0,0,1,1.882.127c4.744.642,20.956-1.079,31.588.058C286.793,119.647,281.155,122.765,279.862,123.09Z" transform="translate(-207.288 -107.85)" fill="#493e42"/>
          <path id="Trazado_190798" data-name="Trazado 190798" d="M453.959,186.867l-.114.284c-6.577-5.522-3.969-14.414-.166-14.067C454.87,177.322,454.741,181.858,453.959,186.867Z" transform="translate(-364.553 -151.615)" fill="#493e42"/>
          <path id="Trazado_190799" data-name="Trazado 190799" d="M378.34,214.268c4.37-3.192,6.982,5.73,3.348,8.171s-8.085,2.943-8.66-1.436S376.569,215.562,378.34,214.268Z" transform="translate(-304.258 -183.403)" fill="#493e42"/>
          <path id="Trazado_190800" data-name="Trazado 190800" d="M115.277,136.65a.969.969,0,0,1-.706-.3,1.365,1.365,0,0,0-.736-.149.969.969,0,1,1,0-1.938,2.713,2.713,0,0,1,2.2.823.969.969,0,0,1-.76,1.569Z" transform="translate(-100.165 -121.158)" fill="#493e42"/>
          <path id="Trazado_190801" data-name="Trazado 190801" d="M54.857,136.65a.969.969,0,0,1-.76-1.569,2.712,2.712,0,0,1,2.2-.823.969.969,0,0,1,0,1.938,1.366,1.366,0,0,0-.736.149A.968.968,0,0,1,54.857,136.65Z" transform="translate(-53.888 -121.158)" fill="#493e42"/>
        </g>
        <path id="Trazado_190802" data-name="Trazado 190802" d="M105.373,279.65a.962.962,0,0,1-.183-.017,24.825,24.825,0,0,1-9.626-3.919c-2.444-1.7-3.117-3.914-3.71-5.864a10.423,10.423,0,0,0-1.715-3.757.969.969,0,1,1,1.507-1.219,12.118,12.118,0,0,1,2.063,4.412c.574,1.888,1.07,3.518,2.964,4.838a22.922,22.922,0,0,0,8.883,3.606.969.969,0,0,1-.181,1.921Z" transform="translate(-72.279 -223.363)" fill="#bfb8af"/>
        <path id="Trazado_190803" data-name="Trazado 190803" d="M148.082,306.124a.966.966,0,0,1-.665-.264c-3.589-3.387-7.451-7.34-7.86-11.4a.969.969,0,0,1,1.928-.194c.342,3.4,3.928,7.041,7.262,10.188a.969.969,0,0,1-.665,1.674Z" transform="translate(-111.22 -246.021)" fill="#bfb8af"/>
        <path id="Trazado_190804" data-name="Trazado 190804" d="M80.826,117.29a4.549,4.549,0,0,1-.732,1.088,3.418,3.418,0,0,1-2.625,1.077c-.022,0-.129.011-.162.017a1.048,1.048,0,0,0-.644.377,1.147,1.147,0,0,0-.161.508c-.012.121-.6,10.849-4.5,17.888-1.584,2.862-4.477,6.5-8.962,6.5a9.32,9.32,0,0,1-7.194-3.655c-.144-.187-.36-.095-.327-.054a20.555,20.555,0,0,0,.444,3.082,10.315,10.315,0,0,0,6.973,2.457h.1a10.905,10.905,0,0,0,8.472-4.053c.058-.045.469-.556.618-.763a21.166,21.166,0,0,0,3-5.75,59.588,59.588,0,0,0,3.192-14.145.732.732,0,0,1,.567-.631,5.258,5.258,0,0,0,2.625-1.521,6.633,6.633,0,0,0,1.217-1.848C82.123,117.7,81.481,117.51,80.826,117.29Z" transform="translate(-45.281 -107.844)" fill="#bfb8af"/>
        <path id="Trazado_190805" data-name="Trazado 190805" d="M65.428,187.258l.022.034a5.918,5.918,0,0,1-1.632,7.919,9.389,9.389,0,0,1-13.065-2.245,5.5,5.5,0,0,1,1.587-7.993C56.6,182.474,63.552,184.285,65.428,187.258Z" transform="translate(-40.7 -160.026)" fill="#ff8376"/>
        <path id="Trazado_190806" data-name="Trazado 190806" d="M94.255,206.168a.969.969,0,0,1-.874-1.388,3.323,3.323,0,0,1,3.22-1.871.969.969,0,1,1-.155,1.932,1.406,1.406,0,0,0-1.317.775.969.969,0,0,1-.875.551Z" transform="translate(-74.918 -175.019)" fill="#e54a4a"/>
        <path id="Trazado_190807" data-name="Trazado 190807" d="M64.742,206.165a.969.969,0,0,1-.875-.551,1.408,1.408,0,0,0-1.33-.775.963.963,0,0,1-1.037-.889.974.974,0,0,1,.9-1.044,3.324,3.324,0,0,1,3.22,1.871.969.969,0,0,1-.874,1.387Z" transform="translate(-49.976 -175.016)" fill="#e54a4a"/>
        <path id="Trazado_190808" data-name="Trazado 190808" d="M126.313,151.937c-.3-.284-.683-.607-1.081-1.051a7.784,7.784,0,0,1-1.172-1.716.115.115,0,0,0-.011-.024s.071-.069.2-.218a.139.139,0,0,1,.017-.019,20.4,20.4,0,0,0,3.637-7.692s0,0,0,0,0,0,0,0a60.011,60.011,0,0,0,2.421-12.562c.041-.5.4-.883.87-.726a16.931,16.931,0,0,1,2.621,1.2c.413.222.788.426,1.107.577,3.306,1.563,7.341,5.9,6.075,9.025s2.461,6.407,3.795,9.583c2.261,5.384-10.2,11.405-18.484,3.635Z" transform="translate(-99.057 -116.158)" fill="#493e42"/>
        <path id="Trazado_190809" data-name="Trazado 190809" d="M133.86,129.115a5.286,5.286,0,0,1-1.167.426.732.732,0,0,0-.566.631,59.5,59.5,0,0,1-3.192,14.147,21.132,21.132,0,0,1-3,5.75c-.149.207-.56.717-.618.762l-.047.054a7.783,7.783,0,0,1-1.172-1.716c.065-.08.129-.162.19-.241a.138.138,0,0,1,.017-.019,17.484,17.484,0,0,0,1.51-2.352,32.254,32.254,0,0,0,2.128-5.341s0,0,0,0,0,0,0,0a60.011,60.011,0,0,0,2.421-12.562c.041-.5.4-.883.87-.726A16.927,16.927,0,0,1,133.86,129.115Z" transform="translate(-99.096 -116.157)" fill="#332a30"/>
        <path id="Trazado_190810" data-name="Trazado 190810" d="M302.023,326.781a.326.326,0,0,0-.215.276c-.019.174-.043.351-.075.532-.545,3.36-2.787,7.63-2.935,10.229-.254,4.447-1.271,6.392-1.811,7.021a.866.866,0,0,1-.655.3h-4.955a.861.861,0,0,1-.6-1.482l1.626-1.57a.859.859,0,0,0,.258-.721,49.935,49.935,0,0,0-1.622-8.321c-.323-.894-2.625-2.561-3.87-4.617-1.544-.209-1.839-2.444-1.839-2.444-1.271.252-3.663-2.212-3.663-2.212l15.361-4.27a21.028,21.028,0,0,1,2.608,2.748A11.838,11.838,0,0,1,302.023,326.781Z" transform="translate(-222.733 -266.508)" fill="#e5dfd8"/>
        <path id="Trazado_190811" data-name="Trazado 190811" d="M280.354,292.241v.062a3.175,3.175,0,0,1-1.055,2.37,16.177,16.177,0,0,1-5.168,3.1.388.388,0,0,0-.257.472c.945,3.571-2.809,3.774-3.706,1.154a.389.389,0,0,0-.448-.26,18.824,18.824,0,0,1-3.275.388.388.388,0,0,0-.376.35c-.18,1.88-.229,2.724-1.872,2.843-1.435.1-1.971-1.395-2.143-2.1a.388.388,0,0,0-.444-.288c-3.005.5-6.366-.108-9.7-.848,1.144-3.775,2.291-7.094,2.675-8.81,1.938-3.553,10.735-1.914,13.675-3.22,4.614-2.05,8.942.7,10.94,2.326A3.168,3.168,0,0,1,280.354,292.241Z" transform="translate(-199.38 -240.793)" fill="#ff8376"/>
      </g>
    </g>
    <rect id="Rectángulo_33816" data-name="Rectángulo 33816" width="201" height="112" transform="translate(857 985)" fill="none"/>
  </g>
</svg>
