<svg id="Grupo_149908" data-name="Grupo 149908" xmlns="http://www.w3.org/2000/svg" xmlns:xlink="http://www.w3.org/1999/xlink" width="565" height="34" viewBox="0 0 565 34">
  <defs>
    <clipPath id="clip-path">
      <rect id="Rectángulo_41610" data-name="Rectángulo 41610" width="565" height="34" fill="none"/>
    </clipPath>
  </defs>
  <g id="Grupo_149907" data-name="Grupo 149907" clip-path="url(#clip-path)">
    <path id="Trazado_198971" data-name="Trazado 198971" d="M6,0H168a6,6,0,0,1,6,6V28a6,6,0,0,1-6,6H6a6,6,0,0,1-6-6V6A6,6,0,0,1,6,0" fill="#869d69"/>
    <path id="Trazado_198972" data-name="Trazado 198972" d="M397,0H559a6,6,0,0,1,6,6V28a6,6,0,0,1-6,6H397a6,6,0,0,1-6-6V6a6,6,0,0,1,6-6" fill="#869d69"/>
    <path id="Trazado_198973" data-name="Trazado 198973" d="M202,0H364a6,6,0,0,1,6,6V28a6,6,0,0,1-6,6H202a6,6,0,0,1-6-6V6a6,6,0,0,1,6-6" fill="#869d69"/>
    <path id="Trazado_198977" data-name="Trazado 198977" d="M259.332,19.015a1.2,1.2,0,0,0-.469-1.02,6.142,6.142,0,0,0-1.687-.75,11.88,11.88,0,0,1-1.93-.777,3.152,3.152,0,0,1-1.937-2.82A2.745,2.745,0,0,1,253.828,12a3.4,3.4,0,0,1,1.492-1.129,5.633,5.633,0,0,1,2.184-.406,5.12,5.12,0,0,1,2.172.442,3.444,3.444,0,0,1,1.48,1.246,3.255,3.255,0,0,1,.528,1.828H259.34a1.534,1.534,0,0,0-.492-1.215,2.024,2.024,0,0,0-1.383-.434,2.155,2.155,0,0,0-1.336.364,1.145,1.145,0,0,0-.477.957,1.1,1.1,0,0,0,.559.929,6.289,6.289,0,0,0,1.644.7,7.114,7.114,0,0,1,2.914,1.493A2.968,2.968,0,0,1,261.684,19a2.738,2.738,0,0,1-1.118,2.317,4.9,4.9,0,0,1-3.007.84,5.816,5.816,0,0,1-2.391-.481,3.784,3.784,0,0,1-1.645-1.316,3.37,3.37,0,0,1-.566-1.938h2.352q0,1.883,2.25,1.883a2.183,2.183,0,0,0,1.3-.34,1.1,1.1,0,0,0,.469-.949" fill="#fff"/>
    <path id="Trazado_198978" data-name="Trazado 198978" d="M262.769,17.695a5,5,0,0,1,.485-2.242,3.551,3.551,0,0,1,1.394-1.524,4.074,4.074,0,0,1,2.113-.539,3.848,3.848,0,0,1,2.793,1.047,4.2,4.2,0,0,1,1.207,2.844l.016.578a4.418,4.418,0,0,1-1.086,3.121,4.208,4.208,0,0,1-5.832,0,4.494,4.494,0,0,1-1.09-3.188Zm2.258.16a3.16,3.16,0,0,0,.453,1.843,1.629,1.629,0,0,0,2.578.008,3.454,3.454,0,0,0,.461-2.015,3.123,3.123,0,0,0-.461-1.831,1.5,1.5,0,0,0-1.3-.65,1.473,1.473,0,0,0-1.281.646,3.518,3.518,0,0,0-.453,2" fill="#fff"/>
    <path id="Trazado_198979" data-name="Trazado 198979" d="M275.684,20.336a1.478,1.478,0,0,0,1.015-.344,1.208,1.208,0,0,0,.406-.914h2.117a2.886,2.886,0,0,1-.469,1.574,3.086,3.086,0,0,1-1.261,1.11,3.967,3.967,0,0,1-1.77.394A3.667,3.667,0,0,1,272.863,21a4.556,4.556,0,0,1-1.047-3.184v-.148a4.506,4.506,0,0,1,1.039-3.117,3.622,3.622,0,0,1,2.851-1.164,3.551,3.551,0,0,1,2.543.9,3.2,3.2,0,0,1,.973,2.4h-2.117a1.559,1.559,0,0,0-.406-1.072,1.51,1.51,0,0,0-2.222.163,3.318,3.318,0,0,0-.4,1.866v.235a3.374,3.374,0,0,0,.4,1.878,1.377,1.377,0,0,0,1.212.571" fill="#fff"/>
    <path id="Trazado_198980" data-name="Trazado 198980" d="M280.5,11.359a1.11,1.11,0,0,1,.34-.836,1.465,1.465,0,0,1,1.848,0,1.2,1.2,0,0,1,0,1.68,1.449,1.449,0,0,1-1.836,0,1.109,1.109,0,0,1-.348-.844M282.894,22h-2.266V13.547h2.266Z" fill="#fff"/>
    <path id="Trazado_198981" data-name="Trazado 198981" d="M289.652,22a2.488,2.488,0,0,1-.226-.758,2.731,2.731,0,0,1-2.133.915,3,3,0,0,1-2.059-.719,2.313,2.313,0,0,1-.816-1.813,2.389,2.389,0,0,1,1-2.062,4.908,4.908,0,0,1,2.879-.727h1.039v-.484a1.4,1.4,0,0,0-.3-.938,1.183,1.183,0,0,0-.949-.351,1.348,1.348,0,0,0-.895.273.934.934,0,0,0-.324.75h-2.258a2.276,2.276,0,0,1,.453-1.359,3,3,0,0,1,1.282-.981,4.665,4.665,0,0,1,1.859-.355,3.694,3.694,0,0,1,2.481.785,2.747,2.747,0,0,1,.918,2.207v3.664a4.034,4.034,0,0,0,.335,1.82V22Zm-1.867-1.57a1.939,1.939,0,0,0,.922-.223,1.463,1.463,0,0,0,.625-.6V18.156h-.844q-1.7,0-1.8,1.171l-.007.133a.9.9,0,0,0,.3.7,1.153,1.153,0,0,0,.812.273" fill="#fff"/>
    <rect id="Rectángulo_41606" data-name="Rectángulo 41606" width="2.266" height="12" transform="translate(293.449 10)" fill="#fff"/>
    <path id="Trazado_198982" data-name="Trazado 198982" d="M301.465,22.156a4.154,4.154,0,0,1-3.028-1.14,4.059,4.059,0,0,1-1.168-3.039v-.219a5.1,5.1,0,0,1,.493-2.277,3.616,3.616,0,0,1,1.394-1.547,3.907,3.907,0,0,1,2.059-.543,3.508,3.508,0,0,1,2.73,1.093,4.446,4.446,0,0,1,1,3.1v.922h-5.382a2.1,2.1,0,0,0,.66,1.328,2,2,0,0,0,1.394.5,2.436,2.436,0,0,0,2.039-.945l1.11,1.242a3.4,3.4,0,0,1-1.375,1.121,4.5,4.5,0,0,1-1.922.4m-.258-6.945a1.408,1.408,0,0,0-1.09.455,2.363,2.363,0,0,0-.535,1.3h3.141v-.181a1.681,1.681,0,0,0-.407-1.165,1.457,1.457,0,0,0-1.109-.412" fill="#fff"/>
    <path id="Trazado_198983" data-name="Trazado 198983" d="M310.8,19.664a.728.728,0,0,0-.41-.652,4.623,4.623,0,0,0-1.317-.426q-3.015-.633-3.015-2.563a2.324,2.324,0,0,1,.933-1.879,3.77,3.77,0,0,1,2.442-.753,4.055,4.055,0,0,1,2.574.757,2.387,2.387,0,0,1,.965,1.969h-2.258a1.094,1.094,0,0,0-.312-.8,1.324,1.324,0,0,0-.977-.316,1.351,1.351,0,0,0-.883.258.814.814,0,0,0-.312.656.694.694,0,0,0,.355.6,3.65,3.65,0,0,0,1.2.4,9.72,9.72,0,0,1,1.422.379A2.335,2.335,0,0,1,313,19.57,2.2,2.2,0,0,1,312,21.441a4.274,4.274,0,0,1-2.562.715,4.468,4.468,0,0,1-1.887-.379,3.155,3.155,0,0,1-1.293-1.039,2.41,2.41,0,0,1-.469-1.426h2.141a1.176,1.176,0,0,0,.445.922,1.765,1.765,0,0,0,1.11.321,1.636,1.636,0,0,0,.98-.246.766.766,0,0,0,.332-.645" fill="#fff"/>
    <path id="Trazado_198984" data-name="Trazado 198984" d="M451.285,18.211A4.027,4.027,0,0,1,449.93,21.1a4.764,4.764,0,0,1-3.223,1.054,4.284,4.284,0,0,1-3.442-1.472,6.043,6.043,0,0,1-1.253-4.043v-.7a6.808,6.808,0,0,1,.578-2.89,4.33,4.33,0,0,1,1.652-1.918,5.163,5.163,0,0,1,5.668.387,4.325,4.325,0,0,1,1.391,2.96h-2.344a2.381,2.381,0,0,0-.613-1.6,2.271,2.271,0,0,0-1.606-.5,1.992,1.992,0,0,0-1.754.84,4.709,4.709,0,0,0-.6,2.605v.859a5.043,5.043,0,0,0,.558,2.7,1.956,1.956,0,0,0,1.762.851,2.311,2.311,0,0,0,1.621-.5,2.245,2.245,0,0,0,.613-1.535Z" fill="#fff"/>
    <path id="Trazado_198985" data-name="Trazado 198985" d="M457.738,21.14a2.833,2.833,0,0,1-2.313,1.016,2.671,2.671,0,0,1-2.074-.782,3.339,3.339,0,0,1-.73-2.289V13.546h2.258v5.467q0,1.323,1.2,1.322a1.628,1.628,0,0,0,1.578-.8V13.546h2.266V22H457.8Z" fill="#fff"/>
    <rect id="Rectángulo_41607" data-name="Rectángulo 41607" width="2.266" height="12" transform="translate(461.746 10)" fill="#fff"/>
    <path id="Trazado_198986" data-name="Trazado 198986" d="M468.574,11.468v2.078h1.445V15.2h-1.445v4.219a1.007,1.007,0,0,0,.18.672.9.9,0,0,0,.687.2,3.546,3.546,0,0,0,.664-.055v1.711a4.624,4.624,0,0,1-1.367.2,2.156,2.156,0,0,1-2.422-2.4V15.2h-1.234V13.546h1.234V11.468Z" fill="#fff"/>
    <path id="Trazado_198987" data-name="Trazado 198987" d="M476.34,21.14a2.833,2.833,0,0,1-2.313,1.016,2.671,2.671,0,0,1-2.074-.782,3.339,3.339,0,0,1-.73-2.289V13.546h2.258v5.467q0,1.323,1.2,1.322a1.628,1.628,0,0,0,1.578-.8V13.546h2.266V22H476.4Z" fill="#fff"/>
    <path id="Trazado_198988" data-name="Trazado 198988" d="M484.98,15.664a6.076,6.076,0,0,0-.812-.062,1.653,1.653,0,0,0-1.68.867V22H480.23V13.547h2.133l.062,1.008a2.091,2.091,0,0,1,1.883-1.164,2.384,2.384,0,0,1,.7.1Z" fill="#fff"/>
    <path id="Trazado_198989" data-name="Trazado 198989" d="M490.73,22a2.488,2.488,0,0,1-.226-.758,2.731,2.731,0,0,1-2.133.915,3,3,0,0,1-2.059-.719,2.313,2.313,0,0,1-.816-1.813,2.389,2.389,0,0,1,1-2.062,4.908,4.908,0,0,1,2.879-.727h1.039v-.484a1.4,1.4,0,0,0-.3-.938,1.183,1.183,0,0,0-.949-.351,1.348,1.348,0,0,0-.895.273.934.934,0,0,0-.324.75h-2.258a2.276,2.276,0,0,1,.453-1.359,3,3,0,0,1,1.282-.981,4.665,4.665,0,0,1,1.859-.355,3.694,3.694,0,0,1,2.481.785,2.747,2.747,0,0,1,.918,2.207v3.664a4.034,4.034,0,0,0,.335,1.82V22Zm-1.867-1.57a1.939,1.939,0,0,0,.922-.223,1.463,1.463,0,0,0,.625-.6V18.156h-.844q-1.7,0-1.805,1.171l-.007.133a.9.9,0,0,0,.3.7,1.153,1.153,0,0,0,.812.273" fill="#fff"/>
    <rect id="Rectángulo_41608" data-name="Rectángulo 41608" width="2.266" height="12" transform="translate(494.527 10)" fill="#fff"/>
    <path id="Trazado_198990" data-name="Trazado 198990" d="M502.543,22.156a4.154,4.154,0,0,1-3.028-1.14,4.059,4.059,0,0,1-1.168-3.039v-.219a5.1,5.1,0,0,1,.493-2.277,3.616,3.616,0,0,1,1.394-1.547,3.907,3.907,0,0,1,2.059-.543,3.508,3.508,0,0,1,2.73,1.093,4.446,4.446,0,0,1,1,3.1v.922h-5.382a2.1,2.1,0,0,0,.66,1.328,2,2,0,0,0,1.394.5,2.436,2.436,0,0,0,2.039-.945l1.11,1.242a3.4,3.4,0,0,1-1.375,1.121,4.5,4.5,0,0,1-1.922.4m-.258-6.945a1.408,1.408,0,0,0-1.09.455,2.363,2.363,0,0,0-.535,1.3H503.8v-.181a1.681,1.681,0,0,0-.407-1.165,1.457,1.457,0,0,0-1.109-.412" fill="#fff"/>
    <path id="Trazado_198991" data-name="Trazado 198991" d="M511.879,19.664a.728.728,0,0,0-.41-.652,4.623,4.623,0,0,0-1.317-.426q-3.015-.633-3.015-2.563a2.324,2.324,0,0,1,.933-1.879,3.77,3.77,0,0,1,2.442-.753,4.055,4.055,0,0,1,2.574.757,2.387,2.387,0,0,1,.965,1.969h-2.258a1.094,1.094,0,0,0-.312-.8A1.324,1.324,0,0,0,510.5,15a1.351,1.351,0,0,0-.883.258.814.814,0,0,0-.312.656.694.694,0,0,0,.355.6,3.65,3.65,0,0,0,1.2.4,9.718,9.718,0,0,1,1.422.379,2.335,2.335,0,0,1,1.789,2.273,2.2,2.2,0,0,1-.992,1.871,4.274,4.274,0,0,1-2.562.715,4.468,4.468,0,0,1-1.887-.379,3.155,3.155,0,0,1-1.293-1.039,2.41,2.41,0,0,1-.469-1.426h2.141a1.176,1.176,0,0,0,.445.922,1.765,1.765,0,0,0,1.11.321,1.636,1.636,0,0,0,.98-.246.766.766,0,0,0,.332-.645" fill="#fff"/>
    <path id="Trazado_198992" data-name="Trazado 198992" d="M57.59,17.054h-4.5v3.063h5.281V22H50.746V10.624h7.61v1.9H53.09v2.711h4.5Z" fill="#fff"/>
    <path id="Trazado_198993" data-name="Trazado 198993" d="M62.965,20.336a1.478,1.478,0,0,0,1.016-.344,1.208,1.208,0,0,0,.406-.914H66.5a2.9,2.9,0,0,1-.469,1.574,3.093,3.093,0,0,1-1.261,1.11,3.967,3.967,0,0,1-1.77.394A3.665,3.665,0,0,1,60.145,21,4.556,4.556,0,0,1,59.1,17.82v-.148a4.506,4.506,0,0,1,1.039-3.117,3.622,3.622,0,0,1,2.851-1.164,3.552,3.552,0,0,1,2.543.9,3.2,3.2,0,0,1,.973,2.4H64.387a1.559,1.559,0,0,0-.406-1.072,1.511,1.511,0,0,0-2.223.163,3.327,3.327,0,0,0-.4,1.866v.235a3.374,3.374,0,0,0,.4,1.878,1.376,1.376,0,0,0,1.211.571" fill="#fff"/>
    <path id="Trazado_198994" data-name="Trazado 198994" d="M67.441,17.695a5,5,0,0,1,.485-2.242,3.538,3.538,0,0,1,1.394-1.524,4.072,4.072,0,0,1,2.113-.539,3.848,3.848,0,0,1,2.793,1.047,4.2,4.2,0,0,1,1.207,2.844l.016.578a4.418,4.418,0,0,1-1.086,3.121,4.208,4.208,0,0,1-5.832,0,4.494,4.494,0,0,1-1.09-3.188Zm2.258.16a3.16,3.16,0,0,0,.453,1.843,1.629,1.629,0,0,0,2.578.008,3.461,3.461,0,0,0,.461-2.015,3.13,3.13,0,0,0-.461-1.831,1.5,1.5,0,0,0-1.3-.65,1.472,1.472,0,0,0-1.281.646,3.518,3.518,0,0,0-.453,2" fill="#fff"/>
    <rect id="Rectángulo_41609" data-name="Rectángulo 41609" width="2.266" height="12" transform="translate(76.957 10)" fill="#fff"/>
    <path id="Trazado_198995" data-name="Trazado 198995" d="M80.731,17.695a5.009,5.009,0,0,1,.484-2.242,3.542,3.542,0,0,1,1.394-1.523,4.063,4.063,0,0,1,2.114-.539,3.85,3.85,0,0,1,2.793,1.046,4.209,4.209,0,0,1,1.207,2.844l.015.578a4.418,4.418,0,0,1-1.086,3.121,4.208,4.208,0,0,1-5.832,0A4.5,4.5,0,0,1,80.731,17.8Zm2.257.16a3.16,3.16,0,0,0,.453,1.843,1.628,1.628,0,0,0,2.579.008,3.462,3.462,0,0,0,.46-2.015,3.13,3.13,0,0,0-.46-1.831,1.5,1.5,0,0,0-1.3-.649,1.474,1.474,0,0,0-1.282.645,3.518,3.518,0,0,0-.453,2M85.168,10h2.461l-2.164,2.422H83.629Z" fill="#fff"/>
    <path id="Trazado_198996" data-name="Trazado 198996" d="M89.8,17.711a4.951,4.951,0,0,1,.927-3.133,3,3,0,0,1,2.5-1.187,2.628,2.628,0,0,1,2.164.953l.094-.8h2.047v8.172a3.612,3.612,0,0,1-.5,1.929,3.224,3.224,0,0,1-1.418,1.25,4.987,4.987,0,0,1-2.14.43,4.642,4.642,0,0,1-1.813-.371A3.207,3.207,0,0,1,90.316,24l1-1.375a2.646,2.646,0,0,0,2.047.945,1.935,1.935,0,0,0,1.4-.48,1.805,1.805,0,0,0,.5-1.364v-.453a2.61,2.61,0,0,1-2.055.883,2.988,2.988,0,0,1-2.463-1.191,4.951,4.951,0,0,1-.943-3.16Zm2.259.16a3.1,3.1,0,0,0,.461,1.81,1.463,1.463,0,0,0,1.265.655,1.564,1.564,0,0,0,1.476-.778v-3.57a1.563,1.563,0,0,0-1.461-.777,1.472,1.472,0,0,0-1.277.667,3.5,3.5,0,0,0-.464,1.993" fill="#fff"/>
    <path id="Trazado_198997" data-name="Trazado 198997" d="M99.246,11.359a1.11,1.11,0,0,1,.34-.836,1.465,1.465,0,0,1,1.848,0,1.2,1.2,0,0,1,0,1.68,1.449,1.449,0,0,1-1.836,0,1.108,1.108,0,0,1-.348-.844M101.644,22H99.378V13.547h2.266Z" fill="#fff"/>
    <path id="Trazado_198998" data-name="Trazado 198998" d="M107.019,20.336a1.478,1.478,0,0,0,1.016-.344,1.208,1.208,0,0,0,.406-.914h2.117a2.9,2.9,0,0,1-.469,1.574,3.093,3.093,0,0,1-1.261,1.11,3.967,3.967,0,0,1-1.77.394A3.665,3.665,0,0,1,104.2,21a4.556,4.556,0,0,1-1.047-3.184v-.148a4.506,4.506,0,0,1,1.039-3.117,3.622,3.622,0,0,1,2.851-1.164,3.552,3.552,0,0,1,2.543.9,3.2,3.2,0,0,1,.973,2.4h-2.117a1.559,1.559,0,0,0-.406-1.072,1.511,1.511,0,0,0-2.223.163,3.327,3.327,0,0,0-.4,1.866v.235a3.374,3.374,0,0,0,.4,1.878,1.376,1.376,0,0,0,1.211.571" fill="#fff"/>
    <path id="Trazado_198999" data-name="Trazado 198999" d="M111.5,17.695a5,5,0,0,1,.485-2.242,3.538,3.538,0,0,1,1.394-1.524,4.072,4.072,0,0,1,2.113-.539,3.848,3.848,0,0,1,2.793,1.047,4.2,4.2,0,0,1,1.207,2.844l.016.578a4.418,4.418,0,0,1-1.086,3.121,4.208,4.208,0,0,1-5.832,0A4.494,4.494,0,0,1,111.5,17.8Zm2.258.16a3.16,3.16,0,0,0,.453,1.843,1.629,1.629,0,0,0,2.578.008,3.461,3.461,0,0,0,.461-2.015,3.13,3.13,0,0,0-.461-1.831,1.5,1.5,0,0,0-1.3-.65,1.472,1.472,0,0,0-1.281.646,3.518,3.518,0,0,0-.453,2" fill="#fff"/>
    <path id="Trazado_199000" data-name="Trazado 199000" d="M125.473,19.664a.728.728,0,0,0-.41-.652,4.635,4.635,0,0,0-1.317-.426q-3.015-.633-3.015-2.563a2.324,2.324,0,0,1,.933-1.879,3.769,3.769,0,0,1,2.442-.753,4.055,4.055,0,0,1,2.574.757,2.39,2.39,0,0,1,.965,1.969h-2.258a1.094,1.094,0,0,0-.312-.8A1.325,1.325,0,0,0,124.1,15a1.351,1.351,0,0,0-.883.258.814.814,0,0,0-.312.656.694.694,0,0,0,.355.6,3.65,3.65,0,0,0,1.2.4,9.719,9.719,0,0,1,1.422.379,2.335,2.335,0,0,1,1.789,2.273,2.2,2.2,0,0,1-.992,1.871,4.274,4.274,0,0,1-2.562.715,4.462,4.462,0,0,1-1.887-.379,3.155,3.155,0,0,1-1.293-1.039,2.41,2.41,0,0,1-.469-1.426h2.141a1.176,1.176,0,0,0,.445.922,1.765,1.765,0,0,0,1.11.321,1.636,1.636,0,0,0,.98-.246.768.768,0,0,0,.332-.645" fill="#fff"/>
  </g>
</svg>
