<svg xmlns="http://www.w3.org/2000/svg" width="96" height="98" viewBox="0 0 96 98">
  <g id="Grupo_148193" data-name="Grupo 148193" transform="translate(-753 -3842)">
    <ellipse id="Elipse_4739" data-name="Elipse 4739" cx="31.5" cy="5" rx="31.5" ry="5" transform="translate(753 3930)" fill="#afafaf" opacity="0.5"/>
    <circle id="Elipse_4736" data-name="Elipse 4736" cx="48" cy="48" r="48" transform="translate(753 3842)" fill="#fff"/>
    <g id="Elipse_4741" data-name="Elipse 4741" transform="translate(765 3855)" fill="#fff7e4" stroke="#707070" stroke-width="1">
      <circle cx="35" cy="35" r="35" stroke="none"/>
      <circle cx="35" cy="35" r="34.5" fill="none"/>
    </g>
    <g id="acaro" transform="translate(764 3853)">
      <g id="Grupo_148189" data-name="Grupo 148189" transform="translate(12.556 14.784)">
        <path id="Trazado_194767" data-name="Trazado 194767" d="M366.135,209.184a1.131,1.131,0,0,1-.995-.592,7.634,7.634,0,0,0-9.475-3.539,1.131,1.131,0,0,1-.83-2.1,9.9,9.9,0,0,1,12.294,4.565,1.132,1.132,0,0,1-.993,1.67Zm0,0" transform="translate(-315.574 -187.867)" fill="#3a3d51"/>
        <path id="Trazado_194768" data-name="Trazado 194768" d="M341.627,116.345a1.131,1.131,0,0,1-.656-2.053,7.633,7.633,0,0,0,2.206-9.871,1.131,1.131,0,1,1,1.989-1.078,9.9,9.9,0,0,1-2.885,12.792A1.122,1.122,0,0,1,341.627,116.345Zm0,0" transform="translate(-303.916 -102.707)" fill="#3a3d51"/>
        <path id="Trazado_194769" data-name="Trazado 194769" d="M313.6,292.681a6.139,6.139,0,0,1-1.236-.125l-2.308-.476a1.131,1.131,0,0,1,.457-2.215l2.308.476a4.536,4.536,0,0,0,3.7-1,6.758,6.758,0,0,1,5.591-1.471l.5.1a1.131,1.131,0,0,1-.457,2.215l-.5-.1a4.539,4.539,0,0,0-3.7,1A6.9,6.9,0,0,1,313.6,292.681Zm0,0" transform="translate(-277.094 -261.006)" fill="#3a3d51"/>
        <path id="Trazado_194770" data-name="Trazado 194770" d="M190.352,349.7h-.045a1.13,1.13,0,0,1-1.086-1.174,7.359,7.359,0,0,1,3.731-6.142,5.127,5.127,0,0,0,2.45-3.251,1.131,1.131,0,1,1,2.2.536,7.39,7.39,0,0,1-3.528,4.68,5.112,5.112,0,0,0-2.591,4.265,1.13,1.13,0,0,1-1.129,1.087Zm0,0" transform="translate(-174.471 -304.234)" fill="#3a3d51"/>
        <path id="Trazado_194771" data-name="Trazado 194771" d="M247.542,337.791a1.132,1.132,0,0,1-1.078-.79,7.362,7.362,0,0,1,1.428-7.044,5.126,5.126,0,0,0,1.2-3.888,1.131,1.131,0,0,1,2.249-.241,7.387,7.387,0,0,1-1.733,5.6,5.113,5.113,0,0,0-.992,4.891,1.131,1.131,0,0,1-.736,1.42A1.15,1.15,0,0,1,247.542,337.791Zm0,0" transform="translate(-223.155 -292.729)" fill="#3a3d51"/>
        <path id="Trazado_194772" data-name="Trazado 194772" d="M138.245,154.844a1.128,1.128,0,0,1-.881-.421,5.127,5.127,0,0,0-3.6-1.9,7.36,7.36,0,0,1-5.991-3.971,1.131,1.131,0,1,1,2.007-1.042,5.112,5.112,0,0,0,4.161,2.758A7.39,7.39,0,0,1,139.125,153a1.13,1.13,0,0,1-.879,1.84Zm0,0" transform="translate(-121.782 -140.487)" fill="#3a3d51"/>
        <path id="Trazado_194773" data-name="Trazado 194773" d="M236.153,113.812a1.118,1.118,0,0,1-.413-.078,1.13,1.13,0,0,1-.64-1.466l.86-2.193a6.758,6.758,0,0,1,4.285-3.883,4.538,4.538,0,0,0,2.855-2.55l.187-.476a1.131,1.131,0,1,1,2.106.826l-.187.476a6.758,6.758,0,0,1-4.285,3.883,4.539,4.539,0,0,0-2.856,2.55l-.86,2.193a1.131,1.131,0,0,1-1.053.718Zm0,0" transform="translate(-213.663 -102.448)" fill="#3a3d51"/>
        <path id="Trazado_194774" data-name="Trazado 194774" d="M91.355,209a7.384,7.384,0,0,1-3.792-1.053,1.131,1.131,0,0,1,1.16-1.942,5.112,5.112,0,0,0,4.989.157,7.391,7.391,0,0,1,5.846-.4,1.131,1.131,0,1,1-.75,2.134,5.126,5.126,0,0,0-4.06.279,7.412,7.412,0,0,1-3.392.827Zm0,0" transform="translate(-87.012 -190.492)" fill="#3a3d51"/>
      </g>
      <path id="Trazado_194775" data-name="Trazado 194775" d="M143.624,190.494c-8.694,4.713-18.08,4.446-21.749-.406a7.5,7.5,0,0,1-.615-.953,7.176,7.176,0,0,1-.463-1.034c-2.064-5.722,2.838-13.732,11.531-18.445,9.231-5,19.245-4.4,22.363,1.357s-1.835,14.477-11.068,19.482Zm0,0" transform="translate(-102.964 -142.273)" fill="#869d69"/>
      <path id="Trazado_194776" data-name="Trazado 194776" d="M121.255,189.135c-3.119-5.754,1.837-14.476,11.069-19.481s19.244-4.4,22.363,1.358c-1.121-2.069-9.514.31-18.746,5.314s-15.808,10.739-14.686,12.808Zm0,0" transform="translate(-102.959 -142.273)" fill="#636f53"/>
      <path id="Trazado_194777" data-name="Trazado 194777" d="M270.036,185.288a20.239,20.239,0,0,0-10.083-18.6c6.375-1.233,12.014.264,14.216,4.327S274.549,180.62,270.036,185.288Zm0,0" transform="translate(-222.44 -142.274)" fill="#65687f"/>
      <path id="Trazado_194778" data-name="Trazado 194778" d="M259.953,166.689a19.931,19.931,0,0,1,5.774,5c4.5-1.555,7.77-1.91,8.441-.672l-.014-.024C271.944,166.948,266.315,165.458,259.953,166.689Zm0,0" transform="translate(-222.44 -142.276)" fill="#3a3d51"/>
      <path id="Trazado_194779" data-name="Trazado 194779" d="M153.8,209.295,124.66,225.09a7.494,7.494,0,0,1-.615-.953,7.175,7.175,0,0,1-.463-1.034l29.139-15.795a1.13,1.13,0,1,1,1.078,1.988Zm0,0" transform="translate(-105.749 -177.274)" fill="#65687f"/>
      <path id="Trazado_194780" data-name="Trazado 194780" d="M36.942,0A36.942,36.942,0,1,0,73.884,36.942,36.942,36.942,0,0,0,36.942,0ZM6.645,36.942A30.26,30.26,0,0,1,19.567,12.121L48.489,64.959A30.31,30.31,0,0,1,6.645,36.942ZM54.316,61.764,25.395,8.926A30.3,30.3,0,0,1,54.316,61.764Zm0,0" fill="#942e19"/>
    </g>
  </g>
</svg>
