<svg xmlns="http://www.w3.org/2000/svg" width="201" height="112" viewBox="0 0 201 112">
  <g id="Grupo_150166" data-name="Grupo 150166" transform="translate(-1015 -2727)">
    <g id="Grupo_149704" data-name="Grupo 149704" transform="translate(0 -6)">
      <rect id="Rectángulo_41506" data-name="Rectángulo 41506" width="201" height="112" transform="translate(1015 2733)" fill="none"/>
      <g id="clasificacion" transform="translate(1028.173 2693.217)">
        <path id="Trazado_197900" data-name="Trazado 197900" d="M378.335,322.819V286.913a23.194,23.194,0,0,0-20.82-23.072c-.78-.079-1.571.113-2.371.113-12.808,0-22.665,10.31-22.665,23.118v35.6Z" transform="translate(-219.007 -188.207)" fill="#855b51"/>
        <path id="Trazado_197901" data-name="Trazado 197901" d="M356.5,263.635a23.193,23.193,0,0,0-20.685,23.056v35.641l-5.012.116V286.691A23.191,23.191,0,0,1,353.991,263.5,22.856,22.856,0,0,1,356.5,263.635Z" transform="translate(-217.854 -187.986)" fill="#724d44"/>
        <path id="Trazado_197902" data-name="Trazado 197902" d="M397.12,416.1V391.8l-.961-2.839.961-8.341H384.175l.548,13.194-.548,4.385v17.9l6.47.974Z" transform="translate(-254.511 -268.419)" fill="#c48958"/>
        <path id="Trazado_197903" data-name="Trazado 197903" d="M355.477,424.691l-12.722,5.036L344.3,447.34h17.9l-.934-1.028c-4.459-4.906-5.328-11.244-5.5-17.847C355.732,427.012,355.477,426.157,355.477,424.691Z" transform="translate(-226.064 -298.689)" fill="#ffc846"/>
        <path id="Trazado_197904" data-name="Trazado 197904" d="M355.712,427.125l-.041.016-12.629,5.19-.373-4.247,13-5.343.547,2.184Z" transform="translate(-226.006 -297.349)" fill="#ffb65f"/>
        <path id="Trazado_197905" data-name="Trazado 197905" d="M424.592,428.213l-13.285-5.474c0,8.022-.087,16.273-5.584,22.286l-.89.974h21.477a3.135,3.135,0,0,0,3.135-3.135v-7.4A7.838,7.838,0,0,0,424.592,428.213Z" transform="translate(-268.698 -297.348)" fill="#ffc846"/>
        <path id="Trazado_197906" data-name="Trazado 197906" d="M384.174,380.619h0s0,11.161,0,11.161,0,4.963.041,6.417l3.255-1.338a1.253,1.253,0,0,0,.776-1.159v-1.391a.625.625,0,0,1,.731-.615,9.963,9.963,0,0,0,1.662.142,12.244,12.244,0,0,0,6.474-2.039V380.619h-12.94Z" transform="translate(-254.509 -268.421)" fill="#b27a49"/>
        <path id="Trazado_197907" data-name="Trazado 197907" d="M359.953,311.964c.028,1.128-.406,2-.169,3.152,1.713,8.323,8.461,16.687,14.061,16.687,6.475,0,14.472-11.164,14.472-20.532,0-5.8-1.955-10.916-5.667-13.975-.772-.636-1.408-.578-2.33-1.023a.505.505,0,0,0-.711.336,19.5,19.5,0,0,1-14.751,14.075l-4.509.781C360.116,311.515,359.953,311.964,359.953,311.964Z" transform="translate(-237.711 -210.459)" fill="#c48958"/>
        <path id="Trazado_197908" data-name="Trazado 197908" d="M365.066,312.453a22.51,22.51,0,0,0,16.848-16.483,12.628,12.628,0,0,0-2.541-1.632.506.506,0,0,0-.711.336,19.419,19.419,0,0,1-14.646,14.118l-4.975,1.065a.5.5,0,0,0-.4.5v0a19.463,19.463,0,0,0,.408,3.432Z" transform="translate(-236.977 -209.13)" fill="#b27a49"/>
        <path id="Trazado_197909" data-name="Trazado 197909" d="M63.5,431.436l-18.138-6.462c-3.414,3.941-9.331,3.489-12.744-.453l-13.093,5.441c-2.936,1.21-4.933,3.547-4.933,6.722v7.09a3.135,3.135,0,0,0,3.135,3.135l.623.313H32.412l6.267-.8,6.678.8h11.57L63.5,446.06Z" transform="translate(-0.687 -298.572)" fill="#afafaf"/>
        <path id="Trazado_197910" data-name="Trazado 197910" d="M85.362,390.626H73.5l.053,9.417c1.127,1.3,1.87,2.819,3.391,3.261a8.556,8.556,0,0,0,8.869-2.612l0,0v-4.973Z" transform="translate(-41.145 -275.294)" fill="#f2d1a5"/>
        <path id="Trazado_197911" data-name="Trazado 197911" d="M34.594,426.627,20.954,432.8l-.962.4a3.75,3.75,0,0,0-2.33,3.48v10.54h-.937a3.135,3.135,0,0,1-3.135-3.135v-7.4a7.839,7.839,0,0,1,4.852-7.245l12.687-4.917a17.651,17.651,0,0,0,3.465,2.106Z" transform="translate(0 -298.572)" fill="#636363"/>
        <path id="Trazado_197912" data-name="Trazado 197912" d="M71.03,428.832,56.24,446H43.295l-10.77-14.423-2.089-3.187,7.091-2.466L43.3,422.74a8.56,8.56,0,0,0,12.942,0v0Z" transform="translate(-11.57 -297.349)" fill="#f8f7f7"/>
        <path id="Trazado_197913" data-name="Trazado 197913" d="M75.572,390.63H71.5v10.7l3.236,2.013a4.8,4.8,0,0,1,.836-.042v-5.235a.625.625,0,0,1,.723-.616,10.893,10.893,0,0,0,1.674.132,13.251,13.251,0,0,0,6.474-1.864V390.63Z" transform="translate(-39.772 -275.296)" fill="#f2bb88"/>
        <g id="Grupo_149699" data-name="Grupo 149699" transform="translate(18.445 125.391)">
          <path id="Trazado_197914" data-name="Trazado 197914" d="M46.445,425.355v0L31.6,431.576l-2.509-3.361,13.284-5.475A8.209,8.209,0,0,0,46.445,425.355Z" transform="translate(-29.09 -422.74)" fill="#e8e8e8"/>
        </g>
        <path id="Trazado_197915" data-name="Trazado 197915" d="M74.374,299.786c0-9.852-5.055-15.86-14.907-15.86s-14.907,6.008-14.907,15.86a20.111,20.111,0,0,0,.718,6.233c2.451,7.618,8.821,14.207,14.189,14.207,5.323,0,11.624-6.469,14.121-14A20.217,20.217,0,0,0,74.374,299.786Z" transform="translate(-21.27 -202.014)" fill="#f2d1a5"/>
        <path id="Trazado_197916" data-name="Trazado 197916" d="M67.192,285.9a10.1,10.1,0,0,0-2.853.736l-.012.032a6.005,6.005,0,0,0-.605-2.152,19.664,19.664,0,0,0-4.941-.59c-9.852,0-15.22,6.008-15.22,15.86a20.464,20.464,0,0,0,1.035,6.232c.218-.2.454-.42.712-.683,1.951-1.991,5.232-5.295,9.1-6.984,2.366-1.033,4.369-1.318,5.917-2.665a.629.629,0,0,1,.963.154c.706,1.212,2.276,2.878,5.445,4.76a20.466,20.466,0,0,1,6.169,5.627,20.579,20.579,0,0,0,1.1-6.441C74,293.26,71.644,288.424,67.192,285.9Z" transform="translate(-20.584 -202.013)" fill="#f2bb88"/>
        <path id="Trazado_197917" data-name="Trazado 197917" d="M104.214,278.158a10.363,10.363,0,0,1,3.956-1.145,8.887,8.887,0,0,1,6.5,2.5c5.926,6,2.815,15.253.538,19.315a.626.626,0,0,1-1.017.112,38.444,38.444,0,0,0-7.7-6.645,14.491,14.491,0,0,1-3.142-2.7,11.2,11.2,0,0,1-1.758-3.932Z" transform="translate(-60.433 -197.266)" fill="#8e868e"/>
        <path id="Trazado_197918" data-name="Trazado 197918" d="M106.6,282.889a17.593,17.593,0,0,1-4.194,6.7,11.3,11.3,0,0,1-2.189-3.677l3.032-8.094a10.44,10.44,0,0,1,3.981-.8A12.9,12.9,0,0,1,106.6,282.889Z" transform="translate(-59.496 -197.264)" fill="#766d78"/>
        <path id="Trazado_197919" data-name="Trazado 197919" d="M55.964,264.569a7.258,7.258,0,0,0-5.161-3c-3.638-.579-8.183,1.1-12.358,4.153-7.871,5.752-6.261,17.022-3.792,22.025a.628.628,0,0,0,1.074.094c.43-.594,1.113-1.032,2.071-2.01a25.279,25.279,0,0,1,9.414-6.044C55.108,276.912,58.658,268.778,55.964,264.569Z" transform="translate(-13.075 -186.581)" fill="#8e868e"/>
        <path id="Trazado_197920" data-name="Trazado 197920" d="M50.676,261.5a19.2,19.2,0,0,0-8.494,3.574c-6.828,4.99-6.393,14.881-4.545,20.682a21.488,21.488,0,0,0-2.074,2.437.629.629,0,0,1-1.074-.094c-2.468-5.005-4.25-17.271,3.621-23.025C42.3,262.011,47.033,260.905,50.676,261.5Z" transform="translate(-12.912 -186.506)" fill="#766d78"/>
        <path id="Trazado_197933" data-name="Trazado 197933" d="M239,350.411H222.7l.771,10.871-.771,5.747,0,0a12.133,12.133,0,0,0,2.167,2.46,11.433,11.433,0,0,0,11.8.44c.947-.57,1.565-2.01,2.334-2.9l0-.006v-6.905l-.659-1.081Z" transform="translate(-143.612 -247.675)" fill="#e3a76f"/>
        <path id="Trazado_197934" data-name="Trazado 197934" d="M207.308,412.49l-8.528-3.514-8.495-2.583c-4.3,4.964-12,5.412-16.3.447l-16.4,5.65a9.406,9.406,0,0,0-5.823,8.7l.313,12.959,3.131.626h20.578l6.661-1.509,5.9,1.51h24.781V421.187A9.407,9.407,0,0,0,207.308,412.49Z" transform="translate(-94.895 -286.122)" fill="#869d69"/>
        <path id="Trazado_197935" data-name="Trazado 197935" d="M226.772,350.41H222.7v16.619c.511.59.281,1.585.877,2.035.678.512,2.193.46,2.951.79h0l0-7.731a.626.626,0,0,1,.769-.61,16.389,16.389,0,0,0,3.553.542A17.862,17.862,0,0,0,239,360.123V350.41H226.772Z" transform="translate(-143.613 -247.674)" fill="#d6995c"/>
        <path id="Trazado_197936" data-name="Trazado 197936" d="M176.076,406.959l-9.429,4.034-9.51,3.919a5.316,5.316,0,0,0-3.3,4.93v13.587H149.76V419.841a9.4,9.4,0,0,1,5.823-8.695l8.485-3.5,3.871-1.2,4.5-2.019a9.268,9.268,0,0,0,3.639,2.523Z" transform="translate(-93.519 -284.778)" fill="#617449"/>
        <path id="Trazado_197937" data-name="Trazado 197937" d="M229.548,406.969c-.2.238-.341.395-.354.41a43.466,43.466,0,0,0-10.076,25.039v.348H206.554v-.225a43.453,43.453,0,0,0-7.764-22.211,37.383,37.383,0,0,0-2.132-3.116l-.094-.122,8.186-3.3a9.852,9.852,0,0,0,3.831,2.5,10.79,10.79,0,0,0,12.47-2.823l0,0Z" transform="translate(-125.663 -284.115)" fill="#f8f7f7"/>
        <path id="Trazado_197938" data-name="Trazado 197938" d="M207.806,406.3l-9.788,4.034q-1.16-1.663-2.484-3.22l-.094-.122,8.538-3.517a10.769,10.769,0,0,0,2.531,2.149q.127.08.254.15a10.826,10.826,0,0,0,1.043.526Z" transform="translate(-124.891 -284.115)" fill="#e8e8e8"/>
        <path id="Trazado_197939" data-name="Trazado 197939" d="M227.47,245.071c0-11.8-5.934-21.253-17.732-21.253s-17.148,9.536-17.148,21.335c0,1.97-.9,4.03-.547,6.05,1.763,10.08,7.866,19.839,17.695,19.839,10.466,0,16.707-11.065,17.983-21.8A35.518,35.518,0,0,0,227.47,245.071Z" transform="translate(-122.502 -160.733)" fill="#e3a76f"/>
        <path id="Trazado_197940" data-name="Trazado 197940" d="M226.978,245.182c0-8.627-3.442-16.055-9.9-19.427a.316.316,0,0,1-.554-.28,17.984,17.984,0,0,0-7.771-1.656c-11.8,0-18.227,9.564-18.227,21.363a35.113,35.113,0,0,0,.533,6.021,8.383,8.383,0,0,1,1.007-.966c3.086-2.9,7.515-3.008,7.986-6.045a.628.628,0,0,1,.788-.524c3.511.974,9.211-1.25,11.118-5.11a.625.625,0,0,1,.979-.185,6.84,6.84,0,0,0,5.149,1.415.629.629,0,0,1,.662.42c1.772,5.181,6.632,3.28,7.987,9.035a34.394,34.394,0,0,0,.246-4.061Z" transform="translate(-121.514 -160.734)" fill="#d6995c"/>
        <g id="Grupo_149702" data-name="Grupo 149702" transform="translate(61.437 53.119)">
          <path id="Trazado_197941" data-name="Trazado 197941" d="M211.99,207.284c-.164-.047-.471-.106-.726-.15a.311.311,0,0,1-.231-.435,6.577,6.577,0,0,0-10.586-7.465.311.311,0,0,1-.528-.158,7.984,7.984,0,0,0-12.853-4.676.315.315,0,0,1-.443-.044,6.569,6.569,0,0,0-11.551,3.339.314.314,0,0,1-.294.274,9.382,9.382,0,0,0-2.129.371c-3.886,1.152-6.3,4.918-6.3,9.177a8.436,8.436,0,0,0,2.4,5.918.3.3,0,0,1,.079.221,27.872,27.872,0,0,0,.295,6.363,8.3,8.3,0,0,0,4.8,6.391,3.14,3.14,0,0,1,1.541-2.725c1.915-1.583,5.223-1.869,6.057-4.788a.306.306,0,0,1,.345-.224,16.091,16.091,0,0,0,2.23.263A11.277,11.277,0,0,0,194.62,211.7a.3.3,0,0,1,.518-.073,7.676,7.676,0,0,0,8.1,2.636.308.308,0,0,1,.378.206c1.923,6.28,6.732,4.254,6.732,10.115,3.15-1.423,5.033-6.285,5.931-9.517A6.33,6.33,0,0,0,211.99,207.284Z" transform="translate(-166.35 -192)" fill="#855b51"/>
        </g>
        <g id="Grupo_149703" data-name="Grupo 149703" transform="translate(61.014 59.462)">
          <path id="Trazado_197942" data-name="Trazado 197942" d="M174.534,237.592a3.759,3.759,0,0,0-1.361,3.112,9,9,0,0,1-5.354-6.608,28.291,28.291,0,0,1-.326-6.336.3.3,0,0,0-.078-.219,9.392,9.392,0,0,1,4.307-15.291,9.388,9.388,0,0,0-.861,13.412.3.3,0,0,1,.078.219,28.293,28.293,0,0,0,.326,6.336A8.755,8.755,0,0,0,174.534,237.592Z" transform="translate(-165 -212.25)" fill="#724d44"/>
        </g>
      </g>
    </g>
    <g id="Grupo_149837" data-name="Grupo 149837" transform="translate(1034 2834.439)">
      <g id="Grupo_149835" data-name="Grupo 149835">
        <path id="Trazado_198248" data-name="Trazado 198248" d="M161.261,443.427H2.4a2.109,2.109,0,1,1,0-4.177H161.261a2.109,2.109,0,1,1,0,4.177Z" transform="translate(0 -439.25)" fill="#855b51"/>
      </g>
    </g>
  </g>
</svg>
