<svg xmlns="http://www.w3.org/2000/svg" width="201" height="112" viewBox="0 0 201 112">
  <g id="Grupo_150165" data-name="Grupo 150165" transform="translate(-700 -2727)">
    <g id="Grupo_149696" data-name="Grupo 149696" transform="translate(-472 1742)">
      <rect id="Rectángulo_33815" data-name="Rectángulo 33815" width="201" height="112" transform="translate(1172 985)" fill="none"/>
    </g>
    <g id="Grupo_149838" data-name="Grupo 149838" transform="translate(719 2834.439)">
      <g id="Grupo_149835" data-name="Grupo 149835">
        <path id="Trazado_198248" data-name="Trazado 198248" d="M161.261,443.427H2.4a2.109,2.109,0,1,1,0-4.177H161.261a2.109,2.109,0,1,1,0,4.177Z" transform="translate(0 -439.25)" fill="#855b51"/>
      </g>
    </g>
    <g id="regando-plantas" transform="translate(732.605 2704.654)">
      <g id="Grupo_149880" data-name="Grupo 149880" transform="translate(16.794 24.868)">
        <g id="Grupo_149842" data-name="Grupo 149842" transform="translate(84.981)">
          <path id="Trazado_198249" data-name="Trazado 198249" d="M376.887,23.369a1.455,1.455,0,0,1-1.006-2.508,10.419,10.419,0,1,0-17.454-5.687,1.456,1.456,0,0,1-2.865.518,13.33,13.33,0,1,1,22.33,7.274,1.448,1.448,0,0,1-1.005.4Z" transform="translate(-355.351 0)" fill="#afafaf"/>
        </g>
        <g id="Grupo_149843" data-name="Grupo 149843" transform="translate(66.459 30.897)">
          <path id="Trazado_198250" data-name="Trazado 198250" d="M260.518,168.532l13.692,1.056,1.04-4.593-3.356-3.422H260.518l-2.03,3.422Z" transform="translate(-258.488 -161.573)" fill="#c9c4c4" fill-rule="evenodd"/>
        </g>
        <g id="Grupo_149844" data-name="Grupo 149844" transform="translate(60.6 28.603)">
          <path id="Trazado_198251" data-name="Trazado 198251" d="M227.851,159.307a1.912,1.912,0,0,0,2.761,1.645l5.127-2.124v-6.959l-5.127-2.124a1.919,1.919,0,0,0-2.761,1.65Z" transform="translate(-227.851 -149.575)" fill="#942e19" fill-rule="evenodd"/>
        </g>
        <g id="Grupo_149845" data-name="Grupo 149845" transform="translate(60.6 34.704)">
          <path id="Trazado_198252" data-name="Trazado 198252" d="M230.612,183.6a1.916,1.916,0,0,1-2.761-1.645v3.152a1.912,1.912,0,0,0,2.761,1.645l5.127-2.124V181.48l-1.023.424Z" transform="translate(-227.851 -181.48)" fill="#6b2314" fill-rule="evenodd"/>
        </g>
        <g id="Grupo_149846" data-name="Grupo 149846" transform="translate(68.489 30.897)">
          <path id="Trazado_198253" data-name="Trazado 198253" d="M277.113,165.985l-8.01-.605v3.152l13.692,1.056-2.316-8.015h-2.85l.528,1.942c.5,1.837.935,2.619-1.045,2.47Z" transform="translate(-269.103 -161.573)" fill="#afafaf" fill-rule="evenodd"/>
        </g>
        <g id="Grupo_149847" data-name="Grupo 149847" transform="translate(78.682 15.642)">
          <path id="Trazado_198254" data-name="Trazado 198254" d="M327.1,109.166c.479,1.656,2.613,2.222,4.164,1.485l22.763-10.815c1.551-.737,2.459-2.751,1.48-4.164l-5.259-7.6L345.9,81.8l-13.483,4.648-10.012,6.513,1.183,4.093,2.316,8.015Z" transform="translate(-322.409 -81.797)" fill="#942e19" fill-rule="evenodd"/>
        </g>
        <g id="Grupo_149848" data-name="Grupo 149848" transform="translate(77.442 10.771)">
          <path id="Trazado_198255" data-name="Trazado 198255" d="M317.166,72.356,328.228,67.1l12.432-5.908-2.151-3.108c-.979-1.414-2.613-2.222-4.17-1.485l-9.231,4.384-7.515,3.57c-1.551.737-1.958,2.514-1.48,4.164Z" transform="translate(-315.926 -56.323)" fill="#c9c4c4" fill-rule="evenodd"/>
        </g>
        <g id="Grupo_149849" data-name="Grupo 149849" transform="translate(90.944 10.771)">
          <path id="Trazado_198256" data-name="Trazado 198256" d="M391.445,56.6l-4.912,2.338c1.551-.743,3.185.066,4.164,1.48l1.793,2.6.358.517,4.918-2.338-2.151-3.108C394.636,56.672,393,55.863,391.445,56.6Z" transform="translate(-386.533 -56.322)" fill="#afafaf" fill-rule="evenodd"/>
        </g>
        <g id="Grupo_149850" data-name="Grupo 149850" transform="translate(97.259 15.642)">
          <path id="Trazado_198257" data-name="Trazado 198257" d="M424.476,81.8l-4.918,2.338,4.34,6.271.281.4,4.984,7.2c.979,1.414.072,3.427-1.485,4.164l4.918-2.338c1.551-.737,2.459-2.751,1.48-4.164l-5.259-7.6Z" transform="translate(-419.558 -81.798)" fill="#6b2314" fill-rule="evenodd"/>
        </g>
      </g>
      <g id="Grupo_149851" data-name="Grupo 149851" transform="translate(3.809 111.94)">
        <path id="Trazado_198258" data-name="Trazado 198258" d="M6.872,459.449H128.592a3.077,3.077,0,0,0,3.07-3.012V444.617a3.077,3.077,0,0,0-3.07-3.012H6.872a3.071,3.071,0,0,0-3.063,3.012v11.821a3.071,3.071,0,0,0,3.063,3.012Z" transform="translate(-3.809 -441.605)" fill="#d09080" fill-rule="evenodd"/>
      </g>
      <g id="Grupo_149852" data-name="Grupo 149852" transform="translate(31.661 118.929)">
        <path id="Trazado_198259" data-name="Trazado 198259" d="M115.616,473.04a1.916,1.916,0,0,1-1.359-.564l-.007-.007a1.925,1.925,0,1,1,1.367.571Z" transform="translate(-113.684 -469.175)" fill="#ce775f"/>
      </g>
      <g id="Grupo_149853" data-name="Grupo 149853" transform="translate(50.43 119.906)">
        <path id="Trazado_198260" data-name="Trazado 198260" d="M189.663,476.895a1.916,1.916,0,0,1-1.359-.563l-.007-.007a1.925,1.925,0,1,1,1.367.571Z" transform="translate(-187.731 -473.03)" fill="#ce775f"/>
      </g>
      <g id="Grupo_149854" data-name="Grupo 149854" transform="translate(80.54 118.929)">
        <path id="Trazado_198261" data-name="Trazado 198261" d="M308.445,473.04a1.916,1.916,0,0,1-1.359-.564l-.007-.007a1.925,1.925,0,1,1,1.367.571Z" transform="translate(-306.513 -469.175)" fill="#ce775f"/>
      </g>
      <g id="Grupo_149855" data-name="Grupo 149855" transform="translate(96.736 119.906)">
        <path id="Trazado_198262" data-name="Trazado 198262" d="M372.338,476.895a1.915,1.915,0,0,1-1.359-.563l-.007-.007a1.925,1.925,0,1,1,1.367.571Z" transform="translate(-370.406 -473.03)" fill="#ce775f"/>
      </g>
      <g id="Grupo_149856" data-name="Grupo 149856" transform="translate(60.759 53.167)">
        <path id="Trazado_198263" data-name="Trazado 198263" d="M121.885,185.347a1.355,1.355,0,0,1-1.355-1.355v-4.471a1.355,1.355,0,0,1,2.71,0v4.471A1.355,1.355,0,0,1,121.885,185.347Zm0-10.468a1.355,1.355,0,0,1-1.355-1.355v-3.016a6.832,6.832,0,0,1,6.824-6.824h2.781a1.355,1.355,0,0,1,0,2.71h-2.781a4.119,4.119,0,0,0-4.114,4.114v3.016A1.355,1.355,0,0,1,121.885,174.88Z" transform="translate(-120.53 -163.684)" fill="#9dc6fb"/>
      </g>
      <g id="Grupo_149857" data-name="Grupo 149857" transform="translate(67.145 57.955)">
        <path id="Trazado_198264" data-name="Trazado 198264" d="M157.759,202.311a1.355,1.355,0,0,1-1.355-1.355v-6.565a3.815,3.815,0,0,1,3.813-3.808h2.392a1.355,1.355,0,1,1,0,2.71h-2.392a1.115,1.115,0,0,0-1.1,1.1v6.565A1.355,1.355,0,0,1,157.759,202.311Z" transform="translate(-156.404 -190.583)" fill="#9dc6fb"/>
      </g>
      <g id="Grupo_149858" data-name="Grupo 149858" transform="translate(21.616 84.753)">
        <path id="Trazado_198265" data-name="Trazado 198265" d="M74.059,353.9l8.948-.9a10.106,10.106,0,0,0,8.86-9.845v-7.394a1.378,1.378,0,0,0-1.539-1.4l-7.409.744a10.118,10.118,0,0,0-8.86,9.845V353.9Z" transform="translate(-74.059 -334.352)" fill="#158f5e" fill-rule="evenodd"/>
      </g>
      <g id="Grupo_149859" data-name="Grupo 149859" transform="translate(21.616 84.753)">
        <path id="Trazado_198266" data-name="Trazado 198266" d="M83.007,353a10.106,10.106,0,0,0,8.86-9.845V335.76a1.378,1.378,0,0,0-1.539-1.4l-2.334.233v5.951c.007,4.922-3.478,8.466-8.357,8.955l-2.6.263-2.983.306V353.9Z" transform="translate(-74.059 -334.352)" fill="#147d53" fill-rule="evenodd"/>
      </g>
      <g id="Grupo_149860" data-name="Grupo 149860" transform="translate(20.132 93.231)">
        <path id="Trazado_198267" data-name="Trazado 198267" d="M70.131,380.3a1.929,1.929,0,0,1-1.43-3.224l7.824-8.649a1.929,1.929,0,1,1,2.862,2.589l-7.824,8.649A1.926,1.926,0,0,1,70.131,380.3Z" transform="translate(-68.202 -367.797)" fill="#a18278"/>
      </g>
      <g id="Grupo_149861" data-name="Grupo 149861" transform="translate(120.52 111.941)">
        <path id="Trazado_198268" data-name="Trazado 198268" d="M467.3,444.668V456.38a3.08,3.08,0,0,1-3.07,3.07h8.072a3.077,3.077,0,0,0,3.07-3.012V444.618a3.077,3.077,0,0,0-3.07-3.012h-8.072A3.072,3.072,0,0,1,467.3,444.668Z" transform="translate(-464.234 -441.606)" fill="#ce775f" fill-rule="evenodd"/>
      </g>
      <g id="Grupo_149862" data-name="Grupo 149862" transform="translate(3.86 74.828)">
        <path id="Trazado_198269" data-name="Trazado 198269" d="M21.818,314.75l-8.948-.9A10.118,10.118,0,0,1,4.01,304v-7.394a1.378,1.378,0,0,1,1.539-1.4l7.409.744a10.118,10.118,0,0,1,8.86,9.845v8.955Z" transform="translate(-4.01 -295.198)" fill="#a3e440" fill-rule="evenodd"/>
      </g>
      <g id="Grupo_149863" data-name="Grupo 149863" transform="translate(3.86 74.828)">
        <path id="Trazado_198270" data-name="Trazado 198270" d="M12.87,313.846A10.118,10.118,0,0,1,4.01,304v-7.394a1.378,1.378,0,0,1,1.539-1.4l2.334.233v5.951c0,4.922,3.478,8.466,8.357,8.955l2.6.263,2.983.3v3.843Z" transform="translate(-4.01 -295.198)" fill="#99d53b" fill-rule="evenodd"/>
      </g>
      <g id="Grupo_149864" data-name="Grupo 149864" transform="translate(11.476 83.306)">
        <path id="Trazado_198271" data-name="Trazado 198271" d="M43.8,341.151a1.924,1.924,0,0,1-1.432-.636l-7.817-8.648a1.93,1.93,0,0,1,2.863-2.588l7.817,8.649a1.929,1.929,0,0,1-1.431,3.223Z" transform="translate(-34.055 -328.643)" fill="#a18278"/>
      </g>
      <g id="Grupo_149865" data-name="Grupo 149865" transform="translate(19.687 83.495)">
        <path id="Trazado_198272" data-name="Trazado 198272" d="M70.3,331.316v28.446H66.446V331.316a1.929,1.929,0,1,1,3.859,0Z" transform="translate(-66.446 -329.387)" fill="#a18278"/>
      </g>
      <g id="Grupo_149866" data-name="Grupo 149866" transform="translate(67.732 84.753)">
        <path id="Trazado_198273" data-name="Trazado 198273" d="M255.986,353.9l8.955-.9a10.112,10.112,0,0,0,8.86-9.845v-7.394a1.384,1.384,0,0,0-1.546-1.4l-7.409.744a10.118,10.118,0,0,0-8.86,9.845V353.9Z" transform="translate(-255.986 -334.352)" fill="#16a66c" fill-rule="evenodd"/>
      </g>
      <g id="Grupo_149867" data-name="Grupo 149867" transform="translate(67.732 84.753)">
        <path id="Trazado_198274" data-name="Trazado 198274" d="M264.94,353a10.112,10.112,0,0,0,8.86-9.845V335.76a1.384,1.384,0,0,0-1.546-1.4l-2.326.233v5.951c0,4.922-3.486,8.466-8.357,8.955l-2.6.263-2.99.306V353.9Z" transform="translate(-255.985 -334.352)" fill="#158f5e" fill-rule="evenodd"/>
      </g>
      <g id="Grupo_149868" data-name="Grupo 149868" transform="translate(66.255 93.231)">
        <path id="Trazado_198275" data-name="Trazado 198275" d="M252.086,380.3a1.93,1.93,0,0,1-1.431-3.223l7.817-8.649a1.93,1.93,0,0,1,2.863,2.588l-7.817,8.649a1.926,1.926,0,0,1-1.432.636Z" transform="translate(-250.157 -367.797)" fill="#a18278"/>
      </g>
      <g id="Grupo_149869" data-name="Grupo 149869" transform="translate(49.975 74.829)">
        <path id="Trazado_198276" data-name="Trazado 198276" d="M203.744,314.751l-8.948-.9a10.118,10.118,0,0,1-8.86-9.845v-7.394a1.378,1.378,0,0,1,1.539-1.4l7.409.744a10.112,10.112,0,0,1,8.86,9.845v8.955Z" transform="translate(-185.936 -295.199)" fill="#a3e440" fill-rule="evenodd"/>
      </g>
      <g id="Grupo_149870" data-name="Grupo 149870" transform="translate(49.975 74.828)">
        <path id="Trazado_198277" data-name="Trazado 198277" d="M194.8,313.846a10.118,10.118,0,0,1-8.86-9.845v-7.394a1.378,1.378,0,0,1,1.539-1.4l2.334.233v5.951c0,4.922,3.486,8.466,8.357,8.955l2.6.263,2.983.3v3.843Z" transform="translate(-185.936 -295.198)" fill="#99d53b" fill-rule="evenodd"/>
      </g>
      <g id="Grupo_149871" data-name="Grupo 149871" transform="translate(57.592 83.306)">
        <path id="Trazado_198278" data-name="Trazado 198278" d="M225.729,341.15a1.924,1.924,0,0,1-1.432-.636l-7.817-8.649a1.93,1.93,0,0,1,2.863-2.588l7.817,8.649a1.93,1.93,0,0,1-1.431,3.223Z" transform="translate(-215.981 -328.642)" fill="#a18278"/>
      </g>
      <g id="Grupo_149872" data-name="Grupo 149872" transform="translate(65.804 83.495)">
        <path id="Trazado_198279" data-name="Trazado 198279" d="M252.237,359.762V331.317a1.93,1.93,0,1,0-3.859,0v28.446Z" transform="translate(-248.378 -329.387)" fill="#a18278"/>
      </g>
      <g id="Grupo_149873" data-name="Grupo 149873" transform="translate(113.855 84.753)">
        <path id="Trazado_198280" data-name="Trazado 198280" d="M437.941,353.9l8.948-.9a10.112,10.112,0,0,0,8.86-9.845v-7.394a1.38,1.38,0,0,0-1.546-1.4l-7.409.744a10.111,10.111,0,0,0-8.853,9.845V353.9Z" transform="translate(-437.941 -334.352)" fill="#16a66c" fill-rule="evenodd"/>
      </g>
      <g id="Grupo_149874" data-name="Grupo 149874" transform="translate(113.855 84.753)">
        <path id="Trazado_198281" data-name="Trazado 198281" d="M446.888,353a10.112,10.112,0,0,0,8.86-9.845V335.76a1.38,1.38,0,0,0-1.546-1.4l-2.326.233v5.951c0,4.922-3.486,8.466-8.357,8.955l-2.6.263-2.983.306V353.9Z" transform="translate(-437.94 -334.352)" fill="#158f5e" fill-rule="evenodd"/>
      </g>
      <g id="Grupo_149875" data-name="Grupo 149875" transform="translate(112.37 93.231)">
        <path id="Trazado_198282" data-name="Trazado 198282" d="M434.012,380.3a1.93,1.93,0,0,1-1.431-3.223l7.817-8.649a1.93,1.93,0,0,1,2.863,2.588l-7.817,8.649A1.926,1.926,0,0,1,434.012,380.3Z" transform="translate(-432.083 -367.797)" fill="#a18278"/>
      </g>
      <g id="Grupo_149876" data-name="Grupo 149876" transform="translate(96.091 74.829)">
        <path id="Trazado_198283" data-name="Trazado 198283" d="M385.677,314.751l-8.955-.9a10.118,10.118,0,0,1-8.86-9.845v-7.394a1.38,1.38,0,0,1,1.546-1.4l7.409.744a10.118,10.118,0,0,1,8.86,9.845v8.955Z" transform="translate(-367.862 -295.199)" fill="#a3e440" fill-rule="evenodd"/>
      </g>
      <g id="Grupo_149877" data-name="Grupo 149877" transform="translate(96.091 74.828)">
        <path id="Trazado_198284" data-name="Trazado 198284" d="M376.722,313.846a10.118,10.118,0,0,1-8.86-9.845v-7.394a1.38,1.38,0,0,1,1.546-1.4l2.326.233v5.951c0,4.922,3.486,8.466,8.357,8.955l2.6.263,2.99.3v3.843Z" transform="translate(-367.862 -295.198)" fill="#99d53b" fill-rule="evenodd"/>
      </g>
      <g id="Grupo_149878" data-name="Grupo 149878" transform="translate(103.707 83.306)">
        <path id="Trazado_198285" data-name="Trazado 198285" d="M407.655,341.15a1.924,1.924,0,0,1-1.432-.636l-7.817-8.649a1.93,1.93,0,0,1,2.863-2.588l7.817,8.649a1.93,1.93,0,0,1-1.431,3.223Z" transform="translate(-397.907 -328.642)" fill="#a18278"/>
      </g>
      <g id="Grupo_149879" data-name="Grupo 149879" transform="translate(111.926 83.495)">
        <path id="Trazado_198286" data-name="Trazado 198286" d="M434.189,331.316v28.446H430.33V331.316a1.93,1.93,0,0,1,3.859,0Z" transform="translate(-430.33 -329.387)" fill="#a18278"/>
      </g>
    </g>
  </g>
</svg>
