<svg xmlns="http://www.w3.org/2000/svg" width="201" height="112" viewBox="0 0 201 112">
  <g id="Grupo_80162" data-name="Grupo 80162" transform="translate(-227 -985)">
    <g id="dieta" transform="translate(265 957.959)">
      <rect id="Rect치ngulo_33798" data-name="Rect치ngulo 33798" width="12.64" height="8.435" transform="translate(14.844 38.689)" fill="#48c1e1"/>
      <path id="Trazado_190689" data-name="Trazado 190689" d="M67.978,37.761a1.261,1.261,0,0,1-1.257,1.258H51.38a1.261,1.261,0,0,1-1.257-1.258V28.7a1.261,1.261,0,0,1,1.257-1.258H66.72A1.261,1.261,0,0,1,67.977,28.7v9.064Z" transform="translate(-37.886)" fill="#046699"/>
      <g id="Grupo_80119" data-name="Grupo 80119" transform="translate(12.237 27.439)" opacity="0.1">
        <path id="Trazado_190690" data-name="Trazado 190690" d="M55.368,37.761V28.7a1.261,1.261,0,0,1,1.258-1.258H51.38A1.261,1.261,0,0,0,50.123,28.7v9.064a1.261,1.261,0,0,0,1.257,1.258h5.245A1.261,1.261,0,0,1,55.368,37.761Z" transform="translate(-50.123 -27.439)"/>
      </g>
      <path id="Trazado_190691" data-name="Trazado 190691" d="M29.845,166.814a.244.244,0,0,0,.12-.346,1.1,1.1,0,0,1-.158-.54c0-1.346,2.986-2.786,7.431-2.786a16.94,16.94,0,0,1,4.03.46.244.244,0,0,0,.3-.3,45.077,45.077,0,0,1-1.324-9.53c0-.038,0-.076-.005-.114q-.021-.7-.021-1.4a1.021,1.021,0,0,1,1.019-1.021h2.206a.244.244,0,0,0,.243-.271,7.564,7.564,0,0,1-.053-.851,7.8,7.8,0,0,1,5.474-7.476.244.244,0,0,0,.146-.338,7.367,7.367,0,0,1,3.567-9.9.244.244,0,0,0,.128-.3,7.366,7.366,0,0,1,2.195-8.118V113.506a7.03,7.03,0,0,0-7-7.018h-16.1a7.03,7.03,0,0,0-7,7.018v56.22A18.244,18.244,0,0,1,29.845,166.814Z" transform="translate(-18.919 -59.75)" fill="#a2dff9"/>
      <path id="Trazado_190692" data-name="Trazado 190692" d="M49.1,182.217a.244.244,0,0,0,.146-.338,7.367,7.367,0,0,1,3.567-9.9.244.244,0,0,0,.128-.3,7.366,7.366,0,0,1,2.195-8.118V158.84H25.03v25.977H45.323A7.8,7.8,0,0,1,49.1,182.217Z" transform="translate(-18.919 -99.321)" fill="#046699"/>
      <path id="Trazado_190693" data-name="Trazado 190693" d="M32.591,163.769V113.5a7.03,7.03,0,0,1,7-7.018H32.032a7.03,7.03,0,0,0-7,7.018v56.22a18.25,18.25,0,0,1,4.815-2.912.244.244,0,0,0,.12-.346,1.1,1.1,0,0,1-.158-.54C29.807,165.136,30.84,164.314,32.591,163.769Z" transform="translate(-18.919 -59.749)" opacity="0.1"/>
      <path id="Trazado_190694" data-name="Trazado 190694" d="M238.87,144.761a7.451,7.451,0,0,1,.108,1.256.244.244,0,0,0,.223.243,7.374,7.374,0,0,1,6.5,5.54.244.244,0,0,0,.168.175.24.24,0,0,0,.069.01.244.244,0,0,0,.167-.066,7.729,7.729,0,0,1,4.583-2.064.244.244,0,0,0,.221-.235,13.4,13.4,0,0,1,3.92-9.065c.051-.051.1-.1.155-.147a16.819,16.819,0,0,0-4.721-9.305,1.316,1.316,0,0,0-1.863,0l-10.717,10.741A7.379,7.379,0,0,1,238.87,144.761Z" transform="translate(-179.656 -78.062)" fill="#ef5050"/>
      <g id="Grupo_80120" data-name="Grupo 80120" transform="translate(63.682 57.816)">
        <path id="Trazado_190695" data-name="Trazado 190695" d="M263.206,203.589a.244.244,0,0,0,.168.175.24.24,0,0,0,.069.01.244.244,0,0,0,.167-.066,7.807,7.807,0,0,1,2.07-1.39,1.824,1.824,0,0,0-.457-.766l-1.778-1.782a1.831,1.831,0,0,0-2.589,0l-.015.016A7.356,7.356,0,0,1,263.206,203.589Z" transform="translate(-260.841 -187.667)" fill="#c0272d"/>
        <path id="Trazado_190696" data-name="Trazado 190696" d="M272.674,183.541H270.16a1.831,1.831,0,0,1,0-3.662h2.514a1.831,1.831,0,0,1,0,3.662Z" transform="translate(-266.501 -173.039)" fill="#c0272d"/>
        <path id="Trazado_190697" data-name="Trazado 190697" d="M268.707,157.305a1.831,1.831,0,0,1-1.3-3.125l1.778-1.782a1.831,1.831,0,0,1,2.592,2.587L270,156.768A1.826,1.826,0,0,1,268.707,157.305Z" transform="translate(-265.403 -151.862)" fill="#c0272d"/>
      </g>
      <path id="Trazado_190698" data-name="Trazado 190698" d="M309.772,155.1a.433.433,0,0,0-.244-.244,13.658,13.658,0,0,0-18.694,12.515c.253-.025.51-.038.77-.038a7.837,7.837,0,0,1,7.674,6.33A13.681,13.681,0,0,0,309.772,155.1Z" transform="translate(-219.83 -95.578)" fill="#89c947"/>
      <path id="Trazado_190699" data-name="Trazado 190699" d="M313.831,183.215a1.831,1.831,0,0,0-2.589,0l-6.334,6.348a7.843,7.843,0,0,1,3.1,2.079l5.827-5.841A1.831,1.831,0,0,0,313.831,183.215Z" transform="translate(-230.468 -117.34)" fill="#d5e962"/>
      <g id="Grupo_80121" data-name="Grupo 80121" transform="translate(24.464 68.818)">
        <path id="Trazado_190700" data-name="Trazado 190700" d="M359.292,208.605a6.687,6.687,0,0,1,.1,1.13.244.244,0,0,0,.223.243,6.586,6.586,0,0,1,2.808.913.244.244,0,0,0,.309-.049c.208-.239.387-.432.563-.608a12.229,12.229,0,0,1,5.2-3.106,8.066,8.066,0,1,0-15.62-4.022A6.621,6.621,0,0,1,359.292,208.605Z" transform="translate(-291.184 -196.929)" fill="#ffc502"/>
        <path id="Trazado_190701" data-name="Trazado 190701" d="M113.049,262.076a12.583,12.583,0,0,1-1.533-4.673,7.355,7.355,0,0,1-5.434-4.052,8.034,8.034,0,0,0-5.814,8.726h12.782Z" transform="translate(-100.206 -239.575)" fill="#ffc502"/>
      </g>
      <path id="Trazado_190702" data-name="Trazado 190702" d="M395.029,244.715a6.586,6.586,0,0,1-.541,3.973h10.362a12.578,12.578,0,0,0,1.448-11.935.4.4,0,0,0-.224-.224,12.509,12.509,0,0,0-13.5,2.791c-.259.26-.5.531-.733.808A6.636,6.636,0,0,1,395.029,244.715Z" transform="translate(-296.178 -157.369)" fill="#89c947"/>
      <path id="Trazado_190703" data-name="Trazado 190703" d="M402.678,268.212h2.264l3.612-3.62a1.831,1.831,0,0,0-2.593-2.586l-2.681,2.688A6.578,6.578,0,0,1,402.678,268.212Z" transform="translate(-304.368 -176.893)" fill="#d5e962"/>
      <path id="Trazado_190704" data-name="Trazado 190704" d="M157.211,175.736a7.62,7.62,0,0,0-6.762-5.925,7.633,7.633,0,0,0-14-4.189,7.634,7.634,0,0,0-11.771,8.675,7.623,7.623,0,0,0,1.971,14.451,12.3,12.3,0,0,1,.751-6.308.156.156,0,0,1,.035-.053.16.16,0,0,1,.053-.035,12.263,12.263,0,0,1,13.235,2.737c.168.169.329.343.486.52a16.823,16.823,0,0,1-.2-2.567,1.076,1.076,0,0,1,1.073-1.076h12.784c-.011-.17-.019-.341-.019-.514A8.067,8.067,0,0,1,157.211,175.736Z" transform="translate(-90.884 -101.856)" fill="#368c0e"/>
      <g id="Grupo_80122" data-name="Grupo 80122" transform="translate(37.757 67.017)">
        <path id="Trazado_190705" data-name="Trazado 190705" d="M156.484,197.129h-.032a1.831,1.831,0,0,1-1.8-1.862,5.824,5.824,0,0,1,5.815-5.715h.093a5.829,5.829,0,0,1,4.2,1.89,1.831,1.831,0,0,1-2.7,2.47,2.124,2.124,0,0,0-1.551-.7,2.155,2.155,0,0,0-2.19,2.115A1.831,1.831,0,0,1,156.484,197.129Z" transform="translate(-154.652 -189.552)" fill="#89c947"/>
        <path id="Trazado_190706" data-name="Trazado 190706" d="M197.889,215.077a1.832,1.832,0,0,1-1.717-2.468,5.333,5.333,0,0,1,9.908-.237,1.831,1.831,0,1,1-3.37,1.432,1.649,1.649,0,0,0-.955-.91,1.676,1.676,0,0,0-2.15.988A1.832,1.832,0,0,1,197.889,215.077Z" transform="translate(-185.949 -204.349)" fill="#89c947"/>
      </g>
      <path id="Trazado_190707" data-name="Trazado 190707" d="M324.844,226.55h-.067c0,.017,0,.034,0,.052h2.453a1.319,1.319,0,0,1,1.317,1.32,16.813,16.813,0,0,1-3.188,9.858h18.48a6.872,6.872,0,0,0-5.66-9.695,6.894,6.894,0,0,0-12.646-3.783,6.913,6.913,0,0,0-1.047-.642,7.826,7.826,0,0,1,.375,2.4C324.861,226.217,324.856,226.38,324.844,226.55Z" transform="translate(-245.266 -146.461)" fill="#368c0e"/>
      <path id="Trazado_190708" data-name="Trazado 190708" d="M277.068,216.559c.011-.17.019-.341.019-.514a8.064,8.064,0,1,0-16.129,0c0,.173.008.344.019.514Z" transform="translate(-197.248 -136.451)" fill="#f7931e"/>
      <path id="Trazado_190709" data-name="Trazado 190709" d="M159.617,243.864a12.51,12.51,0,0,0-13.5-2.791.41.41,0,0,0-.135.089.4.4,0,0,0-.089.135,12.58,12.58,0,0,0,.741,10.825h16.621a16.849,16.849,0,0,1-3.226-7.823Q159.831,244.078,159.617,243.864Z" transform="translate(-109.606 -160.804)" fill="#89c947"/>
      <path id="Trazado_190710" data-name="Trazado 190710" d="M173.792,271.647h5.173l-5.085-5.1a1.831,1.831,0,0,0-2.593,2.586Z" transform="translate(-129.065 -180.328)" fill="#d5e962"/>
      <path id="Trazado_190711" data-name="Trazado 190711" d="M234.653,253.628a16.827,16.827,0,0,0,3.386-10.134,1.318,1.318,0,0,0-1.317-1.32H205.637a1.318,1.318,0,0,0-1.317,1.32,16.826,16.826,0,0,0,3.386,10.134Z" transform="translate(-154.437 -162.309)" fill="#ef5050"/>
      <g id="Grupo_80123" data-name="Grupo 80123" transform="translate(54.016 82.719)">
        <path id="Trazado_190712" data-name="Trazado 190712" d="M269.812,279.5v-1.267a1.831,1.831,0,1,0-3.662,0V279.5Z" transform="translate(-255.188 -270.901)" fill="#c0272d"/>
        <path id="Trazado_190713" data-name="Trazado 190713" d="M288.794,274.317h2.847a1.831,1.831,0,0,0-.121-2.452l-1.778-1.782a1.831,1.831,0,1,0-2.593,2.586Z" transform="translate(-270.657 -265.717)" fill="#c0272d"/>
        <path id="Trazado_190714" data-name="Trazado 190714" d="M240.482,274.318l1.644-1.647a1.831,1.831,0,0,0-2.592-2.587l-1.778,1.782a1.831,1.831,0,0,0-.122,2.452Z" transform="translate(-233.321 -265.717)" fill="#c0272d"/>
        <path id="Trazado_190715" data-name="Trazado 190715" d="M225.6,257.527h-2.514a1.831,1.831,0,0,1,0-3.662H225.6a1.831,1.831,0,0,1,0,3.662Z" transform="translate(-221.25 -253.865)" fill="#c0272d"/>
        <path id="Trazado_190716" data-name="Trazado 190716" d="M304.552,257.527h-2.514a1.831,1.831,0,0,1,0-3.662h2.514a1.831,1.831,0,0,1,0,3.662Z" transform="translate(-280.93 -253.865)" fill="#c0272d"/>
      </g>
      <path id="Trazado_190717" data-name="Trazado 190717" d="M87.871,301.5a.247.247,0,0,0,.066.009.244.244,0,0,0,.244-.244v-3.1a1.587,1.587,0,0,1,3.174,0v3.1a.244.244,0,0,0,.244.244.235.235,0,0,0,.066-.009,16.454,16.454,0,0,1,4.382-.553c4.445,0,7.43,1.441,7.43,2.786a1.1,1.1,0,0,1-.158.541.244.244,0,0,0,.119.346,16.913,16.913,0,0,1,10.524,12.985.244.244,0,0,0,.328.194l38.544-14.643a6.53,6.53,0,0,1,8.746,4.894l.336,1.813a.244.244,0,0,0,.364.166l12.959-7.65a45.4,45.4,0,0,0,1.678-12.308,1.264,1.264,0,0,0-1.263-1.265H87.484a1.264,1.264,0,0,0-1.263,1.265,45.518,45.518,0,0,0,1.427,11.371C87.722,301.464,87.8,301.482,87.871,301.5Z" transform="translate(-65.171 -197.558)" fill="#e6e9ed"/>
      <path id="Trazado_190718" data-name="Trazado 190718" d="M87.871,301.5a.247.247,0,0,0,.066.009.244.244,0,0,0,.244-.244v-3.1a1.587,1.587,0,0,1,3.174,0v3.1a.244.244,0,0,0,.244.244.235.235,0,0,0,.066-.009,15.891,15.891,0,0,1,3.7-.54,45.593,45.593,0,0,1-1.3-10.889,1.264,1.264,0,0,1,1.263-1.265H87.484a1.264,1.264,0,0,0-1.263,1.265,45.518,45.518,0,0,0,1.427,11.371C87.722,301.464,87.8,301.482,87.871,301.5Z" transform="translate(-65.171 -197.558)" opacity="0.1"/>
      <path id="Trazado_190719" data-name="Trazado 190719" d="M95.083,325.684a8.492,8.492,0,0,1,1.832-.727v-3.479a1.831,1.831,0,0,0-3.662,0v3.479A8.465,8.465,0,0,1,95.083,325.684Z" transform="translate(-70.485 -220.869)" fill="#89c947"/>
      <path id="Trazado_190720" data-name="Trazado 190720" d="M43.3,384.318l-6.613,0h0A6.519,6.519,0,0,1,30.269,379l-.065-.351A6.5,6.5,0,0,1,34.3,371.4l14.774-5.612a17.078,17.078,0,0,0-10.937-13.519c-.571.96-2.539,1.8-5.1,2.1a.244.244,0,0,0-.124.433,5.38,5.38,0,0,1,2.231,3,.926.926,0,0,1-.222.731,2.352,2.352,0,0,1-1.77.537h0a13.41,13.41,0,0,1-5.963-1.844,15.04,15.04,0,0,1-2.43-1.653.244.244,0,0,0-.315,0,15,15,0,0,1-2.429,1.653,13.409,13.409,0,0,1-5.963,1.844,2.352,2.352,0,0,1-1.77-.537.925.925,0,0,1-.222-.731,5.384,5.384,0,0,1,2.231-3,.244.244,0,0,0-.124-.433c-2.562-.3-4.53-1.137-5.1-2.1C4.555,354.849,0,360.8,0,367.729c0,9.3,8.2,16.836,18.312,16.836H43.7C43.975,384.565,43.763,384.467,43.3,384.318Z" transform="translate(0 -245.524)" fill="#ef5050"/>
      <path id="Trazado_190721" data-name="Trazado 190721" d="M7.922,367.729a16.409,16.409,0,0,1,7.36-13.495c-2.127-.371-3.719-1.12-4.222-1.968C4.555,354.85,0,360.8,0,367.729c0,9.3,8.2,16.836,18.312,16.836h7.923C16.121,384.565,7.922,377.028,7.922,367.729Z" transform="translate(0 -245.524)" opacity="0.1"/>
      <path id="Trazado_190722" data-name="Trazado 190722" d="M71.5,340.57c0-1.674-3.436-3.031-7.675-3.031a13.609,13.609,0,0,0-6.28,1.289,13.6,13.6,0,0,0-6.279-1.289c-4.238,0-7.675,1.357-7.675,3.031,0,1.374,2.316,2.533,5.489,2.905-1.941,1.553-2.83,3.186-2.039,4.079,1.048,1.183,4.646.621,8.034-1.255a15.3,15.3,0,0,0,2.469-1.68,15.356,15.356,0,0,0,2.469,1.68c3.389,1.876,6.986,2.438,8.034,1.255.791-.893-.1-2.526-2.039-4.079C69.188,343.1,71.5,341.943,71.5,340.57Z" transform="translate(-32.952 -234.392)" fill="#368c0e"/>
      <path id="Trazado_190723" data-name="Trazado 190723" d="M424.379,350.606l-.492-2.652a1.692,1.692,0,0,0-1.971-1.352l-18.977,3.486,12.117-8.1a1.678,1.678,0,0,0,.532-2.226l-1.371-2.429a1.7,1.7,0,0,0-2.338-.624l-15.763,9.3,2.982,16.1,18.08,3.249a1.691,1.691,0,0,0,1.974-1.411l.409-2.742a1.664,1.664,0,0,0-.009-.553,1.689,1.689,0,0,0-1.285-1.337l-14.222-3.262,18.978-3.486A1.686,1.686,0,0,0,424.379,350.606Z" transform="translate(-299.407 -233.587)" fill="#89c947"/>
      <path id="Trazado_190724" data-name="Trazado 190724" d="M122.447,373.432a6.763,6.763,0,0,0,6.661,5.52l57.121-.022a6.752,6.752,0,0,0,6.656-7.967l-3.816-20.6A6.774,6.774,0,0,0,180,345.283l-53.369,20.274a6.74,6.74,0,0,0-4.246,7.524Z" transform="translate(-92.418 -239.911)" fill="#f7931e"/>
      <g id="Grupo_80124" data-name="Grupo 80124" transform="translate(29.851 104.93)" opacity="0.1">
        <path id="Trazado_190725" data-name="Trazado 190725" d="M122.447,373.433a6.709,6.709,0,0,0,.428,1.4,7.051,7.051,0,0,1,3.648-3.137l55.735-21.173a7.065,7.065,0,0,1,7.06,1.184l-.249-1.348A6.774,6.774,0,0,0,180,345.284l-53.369,20.274a6.74,6.74,0,0,0-4.246,7.524Z" transform="translate(-122.269 -344.842)"/>
      </g>
      <g id="Grupo_80125" data-name="Grupo 80125" transform="translate(41.885 111.018)">
        <path id="Trazado_190726" data-name="Trazado 190726" d="M359.6,444.784a1.831,1.831,0,0,0-3.6.688l1.507,7.879h3.728Z" transform="translate(-310.948 -425.348)" fill="#ffc502"/>
        <path id="Trazado_190727" data-name="Trazado 190727" d="M318.942,453.662a1.831,1.831,0,1,0-3.6.678l1.079,5.721h3.726Z" transform="translate(-280.216 -432.055)" fill="#ffc502"/>
        <path id="Trazado_190728" data-name="Trazado 190728" d="M285.367,377.6a1.831,1.831,0,0,0,3.552-.895l-1.743-6.921-3.447,1.31Z" transform="translate(-256.344 -369.78)" fill="#ffc502"/>
        <path id="Trazado_190729" data-name="Trazado 190729" d="M240.164,447.082a1.831,1.831,0,1,0-3.6.65l1.326,7.353h3.721Z" transform="translate(-220.669 -427.071)" fill="#ffc502"/>
        <path id="Trazado_190730" data-name="Trazado 190730" d="M172.584,418.556a1.831,1.831,0,0,0,3.584-.752l-1.142-5.44-3.465,1.316Z" transform="translate(-171.561 -401.968)" fill="#ffc502"/>
      </g>
    </g>
    <rect id="Rect치ngulo_33818" data-name="Rect치ngulo 33818" width="201" height="112" transform="translate(227 985)" fill="none"/>
  </g>
</svg>
