<svg xmlns="http://www.w3.org/2000/svg" width="201" height="112" viewBox="0 0 201 112">
  <g id="Grupo_80159" data-name="Grupo 80159" transform="translate(-1172 -985)">
    <g id="Grupo_80156" data-name="Grupo 80156" transform="translate(-10.014 -12.529)">
      <rect id="Rectángulo_33805" data-name="Rectángulo 33805" width="34.25" height="13.258" rx="6.629" transform="translate(1291.234 1096.27)" fill="#c79a83"/>
      <rect id="Rectángulo_33806" data-name="Rectángulo 33806" width="34.25" height="12.153" rx="6.077" transform="translate(1291.234 1084.116)" fill="#d4b09e"/>
      <rect id="Rectángulo_33807" data-name="Rectángulo 33807" width="34.25" height="13.258" rx="6.629" transform="translate(1291.234 1070.858)" fill="#c79a83"/>
      <g id="crane" transform="translate(1239.305 998.594)">
        <path id="Trazado_190812" data-name="Trazado 190812" d="M455.25,45H452V84h6.5V45Z" transform="translate(-354.065 -35.25)" fill="#fabe2c"/>
        <path id="Trazado_190813" data-name="Trazado 190813" d="M467,45h3.25V84H467Z" transform="translate(-365.815 -35.25)" fill="#ff9100"/>
        <path id="Trazado_190814" data-name="Trazado 190814" d="M98.649,1.538,32.5,19.219,0,27.964V46.706l6.5,6.5V32.947l26-7L100.338,7.816Z" transform="translate(0 -1.205)" fill="#47568c"/>
        <path id="Trazado_190815" data-name="Trazado 190815" d="M216.149,1.538,150,19.219v6.732L217.837,7.816Z" transform="translate(-117.499 -1.205)" fill="#29376d"/>
        <path id="Trazado_190816" data-name="Trazado 190816" d="M256.3,0a9.643,9.643,0,0,0-5.846,1.949l-52.434,39,14.3,13.651L256.3,21.939l5.846-4.384A9.751,9.751,0,0,0,256.3,0Z" transform="translate(-155.113)" fill="#fed843"/>
        <path id="Trazado_190817" data-name="Trazado 190817" d="M476.75,9.75A9.761,9.761,0,0,0,467,0V21.939l5.846-4.384a9.8,9.8,0,0,0,3.9-7.8Z" transform="translate(-365.815)" fill="#fabe2c"/>
        <path id="Trazado_190818" data-name="Trazado 190818" d="M199.5,219.434H180V189.75a9.75,9.75,0,1,1,19.5,0Z" transform="translate(-140.999 -140.999)" fill="#47568c"/>
        <path id="Trazado_190819" data-name="Trazado 190819" d="M437.53,321.148A6.308,6.308,0,0,1,435,316l-3.25.076-3.25.076a13.2,13.2,0,0,0,5.17,10.226A3.25,3.25,0,1,1,428.5,329H422a9.75,9.75,0,1,0,15.53-7.852Z" transform="translate(-330.565 -247.532)" fill="#ff6c6c"/>
        <path id="Trazado_190820" data-name="Trazado 190820" d="M476.75,329a9.793,9.793,0,0,0-3.971-7.852A6.308,6.308,0,0,1,470.25,316l-3.25.076v8.5a12.62,12.62,0,0,0,1.92,1.8,3.25,3.25,0,0,1-1.92,5.872v6.5A9.761,9.761,0,0,0,476.75,329Z" transform="translate(-365.815 -247.532)" fill="#e63950"/>
        <path id="Trazado_190821" data-name="Trazado 190821" d="M431.75,203.789l-9.75,9.75v17.813h19.5V213.539Z" transform="translate(-330.565 -159.634)" fill="#fabe2c"/>
        <path id="Trazado_190822" data-name="Trazado 190822" d="M476.75,213.539l-9.75-9.75v27.563h9.75Z" transform="translate(-365.815 -159.634)" fill="#ff9100"/>
        <path id="Trazado_190823" data-name="Trazado 190823" d="M90,362h26v19.5H90Z" transform="translate(-70.5 -283.565)" fill="#47568c"/>
        <path id="Trazado_190824" data-name="Trazado 190824" d="M150,362h13v19.5H150Z" transform="translate(-117.499 -283.565)" fill="#29376d"/>
        <path id="Trazado_190825" data-name="Trazado 190825" d="M65,236.434v13H0V210H32.5v6.5L26,223v6.5l6.5,6.933Z" transform="translate(0 -164.499)" fill="#fed843"/>
        <path id="Trazado_190826" data-name="Trazado 190826" d="M150,332h32.5v13H150Z" transform="translate(-117.499 -260.065)" fill="#fabe2c"/>
        <path id="Trazado_190827" data-name="Trazado 190827" d="M61.751,422h-52a9.75,9.75,0,1,0,0,19.5h52a9.75,9.75,0,1,0,0-19.5Z" transform="translate(0 -330.565)" fill="#61729b"/>
        <path id="Trazado_190828" data-name="Trazado 190828" d="M189,431.75a9.737,9.737,0,0,1-9.75,9.75H150V422h29.251A9.737,9.737,0,0,1,189,431.75Z" transform="translate(-117.499 -330.565)" fill="#47568c"/>
        <path id="Trazado_190829" data-name="Trazado 190829" d="M88.5,455.25a3.219,3.219,0,0,1-3.25,3.25h-52a3.25,3.25,0,1,1,0-6.5h52A3.218,3.218,0,0,1,88.5,455.25Z" transform="translate(-23.5 -354.065)" fill="#deecf1"/>
        <path id="Trazado_190830" data-name="Trazado 190830" d="M182.5,455.25a3.219,3.219,0,0,1-3.25,3.25H150V452h29.251A3.218,3.218,0,0,1,182.5,455.25Z" transform="translate(-117.499 -354.065)" fill="#c6e2e7"/>
        <path id="Trazado_190831" data-name="Trazado 190831" d="M60,240H79.5v19.934H60Z" transform="translate(-47 -187.999)" fill="#47568c"/>
      </g>
      <g id="saco" transform="translate(1215.014 1061.603)">
        <path id="Trazado_190832" data-name="Trazado 190832" d="M110.1,21.309a4.186,4.186,0,0,1-2.016-.519,4.419,4.419,0,0,1-1.551-1.433,3.34,3.34,0,0,0-2.784-1.517c-1.5,0-2.764.04-3.206,1.444a1.477,1.477,0,0,1-1.435,1.043h-.028a1.513,1.513,0,0,1-1.386-.992c-.8-2.181-2.873-3.745-6.222-3.236-2.412.366-4.414,2.041-4.414,4.559v.022a1.321,1.321,0,0,1-.72,1.191A5.559,5.559,0,0,0,83.324,26.9v.014l0,.031,32.222-.006A5.56,5.56,0,0,0,110.1,21.309Z" transform="translate(-80.594 -16.001)" fill="#afafaf"/>
        <path id="Trazado_190833" data-name="Trazado 190833" d="M61.913,131.145a2.559,2.559,0,0,1-1.794-2.468v-.546a2.537,2.537,0,0,1,2.319-2.565c.056,0,.113-.006.17-.006H95.82a1.448,1.448,0,0,1,1.423,1.328c0,.051.007.1.007.151a1.459,1.459,0,0,1-1.316,1.47l-33.326,2.74A2.356,2.356,0,0,1,61.913,131.145Z" transform="translate(-59.707 -114.62)" fill="#e1b7a3"/>
        <path id="Trazado_190834" data-name="Trazado 190834" d="M95.884,168.125a29.577,29.577,0,0,1-2.027,12.481,4.839,4.839,0,0,0,.372,4.371c.034.053.068.1.1.157a2.758,2.758,0,0,1,.47,1.564,2.247,2.247,0,0,1-2,2.429H58.843a2.247,2.247,0,0,1-2-2.429v-.049a2.777,2.777,0,0,1,.425-1.5,4.107,4.107,0,0,0,.509-1.275,6.774,6.774,0,0,0-.149-3.664,34.081,34.081,0,0,1,.573-22.486,2.354,2.354,0,0,0,.695.1l33.326-2.74c1,2.224,3.409,8.45,3.664,13.035Z" transform="translate(-55.993 -141.202)" fill="#c79a83"/>
        <path id="Trazado_190836" data-name="Trazado 190836" d="M86.319,26.891a5.559,5.559,0,0,1,3.012-5.031,1.321,1.321,0,0,0,.72-1.191v-.022a4.69,4.69,0,0,1,4.078-4.5,7.047,7.047,0,0,0-2.659-.061c-2.412.366-4.414,2.041-4.414,4.559v.022a1.321,1.321,0,0,1-.72,1.191,5.559,5.559,0,0,0-3.012,5.031V26.9l0,.031h3l0-.03Z" transform="translate(-80.594 -15.99)" fill="#636363"/>
        <path id="Trazado_190837" data-name="Trazado 190837" d="M63.114,128.677v-.546a2.537,2.537,0,0,1,2.319-2.565c.056,0,.113-.006.17-.006h-3c-.057,0-.114,0-.17.006a2.537,2.537,0,0,0-2.319,2.565v.546a2.559,2.559,0,0,0,1.794,2.468,2.356,2.356,0,0,0,.695.1l2.1-.173A2.568,2.568,0,0,1,63.114,128.677Z" transform="translate(-59.707 -114.62)" fill="#fcdcd0"/>
        <path id="Trazado_190838" data-name="Trazado 190838" d="M61.189,180.64l-2.3.189a2.356,2.356,0,0,1-.695-.1,34.081,34.081,0,0,0-.573,22.486,6.774,6.774,0,0,1,.149,3.664,4.107,4.107,0,0,1-.509,1.275,2.777,2.777,0,0,0-.425,1.5v.049a2.247,2.247,0,0,0,2,2.429h3a2.247,2.247,0,0,1-2-2.429v-.049a2.777,2.777,0,0,1,.425-1.5,4.107,4.107,0,0,0,.509-1.275,6.774,6.774,0,0,0-.149-3.664,34.3,34.3,0,0,1-1.592-12.088,34.842,34.842,0,0,1,2.16-10.484Z" transform="translate(-55.993 -164.201)" fill="#f7ccba"/>
      </g>
      <g id="bambu" transform="translate(1299.68 1109.529) rotate(-90)">
        <path id="Trazado_190839" data-name="Trazado 190839" d="M5.681,2.655c.045.076-.052.156-.148.124C4.293,2.356,2.64,2.6,1.84,2.469A3.078,3.078,0,0,1,0,1.607Q.194,1.033.391.488A.969.969,0,0,0,.436,0,.836.836,0,0,0,1,.634,2.126,2.126,0,0,0,3.2.063,6.576,6.576,0,0,1,5.681,2.655Z" transform="translate(15.011 31.234)" fill="#4ca987"/>
        <path id="Trazado_190840" data-name="Trazado 190840" d="M2.785,3.531a2.126,2.126,0,0,1-2.2.571.836.836,0,0,1-.567-.634.846.846,0,0,1,.008-.383,3.784,3.784,0,0,1,.318-.832l.006-.011c.009-.016.018-.032.026-.048C.949,1.157,2.248,0,5.195,0c.089,0,.108.124.031.19-1,.854-1.632,2.4-2.15,3.029A3.669,3.669,0,0,1,2.785,3.531Z" transform="translate(15.429 27.767)" fill="#5fcda4"/>
        <path id="Trazado_190841" data-name="Trazado 190841" d="M0,.179A.119.119,0,0,1,.071.067c.553-.245,3.64.079,5.95,2.761a.1.1,0,0,1,0,.134.165.165,0,0,1-.091.054C2.46,3.787.266.753.012.227A.1.1,0,0,1,0,.179Z" transform="translate(12.683 14.5)" fill="#739937"/>
        <path id="Trazado_190842" data-name="Trazado 190842" d="M9.518,2.783l0,0A59.452,59.452,0,0,0,7.895,8.668a57.3,57.3,0,0,0-1.171,6.3.96.96,0,0,1-.1.317l-.026.048-.006.011a.959.959,0,0,1-1.048.439L.734,14.609a.965.965,0,0,1-.676-1.267,56.323,56.323,0,0,0,1.9-6.4C2.433,4.911,3.272,1.768,3.5,0a.1.1,0,0,0,.012.048c.254.526,2.448,3.561,5.913,2.789A.165.165,0,0,0,9.518,2.783Z" transform="translate(9.181 14.679)" fill="#8dc63f"/>
        <path id="Trazado_190843" data-name="Trazado 190843" d="M0,.048.026,0C.018.017.009.033,0,.048Z" transform="translate(15.78 29.959)" fill="#d4e1f4"/>
        <path id="Trazado_190844" data-name="Trazado 190844" d="M1.048,0A3.786,3.786,0,0,0,.729.832a.845.845,0,0,0-.008.383A.959.959,0,0,0,0,.439.959.959,0,0,0,1.048,0Z" transform="translate(14.726 30.019)" fill="#d4e1f4"/>
        <path id="Trazado_190845" data-name="Trazado 190845" d="M.836,10.668c.4-1.278.783-2.647,1.123-4.1A56.567,56.567,0,0,0,2.988.842.96.96,0,0,1,4.166.027L8.977,1.2a.963.963,0,0,1,.676,1.264q-.2.546-.391,1.119C8.775,5.025,8.308,6.6,7.894,8.293a57.335,57.335,0,0,0-1.17,6.3.962.962,0,0,1-1.179.816l-3.232-.787h0L.733,14.235a.964.964,0,0,1-.675-1.266C.323,12.238.584,11.471.836,10.668Z" transform="translate(5.749 29.261)" fill="#739937"/>
        <path id="Trazado_190846" data-name="Trazado 190846" d="M8.059,14.64H.961a.962.962,0,0,1-.954-1.071A56.465,56.465,0,0,0,.35,6.9,56.364,56.364,0,0,0,.006,1.091.962.962,0,0,1,.961.021V0H5.91V.021a.962.962,0,0,1,.954,1.069,57.1,57.1,0,0,0-.341,6.084c0,1.007.015,2.58.061,3.516-.251.8-.513,1.571-.777,2.3a.964.964,0,0,0,.675,1.266Z" transform="translate(0 29.24)" fill="#8dc63f"/>
        <path id="Trazado_190847" data-name="Trazado 190847" d="M5.91,0a.962.962,0,0,1,.954,1.069,57.271,57.271,0,0,0,0,12.481.963.963,0,0,1-.954,1.07H.961a.963.963,0,0,1-.954-1.071A56.463,56.463,0,0,0,.35,6.876,56.367,56.367,0,0,0,.006,1.071.962.962,0,0,1,.961,0Z" transform="translate(0 0)" fill="#8dc63f"/>
        <path id="Trazado_190848" data-name="Trazado 190848" d="M5.91,0a.962.962,0,0,1,.954,1.069,57.271,57.271,0,0,0,0,12.481A.963.963,0,0,1,5.91,14.62H.961a.963.963,0,0,1-.954-1.072A56.463,56.463,0,0,0,.35,6.877C.338,5.212.252,3.644.119,2.185Q.067,1.617.006,1.071A.95.95,0,0,1,.1.538.746.746,0,0,0,.151.446.957.957,0,0,1,.961,0Z" transform="translate(0 14.619)" fill="#739937"/>
        <path id="Trazado_190849" data-name="Trazado 190849" d="M.088,1.036A.858.858,0,0,0,.145.458,3.643,3.643,0,0,0,0,.006L.013,0A.958.958,0,0,0,.9.59.958.958,0,0,0,.088,1.036Z" transform="translate(0.062 14.029)" fill="#d4e1f4"/>
        <path id="Trazado_190851" data-name="Trazado 190851" d="M0,.092A.9.9,0,0,1,.051,0,.746.746,0,0,1,0,.092Z" transform="translate(0.099 15.065)" fill="#d4e1f4"/>
        <path id="Trazado_190853" data-name="Trazado 190853" d="M2.8,13.569A56.465,56.465,0,0,0,3.143,6.9,56.368,56.368,0,0,0,2.8,1.091.962.962,0,0,1,3.754.021V0H.961V.021A.962.962,0,0,0,.006,1.091,56.364,56.364,0,0,1,.35,6.9a56.459,56.459,0,0,1-.344,6.672A.962.962,0,0,0,.961,14.64H3.754A.962.962,0,0,1,2.8,13.569Z" transform="translate(0 29.24)" fill="#78a03a"/>
        <path id="Trazado_190854" data-name="Trazado 190854" d="M2.868,14.029a.965.965,0,0,1-.069-.48,56.462,56.462,0,0,0,.344-6.672A56.351,56.351,0,0,0,2.8,1.071.962.962,0,0,1,3.754,0H.961A.962.962,0,0,0,.006,1.071,56.367,56.367,0,0,1,.35,6.876a56.459,56.459,0,0,1-.344,6.672.963.963,0,0,0,.954,1.071H3.754a.958.958,0,0,1-.885-.59Z" transform="translate(0 0)" fill="#78a03a"/>
        <path id="Trazado_190855" data-name="Trazado 190855" d="M2.8,13.549a56.456,56.456,0,0,0,.344-6.671c-.012-1.665-.1-3.233-.231-4.692Q2.861,1.617,2.8,1.071A.951.951,0,0,1,2.893.538.742.742,0,0,0,2.944.446.958.958,0,0,1,3.754,0H.961a.958.958,0,0,0-.81.446A.744.744,0,0,1,.1.538a.95.95,0,0,0-.093.533q.061.546.113,1.115C.252,3.644.338,5.212.35,6.877a56.456,56.456,0,0,1-.344,6.671A.963.963,0,0,0,.961,14.62H3.754A.963.963,0,0,1,2.8,13.549Z" transform="translate(0 14.619)" fill="#5e772d"/>
      </g>
    </g>
    <rect id="Rectángulo_33815" data-name="Rectángulo 33815" width="201" height="112" transform="translate(1172 985)" fill="none"/>
  </g>
</svg>
