<svg xmlns="http://www.w3.org/2000/svg" width="201" height="112" viewBox="0 0 201 112">
  <g id="Grupo_80161" data-name="Grupo 80161" transform="translate(-542 -985)">
    <g id="vitamina" transform="translate(580 962.997)">
      <path id="Trazado_190731" data-name="Trazado 190731" d="M328.2,121.929a.253.253,0,0,0-.253-.253h-1.663a1.053,1.053,0,0,1-1.052-1.052V116a1.053,1.053,0,0,1,1.052-1.053h2.639V61.615a1.309,1.309,0,0,0-1.3-1.306H290.311a1.309,1.309,0,0,0-1.3,1.306v43.76a5.027,5.027,0,0,1,4.677,5v38.192h33.937a1.286,1.286,0,0,0,.582-.144v-26.5Z" transform="translate(-215.795 -38.28)" fill="#e6e9ed"/>
      <path id="Trazado_190732" data-name="Trazado 190732" d="M328.2,229.512V210.377a.253.253,0,0,0-.253-.253h-1.663a1.053,1.053,0,0,1-1.052-1.052v-4.622a1.053,1.053,0,0,1,1.052-1.053h2.639V178.764H289.006v15.059a5.027,5.027,0,0,1,4.677,5v30.687H328.2Z" transform="translate(-215.795 -126.728)" fill="#48c1e1"/>
      <rect id="Rectángulo_33799" data-name="Rectángulo 33799" width="34.517" height="3.8" transform="translate(77.888 100.885)" fill="#a2dff9"/>
      <path id="Trazado_190733" data-name="Trazado 190733" d="M297.347,147.263V61.615a1.309,1.309,0,0,1,1.3-1.306h-8.341a1.309,1.309,0,0,0-1.3,1.306v43.76a5.027,5.027,0,0,1,4.677,5v38.192h4.969A1.309,1.309,0,0,1,297.347,147.263Z" transform="translate(-215.795 -38.28)" opacity="0.1"/>
      <path id="Trazado_190734" data-name="Trazado 190734" d="M369.349,290.768a7.853,7.853,0,1,1-7.853-7.837A7.845,7.845,0,0,1,369.349,290.768Z" transform="translate(-264.058 -204.508)" fill="#f7931e"/>
      <path id="Trazado_190735" data-name="Trazado 190735" d="M346.44,267.279a1.9,1.9,0,1,1,1.343-.555A1.922,1.922,0,0,1,346.44,267.279Z" transform="translate(-257.261 -189.983)" fill="#fff"/>
      <g id="Grupo_80126" data-name="Grupo 80126" transform="translate(81.148 67.961)">
        <path id="Trazado_190736" data-name="Trazado 190736" d="M322.24,245.43a1.9,1.9,0,1,1,1.343-.555A1.911,1.911,0,0,1,322.24,245.43Z" transform="translate(-320.34 -241.63)" fill="#a2dff9"/>
        <path id="Trazado_190737" data-name="Trazado 190737" d="M382.16,254.63a1.9,1.9,0,1,1,1.343-.555A1.92,1.92,0,0,1,382.16,254.63Z" transform="translate(-365.081 -248.499)" fill="#a2dff9"/>
      </g>
      <g id="Grupo_80127" data-name="Grupo 80127" transform="translate(81.148 59.224)">
        <path id="Trazado_190738" data-name="Trazado 190738" d="M352.2,238.529a1.9,1.9,0,1,1,1.343-.557A1.908,1.908,0,0,1,352.2,238.529Z" transform="translate(-342.711 -227.74)" fill="#fff"/>
        <path id="Trazado_190739" data-name="Trazado 190739" d="M322.24,210.939a1.9,1.9,0,1,1,1.343-.557A1.917,1.917,0,0,1,322.24,210.939Z" transform="translate(-320.34 -207.139)" fill="#fff"/>
      </g>
      <rect id="Rectángulo_33800" data-name="Rectángulo 33800" width="30.188" height="8.613" transform="translate(32.045 58.682)" fill="#775436"/>
      <rect id="Rectángulo_33801" data-name="Rectángulo 33801" width="8.095" height="8.613" transform="translate(32.045 58.682)" opacity="0.1"/>
      <path id="Trazado_190740" data-name="Trazado 190740" d="M109.847,171.084a1.309,1.309,0,0,0,1.3,1.306h36.02a1.309,1.309,0,0,0,1.3-1.306v-8.966a1.309,1.309,0,0,0-1.3-1.306h-36.02a1.309,1.309,0,0,0-1.3,1.306Z" transform="translate(-82.021 -113.324)" fill="#368c0e"/>
      <path id="Trazado_190741" data-name="Trazado 190741" d="M118.157,171.084v-8.966a1.309,1.309,0,0,1,1.3-1.306h-8.311a1.309,1.309,0,0,0-1.3,1.306v8.966a1.309,1.309,0,0,0,1.3,1.306h8.311A1.309,1.309,0,0,1,118.157,171.084Z" transform="translate(-82.02 -113.324)" opacity="0.1"/>
      <path id="Trazado_190742" data-name="Trazado 190742" d="M120.43,237.14H69a5.294,5.294,0,0,0-5.284,5.273v14.264H80.718a1.053,1.053,0,0,1,1.052,1.053v8.377a.253.253,0,0,0,.253.253H86.1a2.36,2.36,0,0,1,2.356,2.359V296.9H120.43a5.294,5.294,0,0,0,5.284-5.273V242.413A5.294,5.294,0,0,0,120.43,237.14Z" transform="translate(-47.573 -170.316)" fill="#c6a07d"/>
      <path id="Trazado_190743" data-name="Trazado 190743" d="M71.821,256.677V242.413A5.294,5.294,0,0,1,77.1,237.14H69a5.294,5.294,0,0,0-5.284,5.273v14.264Z" transform="translate(-47.573 -170.316)" opacity="0.1"/>
      <path id="Trazado_190744" data-name="Trazado 190744" d="M161.4,445.3v7.031H193.37a5.294,5.294,0,0,0,5.284-5.273V445.3H161.4Z" transform="translate(-120.514 -325.749)" fill="#775436"/>
      <path id="Trazado_190745" data-name="Trazado 190745" d="M201.61,282.935H227.89v29.53H201.61a1.059,1.059,0,0,1-1.057-1.054V283.99A1.059,1.059,0,0,1,201.61,282.935Z" transform="translate(-149.749 -204.511)" fill="#fff"/>
      <path id="Trazado_190746" data-name="Trazado 190746" d="M205.988,311.411V283.99a1.059,1.059,0,0,1,1.057-1.055h-5.434a1.059,1.059,0,0,0-1.057,1.055v27.421a1.059,1.059,0,0,0,1.057,1.054h5.434A1.059,1.059,0,0,1,205.988,311.411Z" transform="translate(-149.75 -204.511)" opacity="0.1"/>
      <g id="Grupo_80128" data-name="Grupo 80128" transform="translate(58.769 87.774)">
        <path id="Trazado_190747" data-name="Trazado 190747" d="M242.348,323.643h-8.454a1.9,1.9,0,1,1,0-3.8h8.454a1.9,1.9,0,1,1,0,3.8Z" transform="translate(-231.994 -319.843)" fill="#368c0e"/>
        <path id="Trazado_190748" data-name="Trazado 190748" d="M242.348,352.786h-8.454a1.9,1.9,0,1,1,0-3.8h8.454a1.9,1.9,0,1,1,0,3.8Z" transform="translate(-231.994 -341.604)" fill="#368c0e"/>
      </g>
      <path id="Trazado_190749" data-name="Trazado 190749" d="M54.167,323.331v-8.759a1.309,1.309,0,0,0-1.3-1.306H27.711a1.309,1.309,0,0,0-1.3,1.306v8.759Z" transform="translate(-19.717 -227.158)" fill="#f7931e"/>
      <path id="Trazado_190750" data-name="Trazado 190750" d="M34.624,323.331v-8.759a1.309,1.309,0,0,1,1.3-1.306H27.711a1.309,1.309,0,0,0-1.3,1.306v8.759Z" transform="translate(-19.717 -227.158)" opacity="0.1"/>
      <g id="Grupo_80129" data-name="Grupo 80129" transform="translate(0 95.791)">
        <path id="Trazado_190751" data-name="Trazado 190751" d="M0,468.388A2.618,2.618,0,0,0,2.61,471h35.92a2.618,2.618,0,0,0,2.61-2.612v-8.019H0Z" transform="translate(0 -432.788)" fill="#046699"/>
        <path id="Trazado_190752" data-name="Trazado 190752" d="M38.529,351.49H2.61A2.618,2.618,0,0,0,0,354.1v6.689H41.139V354.1A2.618,2.618,0,0,0,38.529,351.49Z" transform="translate(0 -351.49)" fill="#046699"/>
      </g>
      <rect id="Rectángulo_33802" data-name="Rectángulo 33802" width="41.139" height="18.28" transform="translate(0 105.092)" fill="#ffc502"/>
      <rect id="Rectángulo_33803" data-name="Rectángulo 33803" width="11.591" height="18.28" transform="translate(0 105.092)" fill="#e6e9ed"/>
      <path id="Trazado_190753" data-name="Trazado 190753" d="M6.08,387.09V354.1a2.618,2.618,0,0,1,2.61-2.612H2.61A2.618,2.618,0,0,0,0,354.1V387.09A2.618,2.618,0,0,0,2.61,389.7h6.08A2.619,2.619,0,0,1,6.08,387.09Z" transform="translate(0 -255.699)" opacity="0.1"/>
      <path id="Trazado_190754" data-name="Trazado 190754" d="M442.732,302.555v49.3a1.309,1.309,0,0,0,1.3,1.306h11.97a1.309,1.309,0,0,0,1.3-1.306v-49.3Z" transform="translate(-330.579 -219.161)" fill="#f7931e"/>
      <path id="Trazado_190755" data-name="Trazado 190755" d="M442.732,375.05,457.311,360.5V347.078l-14.579,14.548Z" transform="translate(-330.579 -252.405)" fill="#ffc502"/>
      <path id="Trazado_190756" data-name="Trazado 190756" d="M448.179,351.857v-49.3h-5.447v49.3a1.309,1.309,0,0,0,1.3,1.306h5.447A1.309,1.309,0,0,1,448.179,351.857Z" transform="translate(-330.579 -219.161)" opacity="0.1"/>
      <path id="Trazado_190757" data-name="Trazado 190757" d="M451.532,280.93a1.309,1.309,0,0,1-1.3,1.306h-17.9a1.309,1.309,0,0,1-1.3-1.306v-4.622a1.309,1.309,0,0,1,1.3-1.306h17.9a1.309,1.309,0,0,1,1.3,1.306Z" transform="translate(-321.833 -198.587)" fill="#c5ccd3"/>
      <path id="Trazado_190758" data-name="Trazado 190758" d="M436.368,280.93v-4.622a1.309,1.309,0,0,1,1.3-1.306h-5.35a1.309,1.309,0,0,0-1.3,1.306v4.622a1.309,1.309,0,0,0,1.3,1.306h5.35A1.309,1.309,0,0,1,436.368,280.93Z" transform="translate(-321.833 -198.587)" opacity="0.1"/>
      <g id="Grupo_80130" data-name="Grupo 80130" transform="translate(68.794 96.705)">
        <path id="Trazado_190759" data-name="Trazado 190759" d="M209.526,106.553a3.883,3.883,0,0,1-3.881,3.884H198.4a3.882,3.882,0,0,1-3.881-3.884h0a3.882,3.882,0,0,1,3.881-3.883h7.244a3.882,3.882,0,0,1,3.881,3.883Z" transform="translate(-183.162 -79.11)" fill="#fcdb67"/>
        <path id="Trazado_190760" data-name="Trazado 190760" d="M161.43,50.765a3.886,3.886,0,0,1,0,5.492l-5.123,5.126a3.879,3.879,0,0,1-5.488,0h0a3.885,3.885,0,0,1,0-5.492l5.123-5.126a3.879,3.879,0,0,1,5.488,0Z" transform="translate(-149.682 -39.504)" fill="#fcdb67"/>
        <path id="Trazado_190761" data-name="Trazado 190761" d="M221.589,21.42a3.879,3.879,0,0,1-5.488,0l-5.123-5.126a3.885,3.885,0,0,1,0-5.492h0a3.88,3.88,0,0,1,5.489,0l5.123,5.126a3.886,3.886,0,0,1,0,5.492Z" transform="translate(-194.601 -9.664)" fill="#fcdb67"/>
      </g>
    </g>
    <rect id="Rectángulo_33817" data-name="Rectángulo 33817" width="201" height="112" transform="translate(542 985)" fill="none"/>
  </g>
</svg>
