<svg xmlns="http://www.w3.org/2000/svg" xmlns:xlink="http://www.w3.org/1999/xlink" width="1240" height="234" viewBox="0 0 1240 234">
  <defs>
    <linearGradient id="linear-gradient" x1="0.5" x2="0.5" y2="1" gradientUnits="objectBoundingBox">
      <stop offset="0" stop-color="#fff"/>
      <stop offset="1" stop-color="#f7faf1"/>
    </linearGradient>
    <clipPath id="clip-path">
      <rect id="Rectángulo_33837" data-name="Rectángulo 33837" width="106.55" height="121.444" fill="none"/>
    </clipPath>
    <clipPath id="clip-path-2">
      <rect id="Rectángulo_41306" data-name="Rectángulo 41306" width="106.55" height="121.444" fill="#ffc846"/>
    </clipPath>
    <clipPath id="clip-path-4">
      <rect id="Rectángulo_41314" data-name="Rectángulo 41314" width="106.55" height="121.444" fill="#749787"/>
    </clipPath>
    <clipPath id="clip-path-7">
      <rect id="Rectángulo_41671" data-name="Rectángulo 41671" width="983.931" height="15.492" transform="translate(0 0)" fill="none"/>
    </clipPath>
  </defs>
  <g id="Grupo_149343" data-name="Grupo 149343" transform="translate(-180 -2889)">
    <rect id="Rectángulo_41305" data-name="Rectángulo 41305" width="1240" height="169.917" rx="22" transform="translate(180 2889)" fill="url(#linear-gradient)"/>
    <g id="Grupo_80170" data-name="Grupo 80170" transform="translate(301 2916)" clip-path="url(#clip-path)">
      <path id="Trazado_190867" data-name="Trazado 190867" d="M106.55,53.274A53.275,53.275,0,1,0,41.107,105.1l12.169,16.346L65.445,105.1a53.259,53.259,0,0,0,41.1-51.825" transform="translate(0 0)" fill="#869d69"/>
      <path id="Trazado_190868" data-name="Trazado 190868" d="M89.821,47.035A42.785,42.785,0,1,1,47.038,4.252,42.784,42.784,0,0,1,89.821,47.035" transform="translate(6.238 6.238)" fill="#dbdbdb"/>
      <path id="Trazado_190869" data-name="Trazado 190869" d="M87.4,47.854A39.541,39.541,0,1,1,47.857,8.315,39.54,39.54,0,0,1,87.4,47.854" transform="translate(5.419 5.419)" fill="#fff"/>
    </g>
    <g id="Grupo_149302" data-name="Grupo 149302" transform="translate(478.5 2916)" clip-path="url(#clip-path-2)">
      <path id="Trazado_197566" data-name="Trazado 197566" d="M106.55,53.274A53.275,53.275,0,1,0,41.107,105.1l12.169,16.346L65.445,105.1a53.259,53.259,0,0,0,41.1-51.825" transform="translate(0 0)" fill="#ffc846"/>
      <path id="Trazado_197567" data-name="Trazado 197567" d="M89.821,47.035A42.785,42.785,0,1,1,47.038,4.252,42.784,42.784,0,0,1,89.821,47.035" transform="translate(6.238 6.238)" fill="#dbdbdb"/>
      <path id="Trazado_197568" data-name="Trazado 197568" d="M87.4,47.854A39.541,39.541,0,1,1,47.857,8.315,39.54,39.54,0,0,1,87.4,47.854" transform="translate(5.419 5.419)" fill="#fff"/>
    </g>
    <g id="Grupo_149303" data-name="Grupo 149303" transform="translate(658 2916)" clip-path="url(#clip-path)">
      <path id="Trazado_197569" data-name="Trazado 197569" d="M106.55,53.274A53.275,53.275,0,1,0,41.107,105.1l12.169,16.346L65.445,105.1a53.259,53.259,0,0,0,41.1-51.825" transform="translate(0 0)" fill="#afafaf"/>
      <path id="Trazado_197570" data-name="Trazado 197570" d="M89.821,47.035A42.785,42.785,0,1,1,47.038,4.252,42.784,42.784,0,0,1,89.821,47.035" transform="translate(6.238 6.238)" fill="#dbdbdb"/>
      <path id="Trazado_197571" data-name="Trazado 197571" d="M87.4,47.854A39.541,39.541,0,1,1,47.857,8.315,39.54,39.54,0,0,1,87.4,47.854" transform="translate(5.419 5.419)" fill="#fff"/>
    </g>
    <g id="Grupo_149304" data-name="Grupo 149304" transform="translate(836 2916)" clip-path="url(#clip-path-4)">
      <path id="Trazado_197572" data-name="Trazado 197572" d="M106.55,53.274A53.275,53.275,0,1,0,41.107,105.1l12.169,16.346L65.445,105.1a53.259,53.259,0,0,0,41.1-51.825" transform="translate(0 0)" fill="#749787"/>
      <path id="Trazado_197573" data-name="Trazado 197573" d="M89.821,47.035A42.785,42.785,0,1,1,47.038,4.252,42.784,42.784,0,0,1,89.821,47.035" transform="translate(6.238 6.238)" fill="#dbdbdb"/>
      <path id="Trazado_197574" data-name="Trazado 197574" d="M87.4,47.854A39.541,39.541,0,1,1,47.857,8.315,39.54,39.54,0,0,1,87.4,47.854" transform="translate(5.419 5.419)" fill="#fff"/>
    </g>
    <g id="Grupo_149305" data-name="Grupo 149305" transform="translate(1014 2916)" clip-path="url(#clip-path)">
      <path id="Trazado_197575" data-name="Trazado 197575" d="M106.55,53.274A53.275,53.275,0,1,0,41.107,105.1l12.169,16.346L65.445,105.1a53.259,53.259,0,0,0,41.1-51.825" transform="translate(0 0)" fill="#d8c393"/>
      <path id="Trazado_197576" data-name="Trazado 197576" d="M89.821,47.035A42.785,42.785,0,1,1,47.038,4.252,42.784,42.784,0,0,1,89.821,47.035" transform="translate(6.238 6.238)" fill="#dbdbdb"/>
      <path id="Trazado_197577" data-name="Trazado 197577" d="M87.4,47.854A39.541,39.541,0,1,1,47.857,8.315,39.54,39.54,0,0,1,87.4,47.854" transform="translate(5.419 5.419)" fill="#fff"/>
    </g>
    <g id="Grupo_149306" data-name="Grupo 149306" transform="translate(1191.751 2916)" clip-path="url(#clip-path)">
      <path id="Trazado_197578" data-name="Trazado 197578" d="M106.55,53.274A53.275,53.275,0,1,0,41.107,105.1l12.169,16.346L65.445,105.1a53.259,53.259,0,0,0,41.1-51.825" transform="translate(0 0)" fill="#9599b3"/>
      <path id="Trazado_197579" data-name="Trazado 197579" d="M89.821,47.035A42.785,42.785,0,1,1,47.038,4.252,42.784,42.784,0,0,1,89.821,47.035" transform="translate(6.238 6.238)" fill="#dbdbdb"/>
      <path id="Trazado_197580" data-name="Trazado 197580" d="M87.4,47.854A39.541,39.541,0,1,1,47.857,8.315,39.54,39.54,0,0,1,87.4,47.854" transform="translate(5.419 5.419)" fill="#fff"/>
    </g>
    <path id="Trazado_190874" data-name="Trazado 190874" d="M-7024-9268.083h1070" transform="translate(7289 12327)" fill="none" stroke="#942e19" stroke-linecap="round" stroke-width="2" stroke-dasharray="8"/>
    <circle id="Elipse_4711" data-name="Elipse 4711" cx="11" cy="11" r="11" transform="translate(343 3049)" fill="#869d69"/>
    <circle id="Elipse_4770" data-name="Elipse 4770" cx="11" cy="11" r="11" transform="translate(521.5 3049)" fill="#ffc846"/>
    <circle id="Elipse_4771" data-name="Elipse 4771" cx="11" cy="11" r="11" transform="translate(700 3049)" fill="#afafaf"/>
    <circle id="Elipse_4772" data-name="Elipse 4772" cx="11" cy="11" r="11" transform="translate(878 3049)" fill="#749787"/>
    <circle id="Elipse_4773" data-name="Elipse 4773" cx="11" cy="11" r="11" transform="translate(1056 3049)" fill="#d8c393"/>
    <circle id="Elipse_4774" data-name="Elipse 4774" cx="11" cy="11" r="11" transform="translate(1234.751 3049)" fill="#9599b3"/>
    <g id="caucho" transform="translate(275.148 2927.793)">
      <path id="Trazado_197581" data-name="Trazado 197581" d="M63.356,34.974c2.226-5.167,2.015-10.9,0-17.039,0,0-2.719-1.616-2.719-3.815V11.24a.927.927,0,0,1,.986-.854H72.848a1.222,1.222,0,0,0,1.5,0h7.834a1.591,1.591,0,0,0,1.5,0h3.444a.927.927,0,0,1,.986.854V66.364l6.189,3.565H74.877a1.573,1.573,0,0,0-1.5,0H62.689a1.929,1.929,0,0,1-2.052-1.776V38.626s1.032-3.036,2.719-3.652Z" transform="translate(-1.942 0)" fill="#e7ab94"/>
      <path id="Trazado_197582" data-name="Trazado 197582" d="M88.86,197.219a.707.707,0,0,1-.752-.651V179.317a.76.76,0,0,1,1.5,0v17.251A.707.707,0,0,1,88.86,197.219Z" transform="translate(-23.494 -136.892)" fill="#bc735f"/>
      <path id="Trazado_197583" data-name="Trazado 197583" d="M116.584,208.316l-9.517-5.27-8.2-1.755,6.465,4.2a5.942,5.942,0,0,1,2.841,4.786l.146,5.656a10.784,10.784,0,0,0,6.313,9.23l.129.064H124.3l-6.189-3.564V209.579Z" transform="translate(-31.935 -155.298)" fill="#bc735f"/>
      <path id="Trazado_197584" data-name="Trazado 197584" d="M151.354,251.613a16.191,16.191,0,0,0,2.305,9.305,11.991,11.991,0,0,0,5.9,4.191,18.5,18.5,0,0,0,5.9.931h1.179A12.519,12.519,0,0,0,177.749,260a15.453,15.453,0,0,0,1.648-8.54Z" transform="translate(-73.09 -196.112)" fill="#473f43"/>
      <path id="Trazado_197585" data-name="Trazado 197585" d="M178.363,222.218c-5.156-4-13.157-3.68-13.157-3.68s-7.752-.356-13.007,4.336a2.3,2.3,0,0,0-.795,1.791,2.347,2.347,0,0,0,.923,1.744c1.974,1.522,5.862,3.456,12.879,3.456s10.873-1.329,12.938-2.749A3.1,3.1,0,0,0,178.363,222.218Z" transform="translate(-73.151 -169.323)" fill="#9b9799"/>
      <path id="Trazado_197586" data-name="Trazado 197586" d="M184.705,234.64s1.9-1.211,6.651-1.211a22.518,22.518,0,0,1,9.49,1.725,1.16,1.16,0,0,1-.032,2.186,17.1,17.1,0,0,1-1.763.639S187.564,238.433,184.705,234.64Z" transform="translate(-99.279 -181.441)" fill="#473f43"/>
      <path id="Trazado_197587" data-name="Trazado 197587" d="M88.525,81.707A139.166,139.166,0,0,0,87.4,65.353a10.972,10.972,0,0,0-5.819-8.179L70.186,50.86v7.821a2.763,2.763,0,0,1,0,1.908v3.838a3.345,3.345,0,0,1,0,1.8V67.9l-.844,2.347C70.9,75.333,88.525,81.707,88.525,81.707Z" transform="translate(-8.771 -32.925)" fill="#af705f"/>
      <path id="Trazado_197588" data-name="Trazado 197588" d="M131.64,88.7a14.521,14.521,0,0,1,2.9,7.922c.328,4.33.629,10.97.8,15.079,1.265.5,2.061.788,2.061.788a139.125,139.125,0,0,0-1.126-16.354A10.72,10.72,0,0,0,131.64,88.7Z" transform="translate(-57.647 -63.707)" fill="#7f473e"/>
      <path id="Trazado_197589" data-name="Trazado 197589" d="M61.415,142.209a5.866,5.866,0,0,0,2.17,5.006c2.715,1.949,9.964,5.394,16.719,8.605a55.427,55.427,0,0,1,8.51,5.115,4.078,4.078,0,0,0,2.476.738c2.179-.059,6.324.014,8.481,2.1a29.2,29.2,0,0,1-10.44.885s-4.742-.3-5.928-2.42a5.107,5.107,0,0,0-1.984-2c-1.9-1.054-5.128-2.78-8.386-4.24-4.685-2.1-14.464-6.051-14.845-9.975a3.147,3.147,0,0,1,3.224-3.816Z" transform="translate(0 -107.235)" fill="#e9eff4"/>
      <g id="Grupo_149308" data-name="Grupo 149308" transform="translate(70.907 10.386)">
        <path id="Trazado_197590" data-name="Trazado 197590" d="M118.067,19.437a.707.707,0,0,0,.752-.651v-8.4h-1.5v8.4A.707.707,0,0,0,118.067,19.437Z" transform="translate(-117.315 -10.386)" fill="#bc735f"/>
        <path id="Trazado_197591" data-name="Trazado 197591" d="M161.412,23.352a.707.707,0,0,0,.752-.651V10.386h-1.5V22.7a.707.707,0,0,0,.752.651Z" transform="translate(-151.321 -10.386)" fill="#bc735f"/>
        <path id="Trazado_197592" data-name="Trazado 197592" d="M121.252,261.1a.76.76,0,0,0-1.5,0v12.249h1.5Z" transform="translate(-119.223 -213.808)" fill="#bc735f"/>
      </g>
      <path id="Trazado_197593" data-name="Trazado 197593" d="M99.548,91.1a.815.815,0,0,1-.525-.185,15.588,15.588,0,0,0-4.205-2.473,36.125,36.125,0,0,1-8.563-5.167.591.591,0,0,1-.016-.921.837.837,0,0,1,1.064-.014,35.241,35.241,0,0,0,8.155,4.922,17.118,17.118,0,0,1,4.616,2.719.59.59,0,0,1,.171.712A.761.761,0,0,1,99.548,91.1Z" transform="translate(-21.861 -58.383)" fill="#7f473e"/>
      <path id="Trazado_197594" data-name="Trazado 197594" d="M85.211,102.239a.74.74,0,0,0,.732-.5.626.626,0,0,0-.388-.733,44.976,44.976,0,0,1-12.3-8.219V94.7a46.525,46.525,0,0,0,11.613,7.47A.845.845,0,0,0,85.211,102.239Z" transform="translate(-11.84 -67.033)" fill="#7f473e"/>
      <path id="Trazado_197595" data-name="Trazado 197595" d="M83.27,129.688a36.253,36.253,0,0,1-10.012-6.095v1.8a36.53,36.53,0,0,0,9.408,5.485,25.411,25.411,0,0,1,6.9,3.824.837.837,0,0,0,1.063-.035.592.592,0,0,0-.04-.921A26.945,26.945,0,0,0,83.27,129.688Z" transform="translate(-11.843 -92.091)" fill="#7f473e"/>
      <ellipse id="Elipse_4775" data-name="Elipse 4775" cx="0.766" cy="0.663" rx="0.766" ry="0.663" transform="translate(80.232 25.705)" fill="#bc735f"/>
      <ellipse id="Elipse_4776" data-name="Elipse 4776" cx="0.766" cy="0.663" rx="0.766" ry="0.663" transform="translate(64.601 62.37)" fill="#bc735f"/>
    </g>
    <g id="nuez_1_" data-name="nuez (1)" transform="translate(502.758 2936.555)">
      <g id="Grupo_149310" data-name="Grupo 149310" transform="translate(0 4.446)">
        <g id="Grupo_149309" data-name="Grupo 149309" transform="translate(0 0)">
          <path id="Trazado_197596" data-name="Trazado 197596" d="M35.021,27.091c0-8.293-4.658-15.375-11.222-18.186A6.182,6.182,0,0,1,20.971,6.4a4.045,4.045,0,0,0-6.92,0,6.181,6.181,0,0,1-2.828,2.51C4.658,11.716,0,18.8,0,27.091c0,8.273,4.636,15.341,11.175,18.165a6.168,6.168,0,0,1,2.849,2.563,4.045,4.045,0,0,0,6.974,0,6.168,6.168,0,0,1,2.849-2.563C30.385,42.432,35.021,35.364,35.021,27.091Z" transform="translate(0 -4.446)" fill="#ab7b64"/>
        </g>
      </g>
      <g id="Grupo_149312" data-name="Grupo 149312" transform="translate(15.758 4.446)">
        <g id="Grupo_149311" data-name="Grupo 149311" transform="translate(0 0)">
          <path id="Trazado_197597" data-name="Trazado 197597" d="M142.507,8.905a6.182,6.182,0,0,1-2.828-2.51,4.045,4.045,0,0,0-5.213-1.55,4.061,4.061,0,0,1,1.707,1.55A6.181,6.181,0,0,0,139,8.905c6.564,2.811,11.222,9.893,11.222,18.186,0,8.273-4.636,15.341-11.175,18.165A6.168,6.168,0,0,0,136.2,47.82a4.061,4.061,0,0,1-1.734,1.594,4.043,4.043,0,0,0,5.24-1.594,6.169,6.169,0,0,1,2.849-2.563c6.539-2.824,11.175-9.892,11.175-18.165,0-8.293-4.658-15.375-11.222-18.186Z" transform="translate(-134.466 -4.446)" fill="#9a6a53"/>
        </g>
      </g>
      <g id="Grupo_149314" data-name="Grupo 149314" transform="translate(17.638 32.204)">
        <g id="Grupo_149313" data-name="Grupo 149313">
          <path id="Trazado_197598" data-name="Trazado 197598" d="M156.3,248.083a.883.883,0,0,1-.116-.008,4.275,4.275,0,0,1-2.894-1.735l-2.616-3.637a.879.879,0,0,1,1.427-1.026l2.616,3.637a2.51,2.51,0,0,0,1.64,1.01l.612-.009a.879.879,0,0,1,.026,1.758l-.682.01Z" transform="translate(-150.508 -241.312)" fill="#9a6a53"/>
        </g>
      </g>
      <g id="Grupo_149316" data-name="Grupo 149316" transform="translate(24.524 18.502)">
        <g id="Grupo_149315" data-name="Grupo 149315">
          <path id="Trazado_197599" data-name="Trazado 197599" d="M212.671,134.7a.878.878,0,0,1-.762-.44l-2.107-3.649a4.019,4.019,0,0,1-.446-2.835l.569-2.683a.879.879,0,0,1,1.72.365l-.569,2.683a2.26,2.26,0,0,0,.25,1.594l2.105,3.647a.879.879,0,0,1-.76,1.318Z" transform="translate(-209.269 -124.392)" fill="#9a6a53"/>
        </g>
      </g>
      <g id="Grupo_149317" data-name="Grupo 149317" transform="translate(2.239 8.883)">
        <path id="Trazado_197600" data-name="Trazado 197600" d="M169.437,42.332l-.049-.022L166.843,44.6a5.662,5.662,0,0,0-1.867,4.06l0,.21a.879.879,0,0,0,.858.9h.021a.879.879,0,0,0,.878-.858l0-.21a3.9,3.9,0,0,1,1.285-2.794l3.065-2.757A16.585,16.585,0,0,0,169.437,42.332Z" transform="translate(-147.877 -42.31)" fill="#9a6a53"/>
        <path id="Trazado_197601" data-name="Trazado 197601" d="M35.28,98.787l-4.187-1.279a4.855,4.855,0,0,1-2.922-2.479l-.008-.015-1.946-3.745A19.518,19.518,0,0,0,25.1,92.93l1.5,2.887a6.621,6.621,0,0,0,3.98,3.372l4.187,1.279a.879.879,0,1,0,.513-1.681Z" transform="translate(-24.398 -85.532)" fill="#9a6a53"/>
        <path id="Trazado_197602" data-name="Trazado 197602" d="M26.12,275.772l-4-.654a5.263,5.263,0,0,0-3.01.4q.4.793.866,1.539a3.5,3.5,0,0,1,1.861-.207l4,.654a.879.879,0,0,0,.283-1.735Z" transform="translate(-19.107 -247.777)" fill="#9a6a53"/>
      </g>
      <g id="Grupo_149319" data-name="Grupo 149319" transform="translate(23.221 16.278)">
        <g id="Grupo_149318" data-name="Grupo 149318" transform="translate(0 0)">
          <path id="Trazado_197603" data-name="Trazado 197603" d="M233.172,128.059c0-8.293-4.658-15.375-11.222-18.186a6.182,6.182,0,0,1-2.828-2.51,4.045,4.045,0,0,0-6.92,0,6.181,6.181,0,0,1-2.828,2.51c-6.564,2.811-11.223,9.893-11.223,18.186,0,8.273,4.636,15.341,11.175,18.165a6.167,6.167,0,0,1,2.849,2.563,4.045,4.045,0,0,0,6.974,0A6.167,6.167,0,0,1,222,146.224C228.536,143.4,233.172,136.332,233.172,128.059Z" transform="translate(-198.15 -105.414)" fill="#c39f8e"/>
        </g>
      </g>
      <g id="Grupo_149321" data-name="Grupo 149321" transform="translate(27.036 23.687)">
        <g id="Grupo_149320" data-name="Grupo 149320">
          <ellipse id="Elipse_4777" data-name="Elipse 4777" cx="13.696" cy="15.236" rx="13.696" ry="15.236" fill="#ab7b64"/>
        </g>
      </g>
      <g id="Grupo_149323" data-name="Grupo 149323" transform="translate(38.979 23.687)">
        <g id="Grupo_149322" data-name="Grupo 149322">
          <path id="Trazado_197604" data-name="Trazado 197604" d="M334.371,168.636a12.453,12.453,0,0,0-1.753.124c6.736.957,11.943,7.358,11.943,15.113s-5.207,14.155-11.943,15.113a12.453,12.453,0,0,0,1.753.124c7.564,0,13.7-6.822,13.7-15.236s-6.132-15.236-13.7-15.236Z" transform="translate(-332.618 -168.636)" fill="#9a6a53"/>
        </g>
      </g>
      <g id="Grupo_149325" data-name="Grupo 149325" transform="translate(31.748 30.053)">
        <g id="Grupo_149324" data-name="Grupo 149324" transform="translate(0 0)">
          <path id="Trazado_197605" data-name="Trazado 197605" d="M283.127,234.3a3.187,3.187,0,0,0-1.37-2.62,3.321,3.321,0,0,0-.989-5.37c0-.054,0-.109,0-.164a3.191,3.191,0,0,0-6.38-.12,3.321,3.321,0,0,0-2.109,5.655,3.191,3.191,0,0,0,1.63,5.805,3.191,3.191,0,0,0,6.331-.01A3.191,3.191,0,0,0,283.127,234.3Z" transform="translate(-270.914 -222.958)" fill="#f7e5c1"/>
        </g>
      </g>
      <g id="Grupo_149327" data-name="Grupo 149327" transform="translate(37.781 30.053)">
        <g id="Grupo_149326" data-name="Grupo 149326" transform="translate(0 0)">
          <path id="Trazado_197606" data-name="Trazado 197606" d="M325.28,237.479a3.191,3.191,0,0,0,6.331.01,3.191,3.191,0,0,0,1.63-5.805,3.321,3.321,0,0,0-2.109-5.655,3.191,3.191,0,0,0-6.38.12c0,.055,0,.11,0,.164a3.321,3.321,0,0,0-.989,5.37,3.19,3.19,0,0,0,1.512,5.8Z" transform="translate(-322.398 -222.958)" fill="#edc472"/>
        </g>
      </g>
      <g id="Grupo_149329" data-name="Grupo 149329" transform="translate(37.781 30.053)">
        <g id="Grupo_149328" data-name="Grupo 149328" transform="translate(0 0)">
          <path id="Trazado_197607" data-name="Trazado 197607" d="M325.28,237.479a3.191,3.191,0,0,0,6.331.01,3.191,3.191,0,0,0,1.63-5.805,3.321,3.321,0,0,0-2.109-5.655,3.191,3.191,0,0,0-6.38.12c0,.055,0,.11,0,.164a3.321,3.321,0,0,0-.989,5.37,3.19,3.19,0,0,0,1.512,5.8Z" transform="translate(-322.398 -222.958)" fill="#f3d69e"/>
        </g>
      </g>
      <g id="Grupo_149331" data-name="Grupo 149331" transform="translate(41.575 30.053)">
        <g id="Grupo_149330" data-name="Grupo 149330" transform="translate(0 0)">
          <path id="Trazado_197608" data-name="Trazado 197608" d="M361.822,231.684a3.321,3.321,0,0,0-2.109-5.655,3.19,3.19,0,0,0-4.941-2.546,3.2,3.2,0,0,1,1.317,1.8,1.3,1.3,0,0,0,.865.892,3.323,3.323,0,0,1,1.93,4.748,1.249,1.249,0,0,0,.095,1.382,3.191,3.191,0,0,1-1.609,5.071,1.263,1.263,0,0,0-.845.787,3.2,3.2,0,0,1-1.251,1.589,3.19,3.19,0,0,0,4.918-2.26,3.191,3.191,0,0,0,1.63-5.805Z" transform="translate(-354.772 -222.958)" fill="#efcb83"/>
        </g>
      </g>
    </g>
    <g id="aceite-de-palma" transform="translate(640.718 2935.136)">
      <path id="Trazado_197609" data-name="Trazado 197609" d="M63.554,91.237l.8,6.652A11.639,11.639,0,0,1,61.81,106.7L57.7,111.727a11.965,11.965,0,0,0-2.367,11.436l5.481,18.086a1.293,1.293,0,0,0,1.238.918l19.2-.178a1.293,1.293,0,0,0,1.238-.918l.976-.918,5-16.486a12.932,12.932,0,0,0-2.367-11.939L81.977,106.7a11.639,11.639,0,0,1-2.541-8.814l.888-6.545Z" transform="translate(-2.71 -80.084)" fill="#deeeff"/>
      <path id="Trazado_197610" data-name="Trazado 197610" d="M80.749,147.329l-.485,1.6a1.292,1.292,0,0,1-1.237.918H58.962a1.293,1.293,0,0,1-1.238-.918l-5.48-18.086A12.93,12.93,0,0,1,54.611,118.9l4.11-5.025a11.641,11.641,0,0,0,2.541-8.814l-.677-5.653H63.04l.723,5.347a14.218,14.218,0,0,1-3.092,10.714L56.559,120.5a10.4,10.4,0,0,0-1.905,9.615L59.68,146.7a.881.881,0,0,0,.844.626H80.749Z" transform="translate(0 -87.261)" fill="#c6e4f4"/>
      <path id="Trazado_197611" data-name="Trazado 197611" d="M159.092,1.419A1.259,1.259,0,0,0,157.842,0h-7.635l-1.438.281A1.259,1.259,0,0,0,147.52,1.7l1.041,7.717h9.5Z" transform="translate(-84.109)" fill="#d87856"/>
      <path id="Trazado_197612" data-name="Trazado 197612" d="M152.664,77.033l1.757,8.445a1.259,1.259,0,0,0,1.249,1.1l1.58.684h2.921a1.259,1.259,0,0,0,1.249-1.1l1.17-9.129Z" transform="translate(-88.633 -67.616)" fill="#cc6a4c"/>
      <path id="Trazado_197613" data-name="Trazado 197613" d="M148.5,9.417h-3.274l-1.025-8A1.259,1.259,0,0,1,145.449,0h1.844Z" transform="translate(-81.194 0)" fill="#cc6a4c"/>
      <path id="Trazado_197614" data-name="Trazado 197614" d="M157.248,87.265h-2.167a1.259,1.259,0,0,1-1.248-1.1l-1.171-9.129h3.274Z" transform="translate(-88.631 -67.62)" fill="#c15f4c"/>
      <path id="Trazado_197615" data-name="Trazado 197615" d="M97.394,224.41l-5.6,7.078a7.43,7.43,0,0,0-1.36,6.86l3.3,11.069a5.173,5.173,0,0,0,4.95,3.673l7.7.129c1.849,0,3.006-.338,5.159-2.084a5.172,5.172,0,0,0,.51-1.154l3.536-11.667a7.43,7.43,0,0,0-1.36-6.859l-6-7.331a.63.63,0,0,0-.487-.231h-7.17l-2.688.289a.63.63,0,0,0-.487.231Z" transform="translate(-33.728 -196.522)" fill="#ffdd40"/>
      <path id="Trazado_197616" data-name="Trazado 197616" d="M107.431,251.134a5.173,5.173,0,0,1-4.44,2.519H94.24a5.175,5.175,0,0,1-4.952-3.673l-3.535-11.667a7.429,7.429,0,0,1,1.36-6.859l6-7.33a.627.627,0,0,1,.487-.232h2.862l-7.4,9.157a4.9,4.9,0,0,0-.9,4.534L91.7,249.248a2.637,2.637,0,0,0,2.54,1.885Z" transform="translate(-29.621 -196.522)" fill="#ffc839"/>
      <path id="Trazado_197617" data-name="Trazado 197617" d="M123.011,63.243H107.364l-3.526-.344a1.641,1.641,0,0,1-1.641-1.641l-.012-1.1a1.641,1.641,0,0,1,1.641-1.641l2.857-.308h16.328a1.641,1.641,0,0,1,1.641,1.641V61.6A1.641,1.641,0,0,1,123.011,63.243Z" transform="translate(-44.325 -51.091)" fill="#c6e4f4"/>
      <path id="Trazado_197618" data-name="Trazado 197618" d="M105.933,63.243H102.2a1.64,1.64,0,0,1-1.641-1.641V59.847a1.64,1.64,0,0,1,1.641-1.641h3.056l.548,4.052Z" transform="translate(-42.894 -51.091)" fill="#b0d9ea"/>
      <g id="Grupo_149340" data-name="Grupo 149340" transform="translate(65.468 17.872)">
        <g id="Grupo_149332" data-name="Grupo 149332" transform="translate(1.666)">
          <path id="Trazado_197619" data-name="Trazado 197619" d="M385.208,160.361q-.434,1.795-.958,3.563-.458,1.546-.982,3.067a.5.5,0,0,1-.623.317c-1.538-.456-4.439-1.791-7.743-.5l8.5-10.877.864.429a4.489,4.489,0,0,1,.938,4Z" transform="translate(-350.839 -154.741)" fill="#88ce65"/>
          <path id="Trazado_197620" data-name="Trazado 197620" d="M260.8,155.353a80.742,80.742,0,0,0-6.013,5.518.5.5,0,0,0,.025.72,12.168,12.168,0,0,1,4.939,8.952l3.933-5.031L266,162.55h0l3.347-4.282,8.483-10.92-.608-.688a4.493,4.493,0,0,0-1.978-.458c-1.37-.019-2.557.759-3.928,1.51a.374.374,0,0,0-.183.414,4.694,4.694,0,0,1-.2,2.912.377.377,0,0,1-.627.093,3.07,3.07,0,0,0-.776-.647,6.339,6.339,0,0,0-1.841-.369.372.372,0,0,0-.205.059c-.847.544-3.777,2.712-6.684,5.181Z" transform="translate(-245.288 -146.2)" fill="#88ce65"/>
          <path id="Trazado_197621" data-name="Trazado 197621" d="M179.055,311.634a4.748,4.748,0,0,0-.622,4.793l3.183,7.937h0l3.355-4.292,3.566-4.562A13.429,13.429,0,0,0,185,306.357a12.7,12.7,0,0,1-1.344-.7.5.5,0,0,0-.7.1C182.358,306.536,179.494,310.957,179.055,311.634Z" transform="translate(-178.049 -286.079)" fill="#88ce65"/>
        </g>
        <path id="Trazado_197622" data-name="Trazado 197622" d="M253.36,187.773a.5.5,0,0,0,.025.719,14.388,14.388,0,0,1,4.517,6.589l-2.249,2.878a13.611,13.611,0,0,0-5.039-9.466.5.5,0,0,1-.025-.719c1.578-1.641,3.415-3.359,5.479-5.139l.92-.122.524-1.094a74.673,74.673,0,0,1,6.3-4.528.372.372,0,0,1,.205-.059,4,4,0,0,1,1.83.538,69.778,69.778,0,0,0-6.349,4.7C257.164,184.05,255.1,185.959,253.36,187.773Z" transform="translate(-239.934 -173.086)" fill="#74bc57"/>
        <path id="Trazado_197623" data-name="Trazado 197623" d="M177.239,308.174a4.748,4.748,0,0,0-.622,4.793l2.71,5.814L177.591,321h0l-3.744-8.033a4.748,4.748,0,0,1,.622-4.793c.345-.532.829-1.226,1.368-1.977l.982-.375a11.254,11.254,0,0,1,.168-1.205c.736-1,1.469-1.967,2.026-2.693a.505.505,0,0,1,.7-.1,8.8,8.8,0,0,1,1.261,1.17c-.432.573-.906,1.208-1.375,1.846-.181.247-.361.494-.539.738C178.339,306.561,177.677,307.5,177.239,308.174Z" transform="translate(-172.357 -282.716)" fill="#74bc57"/>
        <path id="Trazado_197624" data-name="Trazado 197624" d="M217.726,282.609l-3.564,4.557-3.566,4.562-3.355,4.292,8.741,1.721a4.69,4.69,0,0,0,.759.062,4.75,4.75,0,0,0,3.74-1.825c.468-.5.972-1.057,1.586-1.758a.5.5,0,0,0,.071-.555,7.712,7.712,0,0,0-3.215-3.309.5.5,0,0,1,.1-.926,11.081,11.081,0,0,1,2.281-.385,11.2,11.2,0,0,1,4.091.505.5.5,0,0,0,.556-.183c1.02-1.392,1.958-2.776,2.819-4.141a3.291,3.291,0,0,0,.208-.952,2.992,2.992,0,0,1,.791-.674,74.273,74.273,0,0,0,4.193-8.143l-.165-.608c-4.161-3.008-9.314-.806-9.41-.765Z" transform="translate(-202.007 -257.736)" fill="#88ce65"/>
        <g id="Grupo_149336" data-name="Grupo 149336" transform="translate(4.146 8.883)">
          <g id="Grupo_149333" data-name="Grupo 149333" transform="translate(12.333)">
            <path id="Trazado_197625" data-name="Trazado 197625" d="M302.337,221.771a21.663,21.663,0,0,0-1.626-2.9,12.845,12.845,0,0,0-1.481,1.171c1.245,1.9,3.146,5.619,2.652,9.124a.947.947,0,0,0,.354.876.937.937,0,0,0,.583.2.945.945,0,0,0,.934-.814,10.472,10.472,0,0,0,.1-1.456h0A14.839,14.839,0,0,0,302.337,221.771Z" transform="translate(-299.23 -218.872)" fill="#74bc57"/>
          </g>
          <g id="Grupo_149334" data-name="Grupo 149334" transform="translate(0 13.833)">
            <path id="Trazado_197626" data-name="Trazado 197626" d="M203.619,342.24a27.716,27.716,0,0,0-4.164-10.207,4.323,4.323,0,0,1-1.114,1.718,24.794,24.794,0,0,1,3.5,9.589.945.945,0,0,0,.944.914h.03a.946.946,0,0,0,.914-.975A8.454,8.454,0,0,0,203.619,342.24Z" transform="translate(-198.341 -332.033)" fill="#74bc57"/>
          </g>
          <g id="Grupo_149335" data-name="Grupo 149335" transform="translate(10.628 14.803)">
            <path id="Trazado_197627" data-name="Trazado 197627" d="M298.275,342.147c-.185.311-.375.623-.568.937h0q-.212.344-.429.689a24.587,24.587,0,0,0-4.208-1.512,19.249,19.249,0,0,0-6.5-.224.943.943,0,0,1-.921-.139.919.919,0,0,1-.3-.4.944.944,0,0,1,.543-1.22,2.076,2.076,0,0,1,.241-.076,6.132,6.132,0,0,1,.971-.16,24.537,24.537,0,0,1,6.338.371,27.192,27.192,0,0,1,4.834,1.738Z" transform="translate(-285.285 -339.969)" fill="#74bc57"/>
          </g>
        </g>
        <path id="Trazado_197628" data-name="Trazado 197628" d="M195.4,327.3c-.437.615-.825,1.176-1.114,1.623-.025.032-.049.063-.072.1a15.964,15.964,0,0,0-1.331-2.073c.146-.2.3-.411.448-.62.178-.244.358-.491.539-.738.054-.074.11-.148.163-.222A15.221,15.221,0,0,1,195.4,327.3Z" transform="translate(-189.402 -303.465)" fill="#69ad4d"/>
        <g id="Grupo_149338" data-name="Grupo 149338" transform="translate(16.134 8.332)">
          <g id="Grupo_149337" data-name="Grupo 149337">
            <path id="Trazado_197629" data-name="Trazado 197629" d="M298.838,215.869q-.739.642-1.438,1.274a17.923,17.923,0,0,0-.992-1.57c.217-.188.438-.376.659-.564q.389-.331.785-.651C298.124,214.733,298.47,215.249,298.838,215.869Z" transform="translate(-296.408 -214.358)" fill="#69ad4d"/>
          </g>
        </g>
        <g id="Grupo_149339" data-name="Grupo 149339" transform="translate(0 0.459)">
          <path id="Trazado_197630" data-name="Trazado 197630" d="M199.52,151.113l-7.833,10.019-25.576,32.715a.944.944,0,1,1-1.487-1.164l15.362-19.65,18.042-23.081a4.5,4.5,0,0,1,.786.492l.018.014.037.028A4.449,4.449,0,0,1,199.52,151.113Z" transform="translate(-164.423 -149.953)" fill="#74bc57"/>
        </g>
      </g>
    </g>
    <g id="pastillas" transform="translate(868.136 2913.831)">
      <g id="Grupo_149341" data-name="Grupo 149341" transform="translate(0 30.167)">
        <rect id="Rectángulo_41319" data-name="Rectángulo 41319" width="19.354" height="9.179" transform="translate(8.78 0)" fill="#26b57e"/>
        <path id="Trazado_197631" data-name="Trazado 197631" d="M36.913,121.323v31.766a6.762,6.762,0,0,1-6.762,6.763H6.763A6.763,6.763,0,0,1,0,153.089V121.323a6.762,6.762,0,0,1,6.763-6.762H30.151A6.762,6.762,0,0,1,36.913,121.323Z" transform="translate(0 -108.575)" fill="#26b57e"/>
      </g>
      <path id="Trazado_197632" data-name="Trazado 197632" d="M101.716,121.323v31.766a6.762,6.762,0,0,1-6.762,6.763H80.545a6.762,6.762,0,0,1-6.762-6.763V121.323a6.762,6.762,0,0,1,6.762-6.762h14.41A6.762,6.762,0,0,1,101.716,121.323Z" transform="translate(-64.804 -78.408)" fill="#2fcc93"/>
      <path id="Trazado_197633" data-name="Trazado 197633" d="M71.493,28.829V34.27H45.7V28.829a3.539,3.539,0,0,1,3.54-3.54h18.71A3.539,3.539,0,0,1,71.493,28.829Z" transform="translate(-40.141 0)" fill="#32383f"/>
      <path id="Trazado_197634" data-name="Trazado 197634" d="M113.167,28.829V34.27H93.152V28.829a3.54,3.54,0,0,1,3.54-3.54h12.935A3.539,3.539,0,0,1,113.167,28.829Z" transform="translate(-81.815 0)" fill="#4e555e"/>
      <path id="Trazado_197635" data-name="Trazado 197635" d="M259.652,402.048a5.485,5.485,0,0,1-5.486,5.486H243.788a5.485,5.485,0,1,1,0-10.971h10.378a5.486,5.486,0,0,1,5.486,5.485Z" transform="translate(-223.381 -326.09)" fill="#e94f4e"/>
      <path id="Trazado_197636" data-name="Trazado 197636" d="M259.654,428.66a5.485,5.485,0,0,1-5.486,5.486H243.79a5.489,5.489,0,0,1-5.185-7.281,5.494,5.494,0,0,0,5.185,3.689h10.378a5.486,5.486,0,0,0,5.185-3.692A5.466,5.466,0,0,1,259.654,428.66Z" transform="translate(-223.382 -352.702)" fill="#d83939"/>
      <path id="Trazado_197637" data-name="Trazado 197637" d="M336.685,402.048a5.485,5.485,0,0,1-5.486,5.486H326.01V396.563H331.2a5.486,5.486,0,0,1,5.486,5.485Z" transform="translate(-300.415 -326.09)" fill="#eaeaea"/>
      <path id="Trazado_197638" data-name="Trazado 197638" d="M336.685,428.66a5.485,5.485,0,0,1-5.486,5.486H326.01v-3.592H331.2a5.486,5.486,0,0,0,5.185-3.692A5.468,5.468,0,0,1,336.685,428.66Z" transform="translate(-300.415 -352.702)" fill="#d6d6d6"/>
      <rect id="Rectángulo_41320" data-name="Rectángulo 41320" width="23.545" height="17.83" transform="translate(6.685 48.853)" fill="#eaeaea"/>
      <rect id="Rectángulo_41321" data-name="Rectángulo 41321" width="2.295" height="17.83" transform="translate(6.685 48.853)" fill="#d6d6d6"/>
      <path id="Trazado_197639" data-name="Trazado 197639" d="M378.264,352.963a5.485,5.485,0,0,1-7.758,0l-7.338-7.338a5.485,5.485,0,1,1,7.758-7.757l7.338,7.338a5.487,5.487,0,0,1,0,7.757Z" transform="translate(-331.639 -273.126)" fill="#e94f4e"/>
      <path id="Trazado_197640" data-name="Trazado 197640" d="M378.265,356.933a5.485,5.485,0,0,1-7.758,0l-7.338-7.338a5.489,5.489,0,0,1,1.482-8.815,5.494,5.494,0,0,0,1.058,6.275l7.338,7.338a5.486,5.486,0,0,0,6.277,1.056A5.473,5.473,0,0,1,378.265,356.933Z" transform="translate(-331.64 -277.096)" fill="#d83939"/>
      <path id="Trazado_197641" data-name="Trazado 197641" d="M416.334,391.036a5.485,5.485,0,0,1-7.758,0l-3.669-3.669,7.758-7.758,3.669,3.669a5.487,5.487,0,0,1,0,7.758Z" transform="translate(-369.709 -311.199)" fill="#eaeaea"/>
      <path id="Trazado_197642" data-name="Trazado 197642" d="M416.334,428.692a5.486,5.486,0,0,1-7.758,0l-3.669-3.67,2.54-2.54,3.669,3.669a5.486,5.486,0,0,0,6.277,1.056A5.471,5.471,0,0,1,416.334,428.692Z" transform="translate(-369.709 -348.855)" fill="#d6d6d6"/>
    </g>
    <g id="hoja_1_" data-name="hoja (1)" transform="translate(846.313 2964.994)">
      <path id="Trazado_197643" data-name="Trazado 197643" d="M36.183,12.758l-1.449-3a5.329,5.329,0,0,1,1.391-6.418A32.151,32.151,0,0,0,39.371.28L39.626,0l.594.784a10.2,10.2,0,0,1,1.621,3.039Z" fill="#00aa95"/>
      <path id="Trazado_197644" data-name="Trazado 197644" d="M122.554,112.2l-.193-.964c-.954,2.248-3.4,3.442-4.8,4.993a37.993,37.993,0,0,0-3.853,4.993h1.452C121.61,121.22,123.488,116.866,122.554,112.2Z" transform="translate(-77.524 -108.462)" fill="#00cc76"/>
      <path id="Trazado_197645" data-name="Trazado 197645" d="M122.36,111.234l-.352.141c-.866.347-1.75.647-2.644.911h0q-.8.236-1.612.435a5.329,5.329,0,0,0-4.047,5.172v3.327S119.739,117.413,122.36,111.234Z" transform="translate(-77.523 -108.462)" fill="#a5e887"/>
    </g>
    <g id="hoja_1_2" data-name="hoja (1)" transform="translate(1006.48 2941.231)">
      <path id="Trazado_197643-2" data-name="Trazado 197643" d="M43.734,61.387l-6.97-14.413a25.643,25.643,0,0,1,6.7-30.883A154.7,154.7,0,0,0,59.075,1.346L60.3,0l2.856,3.774a49.1,49.1,0,0,1,7.8,14.624Z" transform="translate(0 0)" fill="#0d8071"/>
      <path id="Trazado_197644-2" data-name="Trazado 197644" d="M156.278,115.875l-.928-4.641c-4.588,10.816-16.357,16.562-23.1,24.025a182.806,182.806,0,0,0-18.539,24.025h6.985C151.737,159.285,160.77,138.332,156.278,115.875Z" transform="translate(-69.973 -97.897)" fill="#00aa95"/>
      <path id="Trazado_197645-2" data-name="Trazado 197645" d="M155.348,111.234l-1.692.677c-4.169,1.669-8.419,3.114-12.723,4.383h0q-3.851,1.136-7.754,2.093a25.643,25.643,0,0,0-19.473,24.888v16.01S142.736,140.964,155.348,111.234Z" transform="translate(-69.972 -97.897)" fill="#00aa95"/>
    </g>
    <g id="marfil" transform="translate(1027.165 2929)">
      <path id="Trazado_197647" data-name="Trazado 197647" d="M124.384,64.923a40.3,40.3,0,0,0-4.028-3.946,26.407,26.407,0,0,1-51.89,0,40.3,40.3,0,0,0-4.028,3.946,31.256,31.256,0,0,0,59.945,0Z" transform="translate(-54.357 -51.436)" fill="#fcaf03"/>
      <path id="Trazado_197648" data-name="Trazado 197648" d="M281.6,60.977a26.449,26.449,0,0,1-25.945,21.489H255.6v4.85h.063a31.309,31.309,0,0,0,29.973-22.393A40.336,40.336,0,0,0,281.6,60.977Z" transform="translate(-215.603 -51.436)" fill="#ff9500"/>
      <path id="Trazado_197649" data-name="Trazado 197649" d="M210.281,275.389l-8.064,6.179V243.334h16.83v14.294A22.376,22.376,0,0,1,210.281,275.389Z" transform="translate(-170.577 -205.261)" fill="#fff7e4"/>
      <path id="Trazado_197650" data-name="Trazado 197650" d="M255.6,243.333v31.828a22.374,22.374,0,0,0,8.479-17.534V243.333Z" transform="translate(-215.603 -205.26)" fill="#f0e3c3"/>
      <path id="Trazado_197651" data-name="Trazado 197651" d="M202.217,243.333h16.83v9.7h-16.83Z" transform="translate(-170.577 -205.26)" fill="#ffd400"/>
      <path id="Trazado_197652" data-name="Trazado 197652" d="M255.6,243.333h8.479v9.7h-8.479Z" transform="translate(-215.603 -205.26)" fill="#fdba12"/>
      <path id="Trazado_197653" data-name="Trazado 197653" d="M236.667,188.333h6.05v11.526h-6.05Z" transform="translate(-199.637 -158.865)" fill="#ffd400"/>
      <path id="Trazado_197654" data-name="Trazado 197654" d="M255.6,188.333h3.088v11.526H255.6Z" transform="translate(-215.603 -158.865)" fill="#fdba12"/>
    </g>
    <g id="Grupo_149342" data-name="Grupo 149342" transform="translate(0 1)">
      <g id="rueda-de-color" transform="translate(1212.038 2935.023)">
        <path id="Trazado_197658" data-name="Trazado 197658" d="M359.081,72.78l-7.246.99-2.725,8.98a18.828,18.828,0,0,1,5.532,13.356l7.05,3.646,7.05-3.646A32.894,32.894,0,0,0,359.081,72.78Z" transform="translate(-302.766 -63.119)" fill="#fbc072"/>
        <path id="Trazado_197659" data-name="Trazado 197659" d="M241.7,350.35l-7.55-1.24a18.828,18.828,0,0,1-13.356,5.532l-4.241,6.1,4.241,8a32.894,32.894,0,0,0,23.327-9.661Z" transform="translate(-187.805 -302.766)" fill="#942e19"/>
        <path id="Trazado_197661" data-name="Trazado 197661" d="M96.107,354.642v14.1a32.894,32.894,0,0,1-23.327-9.661l9.971-9.971A18.828,18.828,0,0,0,96.107,354.642Z" transform="translate(-63.119 -302.766)" fill="#afafaf"/>
        <path id="Trazado_197662" data-name="Trazado 197662" d="M368.742,248.5a32.894,32.894,0,0,1-9.661,23.327l-9.971-9.971a18.828,18.828,0,0,0,5.532-13.356Z" transform="translate(-302.766 -215.512)" fill="#ffc846"/>
        <path id="Trazado_197663" data-name="Trazado 197663" d="M271.827,9.661l-9.971,9.971A18.828,18.828,0,0,0,248.5,14.1V0A32.894,32.894,0,0,1,271.827,9.661Z" transform="translate(-215.512)" fill="#869d69"/>
      </g>
      <g id="hoja_1_3" data-name="hoja (1)" transform="translate(1199.1 2953)">
        <path id="Trazado_197643-3" data-name="Trazado 197643" d="M38.4,27.065l-3.073-6.354A11.306,11.306,0,0,1,38.283,7.095a68.207,68.207,0,0,0,6.885-6.5L45.71,0l1.259,1.664a21.647,21.647,0,0,1,3.44,6.448Z" transform="translate(0 0)" fill="#00aa95"/>
        <path id="Trazado_197644-3" data-name="Trazado 197644" d="M132.476,113.28l-.409-2.046c-2.023,4.769-7.212,7.3-10.186,10.593a80.6,80.6,0,0,0-8.174,10.593h3.08C130.474,132.419,134.457,123.181,132.476,113.28Z" transform="translate(-75.303 -105.354)" fill="#00cc76"/>
        <path id="Trazado_197645-3" data-name="Trazado 197645" d="M132.066,111.234l-.746.3c-1.838.736-3.712,1.373-5.61,1.933h0q-1.7.5-3.419.923a11.306,11.306,0,0,0-8.586,10.973v7.059S126.505,124.342,132.066,111.234Z" transform="translate(-75.302 -105.354)" fill="#a5e887"/>
      </g>
    </g>
    <rect id="Rectángulo_41322" data-name="Rectángulo 41322" width="1240" height="234" transform="translate(180 2889)" fill="none"/>
    <g id="Grupo_149956" data-name="Grupo 149956" transform="translate(300.5 3088.508)">
      <g id="Grupo_149957" data-name="Grupo 149957">
        <g id="Grupo_149956-2" data-name="Grupo 149956" clip-path="url(#clip-path-7)">
          <path id="Trazado_199601" data-name="Trazado 199601" d="M9.273,8.375a4.027,4.027,0,0,1-1.355,2.891A4.764,4.764,0,0,1,4.7,12.32a4.284,4.284,0,0,1-3.442-1.472A6.043,6.043,0,0,1,0,6.8v-.7a6.808,6.808,0,0,1,.578-2.89A4.33,4.33,0,0,1,2.23,1.3a4.622,4.622,0,0,1,2.5-.668A4.633,4.633,0,0,1,7.9,1.688a4.325,4.325,0,0,1,1.391,2.96H6.945a2.381,2.381,0,0,0-.613-1.6,2.272,2.272,0,0,0-1.606-.5,1.992,1.992,0,0,0-1.754.84A4.709,4.709,0,0,0,2.375,6v.859a5.043,5.043,0,0,0,.558,2.7,1.956,1.956,0,0,0,1.762.851,2.311,2.311,0,0,0,1.621-.5,2.245,2.245,0,0,0,.613-1.535Z" fill="#12263f"/>
          <path id="Trazado_199602" data-name="Trazado 199602" d="M15.562,12.164a2.489,2.489,0,0,1-.226-.758,2.731,2.731,0,0,1-2.133.915,3,3,0,0,1-2.059-.719,2.313,2.313,0,0,1-.816-1.813,2.389,2.389,0,0,1,1-2.062A4.908,4.908,0,0,1,14.2,7h1.039V6.516a1.4,1.4,0,0,0-.3-.938,1.183,1.183,0,0,0-.949-.351A1.348,1.348,0,0,0,13.1,5.5a.934.934,0,0,0-.324.75H10.515a2.276,2.276,0,0,1,.453-1.359A3,3,0,0,1,12.25,3.91a4.665,4.665,0,0,1,1.859-.355,3.694,3.694,0,0,1,2.481.785,2.747,2.747,0,0,1,.918,2.207v3.664a4.034,4.034,0,0,0,.335,1.82v.133Zm-1.867-1.57a1.939,1.939,0,0,0,.922-.223,1.463,1.463,0,0,0,.625-.6V8.321H14.4q-1.7,0-1.8,1.171l-.007.133a.9.9,0,0,0,.3.7,1.153,1.153,0,0,0,.812.273" fill="#12263f"/>
          <path id="Trazado_199603" data-name="Trazado 199603" d="M24.305,11.305a2.833,2.833,0,0,1-2.313,1.016,2.671,2.671,0,0,1-2.074-.782,3.339,3.339,0,0,1-.73-2.289V3.711h2.258V9.178q0,1.323,1.2,1.322a1.628,1.628,0,0,0,1.578-.8V3.711h2.266v8.453H24.367Z" fill="#12263f"/>
          <path id="Trazado_199604" data-name="Trazado 199604" d="M31.711,10.5a1.478,1.478,0,0,0,1.016-.344,1.208,1.208,0,0,0,.406-.914H35.25a2.886,2.886,0,0,1-.469,1.574,3.086,3.086,0,0,1-1.261,1.11,3.967,3.967,0,0,1-1.77.394,3.667,3.667,0,0,1-2.859-1.152,4.556,4.556,0,0,1-1.047-3.184V7.836a4.506,4.506,0,0,1,1.039-3.117,3.622,3.622,0,0,1,2.851-1.164,3.551,3.551,0,0,1,2.543.9,3.2,3.2,0,0,1,.973,2.4H33.133a1.559,1.559,0,0,0-.406-1.072A1.511,1.511,0,0,0,30.5,5.95a3.327,3.327,0,0,0-.4,1.866v.235a3.374,3.374,0,0,0,.4,1.878,1.376,1.376,0,0,0,1.211.571" fill="#12263f"/>
          <path id="Trazado_199605" data-name="Trazado 199605" d="M38.742,4.633A2.818,2.818,0,0,1,41,3.555q2.75,0,2.789,3.195v5.414H41.531V6.8a1.577,1.577,0,0,0-.312-1.076,1.336,1.336,0,0,0-1.04-.349,1.535,1.535,0,0,0-1.437.768v6.021H36.484v-12h2.258Z" fill="#12263f"/>
          <path id="Trazado_199606" data-name="Trazado 199606" d="M45.14,7.86a5,5,0,0,1,.485-2.242,3.551,3.551,0,0,1,1.394-1.524,4.074,4.074,0,0,1,2.113-.539A3.848,3.848,0,0,1,51.925,4.6a4.2,4.2,0,0,1,1.207,2.844l.016.578a4.418,4.418,0,0,1-1.086,3.121,4.208,4.208,0,0,1-5.832,0,4.494,4.494,0,0,1-1.09-3.188Zm2.258.16a3.16,3.16,0,0,0,.453,1.843,1.629,1.629,0,0,0,2.578.008,3.454,3.454,0,0,0,.461-2.015,3.122,3.122,0,0,0-.461-1.831,1.5,1.5,0,0,0-1.3-.65,1.474,1.474,0,0,0-1.281.646,3.518,3.518,0,0,0-.453,2" fill="#12263f"/>
          <path id="Trazado_199607" data-name="Trazado 199607" d="M60.6,3.711l.07.977A2.953,2.953,0,0,1,63.1,3.555a2.45,2.45,0,0,1,2,.789A3.686,3.686,0,0,1,65.774,6.7v5.461H63.516V6.745A1.474,1.474,0,0,0,63.2,5.7a1.4,1.4,0,0,0-1.04-.325,1.552,1.552,0,0,0-1.429.815v5.974H58.477V3.711Z" fill="#12263f"/>
          <path id="Trazado_199608" data-name="Trazado 199608" d="M72.383,12.164a2.489,2.489,0,0,1-.226-.758,2.731,2.731,0,0,1-2.133.915,3,3,0,0,1-2.059-.719,2.313,2.313,0,0,1-.816-1.813,2.389,2.389,0,0,1,1-2.062A4.908,4.908,0,0,1,71.024,7h1.039V6.516a1.4,1.4,0,0,0-.3-.938,1.183,1.183,0,0,0-.949-.351,1.348,1.348,0,0,0-.9.273.934.934,0,0,0-.324.75H67.336a2.276,2.276,0,0,1,.453-1.359,3,3,0,0,1,1.282-.981,4.665,4.665,0,0,1,1.859-.355,3.694,3.694,0,0,1,2.481.785,2.747,2.747,0,0,1,.918,2.207v3.664a4.034,4.034,0,0,0,.335,1.82v.133Zm-1.867-1.57a1.939,1.939,0,0,0,.922-.223,1.463,1.463,0,0,0,.625-.6V8.321h-.844q-1.7,0-1.805,1.171l-.007.133a.9.9,0,0,0,.3.7,1.153,1.153,0,0,0,.812.273" fill="#12263f"/>
          <path id="Trazado_199609" data-name="Trazado 199609" d="M78.766,1.633V3.711h1.445V5.367H78.766V9.586a1.007,1.007,0,0,0,.18.672.9.9,0,0,0,.687.2,3.546,3.546,0,0,0,.664-.055v1.711a4.624,4.624,0,0,1-1.367.2,2.156,2.156,0,0,1-2.422-2.4V5.367H75.274V3.711h1.234V1.633Z" fill="#12263f"/>
          <path id="Trazado_199610" data-name="Trazado 199610" d="M86.531,11.305a2.833,2.833,0,0,1-2.313,1.016,2.671,2.671,0,0,1-2.074-.782,3.339,3.339,0,0,1-.73-2.289V3.711h2.258V9.178q0,1.323,1.2,1.322a1.628,1.628,0,0,0,1.578-.8V3.711h2.266v8.453H86.593Z" fill="#12263f"/>
          <path id="Trazado_199611" data-name="Trazado 199611" d="M95.172,5.828a6.075,6.075,0,0,0-.812-.062,1.653,1.653,0,0,0-1.68.867v5.531H90.422V3.711h2.133l.062,1.008A2.09,2.09,0,0,1,94.5,3.555a2.385,2.385,0,0,1,.7.1Z" fill="#12263f"/>
          <path id="Trazado_199612" data-name="Trazado 199612" d="M100.922,12.164a2.489,2.489,0,0,1-.226-.758,2.731,2.731,0,0,1-2.133.915A3,3,0,0,1,96.5,11.6a2.313,2.313,0,0,1-.816-1.813,2.389,2.389,0,0,1,1-2.062A4.908,4.908,0,0,1,99.563,7H100.6V6.516a1.4,1.4,0,0,0-.3-.938,1.183,1.183,0,0,0-.949-.351,1.348,1.348,0,0,0-.895.273.934.934,0,0,0-.324.75H95.875a2.276,2.276,0,0,1,.453-1.359A3,3,0,0,1,97.61,3.91a4.665,4.665,0,0,1,1.859-.355,3.694,3.694,0,0,1,2.481.785,2.747,2.747,0,0,1,.918,2.207v3.664a4.034,4.034,0,0,0,.335,1.82v.133Zm-1.867-1.57a1.939,1.939,0,0,0,.922-.223,1.463,1.463,0,0,0,.625-.6V8.321h-.844q-1.7,0-1.805,1.171l-.007.133a.9.9,0,0,0,.3.7,1.153,1.153,0,0,0,.812.273" fill="#12263f"/>
          <rect id="Rectángulo_41670" data-name="Rectángulo 41670" width="2.266" height="12" transform="translate(104.718 0.164)" fill="#12263f"/>
        </g>
      </g>
      <path id="Trazado_199613" data-name="Trazado 199613" d="M215.359,12.164h-2.344L208.453,4.68v7.484h-2.344V.789h2.344l4.57,7.5V.789h2.336Z" fill="#12263f"/>
      <g id="Grupo_149959" data-name="Grupo 149959">
        <g id="Grupo_149958" data-name="Grupo 149958" clip-path="url(#clip-path-7)">
          <path id="Trazado_199614" data-name="Trazado 199614" d="M222.32,11.305a2.833,2.833,0,0,1-2.313,1.016,2.671,2.671,0,0,1-2.074-.782,3.334,3.334,0,0,1-.73-2.289V3.711h2.258V9.178q0,1.323,1.2,1.322a1.629,1.629,0,0,0,1.578-.8V3.711h2.266v8.453h-2.126Z" fill="#12263f"/>
          <path id="Trazado_199615" data-name="Trazado 199615" d="M230.1,12.32a4.152,4.152,0,0,1-3.028-1.14,4.059,4.059,0,0,1-1.168-3.039V7.922a5.1,5.1,0,0,1,.493-2.277A3.616,3.616,0,0,1,227.793,4.1a3.907,3.907,0,0,1,2.059-.543,3.508,3.508,0,0,1,2.73,1.093,4.446,4.446,0,0,1,1,3.1v.922H228.2a2.093,2.093,0,0,0,.66,1.328,2,2,0,0,0,1.394.5,2.436,2.436,0,0,0,2.039-.945L233.4,10.8a3.4,3.4,0,0,1-1.375,1.121,4.5,4.5,0,0,1-1.922.4m-.258-6.945a1.408,1.408,0,0,0-1.09.455,2.356,2.356,0,0,0-.535,1.3h3.141V6.952a1.681,1.681,0,0,0-.407-1.165,1.457,1.457,0,0,0-1.109-.412" fill="#12263f"/>
          <path id="Trazado_199616" data-name="Trazado 199616" d="M238.375,10.5a1.478,1.478,0,0,0,1.016-.344,1.208,1.208,0,0,0,.406-.914h2.117a2.9,2.9,0,0,1-.469,1.574,3.093,3.093,0,0,1-1.261,1.11,3.967,3.967,0,0,1-1.77.394,3.665,3.665,0,0,1-2.859-1.152,4.556,4.556,0,0,1-1.047-3.184V7.836a4.506,4.506,0,0,1,1.039-3.117A3.622,3.622,0,0,1,238.4,3.555a3.552,3.552,0,0,1,2.543.9,3.2,3.2,0,0,1,.973,2.4H239.8a1.559,1.559,0,0,0-.406-1.072,1.511,1.511,0,0,0-2.223.163,3.327,3.327,0,0,0-.4,1.866v.235a3.374,3.374,0,0,0,.4,1.878,1.376,1.376,0,0,0,1.211.571" fill="#12263f"/>
          <path id="Trazado_199617" data-name="Trazado 199617" d="M247.094,12.32a4.152,4.152,0,0,1-3.028-1.14A4.059,4.059,0,0,1,242.9,8.141V7.922a5.1,5.1,0,0,1,.493-2.277A3.616,3.616,0,0,1,244.785,4.1a3.907,3.907,0,0,1,2.059-.543,3.508,3.508,0,0,1,2.73,1.093,4.446,4.446,0,0,1,1,3.1v.922h-5.382a2.093,2.093,0,0,0,.66,1.328,2,2,0,0,0,1.394.5,2.436,2.436,0,0,0,2.039-.945l1.11,1.242a3.4,3.4,0,0,1-1.375,1.121,4.5,4.5,0,0,1-1.922.4m-.258-6.945a1.408,1.408,0,0,0-1.09.455,2.356,2.356,0,0,0-.535,1.3h3.141V6.952a1.681,1.681,0,0,0-.407-1.165,1.457,1.457,0,0,0-1.109-.412" fill="#12263f"/>
          <path id="Trazado_199618" data-name="Trazado 199618" d="M256.43,9.828a.728.728,0,0,0-.41-.652A4.634,4.634,0,0,0,254.7,8.75q-3.015-.633-3.015-2.563a2.324,2.324,0,0,1,.933-1.879,3.769,3.769,0,0,1,2.442-.753,4.055,4.055,0,0,1,2.574.757,2.39,2.39,0,0,1,.965,1.969h-2.258a1.094,1.094,0,0,0-.312-.8,1.325,1.325,0,0,0-.977-.316,1.351,1.351,0,0,0-.883.258.814.814,0,0,0-.312.656.694.694,0,0,0,.355.605,3.65,3.65,0,0,0,1.2.4,9.719,9.719,0,0,1,1.422.379,2.335,2.335,0,0,1,1.789,2.273,2.2,2.2,0,0,1-.992,1.871,4.274,4.274,0,0,1-2.562.715,4.462,4.462,0,0,1-1.887-.379,3.155,3.155,0,0,1-1.293-1.039,2.41,2.41,0,0,1-.469-1.426h2.141a1.175,1.175,0,0,0,.445.922,1.765,1.765,0,0,0,1.11.321,1.636,1.636,0,0,0,.98-.246.768.768,0,0,0,.332-.645" fill="#12263f"/>
        </g>
      </g>
      <path id="Trazado_199619" data-name="Trazado 199619" d="M360.118,9.82h-4.11l-.781,2.344h-2.492L356.969.789h2.172L363.4,12.164h-2.492Zm-3.477-1.9h2.844l-1.43-4.258Z" fill="#12263f"/>
      <g id="Grupo_149961" data-name="Grupo 149961">
        <g id="Grupo_149960" data-name="Grupo 149960" clip-path="url(#clip-path-7)">
          <path id="Trazado_199620" data-name="Trazado 199620" d="M367.828,10.5a1.478,1.478,0,0,0,1.016-.344,1.208,1.208,0,0,0,.406-.914h2.117a2.887,2.887,0,0,1-.469,1.574,3.086,3.086,0,0,1-1.261,1.11,3.967,3.967,0,0,1-1.77.394,3.667,3.667,0,0,1-2.859-1.152,4.556,4.556,0,0,1-1.047-3.184V7.836A4.506,4.506,0,0,1,365,4.719a3.622,3.622,0,0,1,2.851-1.164,3.551,3.551,0,0,1,2.543.9,3.2,3.2,0,0,1,.973,2.4H369.25a1.559,1.559,0,0,0-.406-1.072,1.511,1.511,0,0,0-2.223.163,3.327,3.327,0,0,0-.4,1.866v.235a3.374,3.374,0,0,0,.4,1.878,1.376,1.376,0,0,0,1.211.571" fill="#12263f"/>
          <path id="Trazado_199621" data-name="Trazado 199621" d="M376.547,12.32a4.154,4.154,0,0,1-3.028-1.14,4.059,4.059,0,0,1-1.168-3.039V7.922a5.1,5.1,0,0,1,.493-2.277A3.616,3.616,0,0,1,374.238,4.1a3.907,3.907,0,0,1,2.059-.543,3.508,3.508,0,0,1,2.73,1.093,4.446,4.446,0,0,1,1,3.1v.922h-5.382A2.1,2.1,0,0,0,375.3,10a2,2,0,0,0,1.394.5,2.436,2.436,0,0,0,2.039-.945l1.11,1.242a3.4,3.4,0,0,1-1.375,1.121,4.5,4.5,0,0,1-1.922.4m-.258-6.945a1.408,1.408,0,0,0-1.09.455,2.363,2.363,0,0,0-.535,1.3H377.8V6.952a1.681,1.681,0,0,0-.407-1.165,1.457,1.457,0,0,0-1.109-.412" fill="#12263f"/>
          <path id="Trazado_199622" data-name="Trazado 199622" d="M381.289,1.523a1.11,1.11,0,0,1,.34-.836,1.465,1.465,0,0,1,1.848,0,1.105,1.105,0,0,1,.343.836,1.111,1.111,0,0,1-.347.844,1.449,1.449,0,0,1-1.836,0,1.109,1.109,0,0,1-.348-.844m2.4,10.641h-2.266V3.711h2.266Z" fill="#12263f"/>
          <path id="Trazado_199623" data-name="Trazado 199623" d="M388.25,1.633V3.711H389.7V5.367H388.25V9.586a1.007,1.007,0,0,0,.18.672.9.9,0,0,0,.687.2,3.546,3.546,0,0,0,.664-.055v1.711a4.624,4.624,0,0,1-1.367.2,2.156,2.156,0,0,1-2.422-2.4V5.367h-1.234V3.711h1.234V1.633Z" fill="#12263f"/>
          <path id="Trazado_199624" data-name="Trazado 199624" d="M394.844,12.32a4.154,4.154,0,0,1-3.028-1.14,4.059,4.059,0,0,1-1.168-3.039V7.922a5.1,5.1,0,0,1,.493-2.277A3.616,3.616,0,0,1,392.535,4.1a3.907,3.907,0,0,1,2.059-.543,3.508,3.508,0,0,1,2.73,1.093,4.446,4.446,0,0,1,1,3.1v.922h-5.382A2.1,2.1,0,0,0,393.6,10a2,2,0,0,0,1.394.5,2.436,2.436,0,0,0,2.039-.945l1.11,1.242a3.4,3.4,0,0,1-1.375,1.121,4.5,4.5,0,0,1-1.922.4m-.258-6.945a1.408,1.408,0,0,0-1.09.455,2.363,2.363,0,0,0-.535,1.3H396.1V6.952a1.681,1.681,0,0,0-.407-1.165,1.457,1.457,0,0,0-1.109-.412" fill="#12263f"/>
          <path id="Trazado_199625" data-name="Trazado 199625" d="M403.234,7.875a5.1,5.1,0,0,1,.887-3.149,2.876,2.876,0,0,1,2.426-1.171,2.589,2.589,0,0,1,2.039.921V.164h2.265v12h-2.039l-.109-.9a2.655,2.655,0,0,1-2.172,1.055,2.865,2.865,0,0,1-2.394-1.176,5.256,5.256,0,0,1-.9-3.269m2.258.16a3.356,3.356,0,0,0,.414,1.829,1.347,1.347,0,0,0,1.2.636,1.511,1.511,0,0,0,1.477-.887V6.262a1.49,1.49,0,0,0-1.461-.887q-1.633,0-1.633,2.66" fill="#12263f"/>
          <path id="Trazado_199626" data-name="Trazado 199626" d="M416.492,12.32a4.154,4.154,0,0,1-3.028-1.14A4.059,4.059,0,0,1,412.3,8.141V7.922a5.1,5.1,0,0,1,.493-2.277A3.616,3.616,0,0,1,414.183,4.1a3.907,3.907,0,0,1,2.059-.543,3.507,3.507,0,0,1,2.73,1.093,4.446,4.446,0,0,1,1,3.1v.922h-5.382a2.1,2.1,0,0,0,.66,1.328,2,2,0,0,0,1.394.5,2.436,2.436,0,0,0,2.039-.945l1.11,1.242a3.4,3.4,0,0,1-1.375,1.121,4.5,4.5,0,0,1-1.922.4m-.258-6.945a1.408,1.408,0,0,0-1.09.455,2.363,2.363,0,0,0-.535,1.3h3.141V6.952a1.681,1.681,0,0,0-.407-1.165,1.457,1.457,0,0,0-1.109-.412" fill="#12263f"/>
          <path id="Trazado_199627" data-name="Trazado 199627" d="M432.844,8.016a5.071,5.071,0,0,1-.887,3.129,2.843,2.843,0,0,1-2.394,1.176,2.635,2.635,0,0,1-2.071-.891v3.984h-2.258V3.711h2.094l.078.828a2.655,2.655,0,0,1,2.141-.984,2.865,2.865,0,0,1,2.43,1.156,5.208,5.208,0,0,1,.867,3.188Zm-2.258-.172a3.352,3.352,0,0,0-.418-1.826,1.359,1.359,0,0,0-1.215-.643,1.479,1.479,0,0,0-1.461.815V9.661a1.5,1.5,0,0,0,1.477.839q1.617,0,1.617-2.656" fill="#12263f"/>
          <path id="Trazado_199628" data-name="Trazado 199628" d="M439.14,12.164a2.488,2.488,0,0,1-.226-.758,2.731,2.731,0,0,1-2.133.915,3,3,0,0,1-2.059-.719,2.313,2.313,0,0,1-.816-1.813,2.389,2.389,0,0,1,1-2.062A4.908,4.908,0,0,1,437.781,7h1.039V6.516a1.4,1.4,0,0,0-.3-.938,1.183,1.183,0,0,0-.949-.351,1.348,1.348,0,0,0-.9.273.934.934,0,0,0-.324.75h-2.258a2.276,2.276,0,0,1,.453-1.359,3,3,0,0,1,1.282-.981,4.665,4.665,0,0,1,1.859-.355,3.694,3.694,0,0,1,2.481.785,2.747,2.747,0,0,1,.918,2.207v3.664a4.034,4.034,0,0,0,.335,1.82v.133Zm-1.867-1.57a1.939,1.939,0,0,0,.922-.223,1.463,1.463,0,0,0,.625-.6V8.321h-.844q-1.7,0-1.805,1.171l-.007.133a.9.9,0,0,0,.3.7,1.153,1.153,0,0,0,.812.273" fill="#12263f"/>
          <rect id="Rectángulo_41673" data-name="Rectángulo 41673" width="2.266" height="12" transform="translate(442.937 0.164)" fill="#12263f"/>
          <path id="Trazado_199629" data-name="Trazado 199629" d="M449.18,3.711l.07.945a2.972,2.972,0,0,1,2.43-1.1,2.253,2.253,0,0,1,2.242,1.289,2.9,2.9,0,0,1,2.539-1.289,2.518,2.518,0,0,1,2.047.8,3.678,3.678,0,0,1,.672,2.41v5.4h-2.266v-5.4a1.613,1.613,0,0,0-.281-1.053,1.243,1.243,0,0,0-.992-.333,1.409,1.409,0,0,0-1.406.971l.007,5.818h-2.257V6.769A1.6,1.6,0,0,0,451.7,5.7a1.256,1.256,0,0,0-.985-.329,1.463,1.463,0,0,0-1.39.8v5.99h-2.258V3.711Z" fill="#12263f"/>
          <path id="Trazado_199630" data-name="Trazado 199630" d="M465.812,12.164a2.488,2.488,0,0,1-.226-.758,2.731,2.731,0,0,1-2.133.915,3,3,0,0,1-2.059-.719,2.313,2.313,0,0,1-.816-1.813,2.389,2.389,0,0,1,1-2.062A4.908,4.908,0,0,1,464.453,7h1.039V6.516a1.4,1.4,0,0,0-.3-.938,1.183,1.183,0,0,0-.949-.351,1.348,1.348,0,0,0-.9.273.934.934,0,0,0-.324.75h-2.258a2.276,2.276,0,0,1,.453-1.359A3,3,0,0,1,462.5,3.91a4.665,4.665,0,0,1,1.859-.355,3.694,3.694,0,0,1,2.481.785,2.747,2.747,0,0,1,.918,2.207v3.664a4.034,4.034,0,0,0,.335,1.82v.133Zm-1.867-1.57a1.939,1.939,0,0,0,.922-.223,1.463,1.463,0,0,0,.625-.6V8.321h-.844q-1.7,0-1.805,1.171l-.007.133a.9.9,0,0,0,.3.7,1.153,1.153,0,0,0,.812.273" fill="#12263f"/>
          <path id="Trazado_199631" data-name="Trazado 199631" d="M519.363,8.156v4.008h-2.344V.789h4.438a5.144,5.144,0,0,1,2.254.469,3.463,3.463,0,0,1,1.5,1.332,3.72,3.72,0,0,1,.523,1.965,3.271,3.271,0,0,1-1.144,2.637,4.772,4.772,0,0,1-3.168.964Zm0-1.9h2.094a2.064,2.064,0,0,0,1.418-.437,1.594,1.594,0,0,0,.488-1.25,1.877,1.877,0,0,0-.492-1.352,1.836,1.836,0,0,0-1.36-.531h-2.148Z" fill="#12263f"/>
          <rect id="Rectángulo_41674" data-name="Rectángulo 41674" width="2.266" height="12" transform="translate(527.308 0.164)" fill="#12263f"/>
          <path id="Trazado_199632" data-name="Trazado 199632" d="M536.332,12.164a2.489,2.489,0,0,1-.226-.758,2.731,2.731,0,0,1-2.133.915,3,3,0,0,1-2.059-.719,2.313,2.313,0,0,1-.816-1.813,2.389,2.389,0,0,1,1-2.062A4.906,4.906,0,0,1,534.973,7h1.039V6.516a1.4,1.4,0,0,0-.3-.938,1.185,1.185,0,0,0-.949-.351,1.348,1.348,0,0,0-.9.273.931.931,0,0,0-.324.75h-2.258a2.269,2.269,0,0,1,.453-1.359,3,3,0,0,1,1.282-.981,4.665,4.665,0,0,1,1.859-.355,3.694,3.694,0,0,1,2.481.785,2.75,2.75,0,0,1,.918,2.207v3.664a4.034,4.034,0,0,0,.335,1.82v.133Zm-1.867-1.57a1.939,1.939,0,0,0,.922-.223,1.463,1.463,0,0,0,.625-.6V8.321h-.844q-1.7,0-1.805,1.171l-.007.133a.9.9,0,0,0,.3.7,1.151,1.151,0,0,0,.812.273" fill="#12263f"/>
          <path id="Trazado_199633" data-name="Trazado 199633" d="M542.09,3.711l.07.977a2.952,2.952,0,0,1,2.43-1.133,2.45,2.45,0,0,1,2,.789,3.687,3.687,0,0,1,.672,2.359v5.461H545V6.745a1.474,1.474,0,0,0-.312-1.045,1.4,1.4,0,0,0-1.04-.325,1.552,1.552,0,0,0-1.429.815v5.974h-2.258V3.711Z" fill="#12263f"/>
          <path id="Trazado_199634" data-name="Trazado 199634" d="M551.676,1.633V3.711h1.445V5.367h-1.445V9.586a1.007,1.007,0,0,0,.18.672.9.9,0,0,0,.687.2,3.553,3.553,0,0,0,.664-.055v1.711a4.628,4.628,0,0,1-1.367.2,2.156,2.156,0,0,1-2.422-2.4V5.367h-1.234V3.711h1.234V1.633Z" fill="#12263f"/>
          <path id="Trazado_199635" data-name="Trazado 199635" d="M559.277,12.164a2.488,2.488,0,0,1-.226-.758,2.731,2.731,0,0,1-2.133.915,3,3,0,0,1-2.059-.719,2.313,2.313,0,0,1-.816-1.813,2.389,2.389,0,0,1,1-2.062A4.906,4.906,0,0,1,557.918,7h1.039V6.516a1.4,1.4,0,0,0-.3-.938,1.185,1.185,0,0,0-.949-.351,1.348,1.348,0,0,0-.895.273.931.931,0,0,0-.324.75H554.23a2.269,2.269,0,0,1,.453-1.359,3,3,0,0,1,1.282-.981,4.665,4.665,0,0,1,1.859-.355,3.694,3.694,0,0,1,2.481.785,2.75,2.75,0,0,1,.918,2.207v3.664a4.034,4.034,0,0,0,.335,1.82v.133Zm-1.867-1.57a1.939,1.939,0,0,0,.922-.223,1.463,1.463,0,0,0,.625-.6V8.321h-.844q-1.7,0-1.8,1.171l-.007.133a.9.9,0,0,0,.3.7,1.151,1.151,0,0,0,.812.273" fill="#12263f"/>
          <path id="Trazado_199636" data-name="Trazado 199636" d="M567.535,9.828a.728.728,0,0,0-.41-.652,4.634,4.634,0,0,0-1.317-.426q-3.015-.633-3.015-2.563a2.324,2.324,0,0,1,.933-1.879,3.769,3.769,0,0,1,2.442-.753,4.055,4.055,0,0,1,2.574.757,2.39,2.39,0,0,1,.965,1.969h-2.258a1.094,1.094,0,0,0-.312-.8,1.326,1.326,0,0,0-.977-.316,1.351,1.351,0,0,0-.883.258.813.813,0,0,0-.312.656.694.694,0,0,0,.355.605,3.649,3.649,0,0,0,1.2.4,9.718,9.718,0,0,1,1.422.379,2.335,2.335,0,0,1,1.789,2.273,2.2,2.2,0,0,1-.992,1.871,4.274,4.274,0,0,1-2.562.715,4.462,4.462,0,0,1-1.887-.379A3.155,3.155,0,0,1,563,10.9a2.41,2.41,0,0,1-.469-1.426h2.141a1.175,1.175,0,0,0,.445.922,1.765,1.765,0,0,0,1.11.321,1.636,1.636,0,0,0,.98-.246.768.768,0,0,0,.332-.645" fill="#12263f"/>
          <path id="Trazado_199637" data-name="Trazado 199637" d="M577.285,3.711l.07.945a2.972,2.972,0,0,1,2.43-1.1,2.254,2.254,0,0,1,2.242,1.289,2.9,2.9,0,0,1,2.539-1.289,2.518,2.518,0,0,1,2.047.8,3.678,3.678,0,0,1,.672,2.41v5.4h-2.266v-5.4a1.613,1.613,0,0,0-.281-1.053,1.243,1.243,0,0,0-.992-.333,1.409,1.409,0,0,0-1.406.971l.007,5.818H580.09V6.769A1.6,1.6,0,0,0,579.8,5.7a1.256,1.256,0,0,0-.985-.329,1.463,1.463,0,0,0-1.39.8v5.99h-2.258V3.711Z" fill="#12263f"/>
          <path id="Trazado_199638" data-name="Trazado 199638" d="M592.91,12.32a4.152,4.152,0,0,1-3.028-1.14,4.059,4.059,0,0,1-1.168-3.039V7.922a5.1,5.1,0,0,1,.493-2.277A3.616,3.616,0,0,1,590.6,4.1a3.907,3.907,0,0,1,2.059-.543,3.508,3.508,0,0,1,2.73,1.093,4.446,4.446,0,0,1,1,3.1v.922H591a2.093,2.093,0,0,0,.66,1.328,2,2,0,0,0,1.394.5,2.436,2.436,0,0,0,2.039-.945l1.11,1.242a3.4,3.4,0,0,1-1.375,1.121,4.5,4.5,0,0,1-1.922.4m-.258-6.945a1.408,1.408,0,0,0-1.09.455,2.356,2.356,0,0,0-.535,1.3h3.141V6.952a1.682,1.682,0,0,0-.407-1.165,1.457,1.457,0,0,0-1.109-.412" fill="#12263f"/>
          <path id="Trazado_199639" data-name="Trazado 199639" d="M597.316,7.875a5.1,5.1,0,0,1,.887-3.149,2.876,2.876,0,0,1,2.426-1.171,2.592,2.592,0,0,1,2.039.921V.164h2.265v12h-2.039l-.109-.9a2.656,2.656,0,0,1-2.172,1.055,2.865,2.865,0,0,1-2.394-1.176,5.256,5.256,0,0,1-.9-3.269m2.258.16a3.356,3.356,0,0,0,.414,1.829,1.347,1.347,0,0,0,1.2.636,1.512,1.512,0,0,0,1.477-.887V6.262a1.49,1.49,0,0,0-1.461-.887q-1.633,0-1.633,2.66" fill="#12263f"/>
          <path id="Trazado_199640" data-name="Trazado 199640" d="M606.668,1.523a1.11,1.11,0,0,1,.34-.836,1.464,1.464,0,0,1,1.847,0,1.106,1.106,0,0,1,.344.836,1.111,1.111,0,0,1-.347.844,1.449,1.449,0,0,1-1.836,0,1.108,1.108,0,0,1-.348-.844m2.4,10.641H606.8V3.711h2.266Z" fill="#12263f"/>
          <path id="Trazado_199641" data-name="Trazado 199641" d="M614.441,10.5a1.478,1.478,0,0,0,1.016-.344,1.208,1.208,0,0,0,.406-.914h2.117a2.9,2.9,0,0,1-.469,1.574,3.093,3.093,0,0,1-1.261,1.11,3.967,3.967,0,0,1-1.77.394,3.665,3.665,0,0,1-2.859-1.152,4.556,4.556,0,0,1-1.047-3.184V7.836a4.506,4.506,0,0,1,1.039-3.117,3.622,3.622,0,0,1,2.851-1.164,3.552,3.552,0,0,1,2.543.9,3.2,3.2,0,0,1,.973,2.4h-2.117a1.559,1.559,0,0,0-.406-1.072,1.511,1.511,0,0,0-2.223.163,3.327,3.327,0,0,0-.4,1.866v.235a3.374,3.374,0,0,0,.4,1.878,1.376,1.376,0,0,0,1.211.571" fill="#12263f"/>
          <path id="Trazado_199642" data-name="Trazado 199642" d="M619.254,1.523a1.11,1.11,0,0,1,.34-.836,1.464,1.464,0,0,1,1.847,0,1.106,1.106,0,0,1,.344.836,1.108,1.108,0,0,1-.348.844,1.447,1.447,0,0,1-1.835,0,1.108,1.108,0,0,1-.348-.844m2.4,10.641h-2.266V3.711h2.266Z" fill="#12263f"/>
          <path id="Trazado_199643" data-name="Trazado 199643" d="M625.59,3.711l.07.977a2.952,2.952,0,0,1,2.43-1.133,2.45,2.45,0,0,1,2,.789,3.687,3.687,0,0,1,.672,2.359v5.461H628.5V6.745a1.474,1.474,0,0,0-.312-1.045,1.4,1.4,0,0,0-1.04-.325,1.552,1.552,0,0,0-1.429.815v5.974h-2.258V3.711Z" fill="#12263f"/>
          <path id="Trazado_199644" data-name="Trazado 199644" d="M637.371,12.164a2.489,2.489,0,0,1-.226-.758,2.731,2.731,0,0,1-2.133.915,3,3,0,0,1-2.059-.719,2.313,2.313,0,0,1-.816-1.813,2.389,2.389,0,0,1,1-2.062A4.906,4.906,0,0,1,636.012,7h1.039V6.516a1.4,1.4,0,0,0-.3-.938,1.185,1.185,0,0,0-.949-.351,1.348,1.348,0,0,0-.9.273.931.931,0,0,0-.324.75h-2.258a2.269,2.269,0,0,1,.453-1.359,3,3,0,0,1,1.282-.981,4.665,4.665,0,0,1,1.859-.355,3.694,3.694,0,0,1,2.481.785,2.75,2.75,0,0,1,.918,2.207v3.664a4.034,4.034,0,0,0,.335,1.82v.133Zm-1.867-1.57a1.939,1.939,0,0,0,.922-.223,1.464,1.464,0,0,0,.625-.6V8.321h-.844q-1.695,0-1.8,1.171l-.007.133a.9.9,0,0,0,.3.7,1.151,1.151,0,0,0,.812.273" fill="#12263f"/>
          <rect id="Rectángulo_41675" data-name="Rectángulo 41675" width="2.266" height="12" transform="translate(641.168 0.164)" fill="#12263f"/>
          <path id="Trazado_199645" data-name="Trazado 199645" d="M649.184,12.32a4.152,4.152,0,0,1-3.028-1.14,4.059,4.059,0,0,1-1.168-3.039V7.922a5.1,5.1,0,0,1,.493-2.277A3.616,3.616,0,0,1,646.875,4.1a3.907,3.907,0,0,1,2.059-.543,3.507,3.507,0,0,1,2.73,1.093,4.446,4.446,0,0,1,1,3.1v.922h-5.382a2.093,2.093,0,0,0,.66,1.328,2,2,0,0,0,1.394.5,2.436,2.436,0,0,0,2.039-.945l1.11,1.242a3.4,3.4,0,0,1-1.375,1.121,4.5,4.5,0,0,1-1.922.4m-.258-6.945a1.408,1.408,0,0,0-1.09.455,2.356,2.356,0,0,0-.535,1.3h3.141V6.952a1.681,1.681,0,0,0-.407-1.165,1.457,1.457,0,0,0-1.109-.412" fill="#12263f"/>
          <path id="Trazado_199646" data-name="Trazado 199646" d="M658.519,9.828a.728.728,0,0,0-.41-.652,4.634,4.634,0,0,0-1.317-.426q-3.015-.633-3.015-2.563a2.324,2.324,0,0,1,.933-1.879,3.768,3.768,0,0,1,2.442-.753,4.055,4.055,0,0,1,2.574.757,2.39,2.39,0,0,1,.965,1.969h-2.258a1.094,1.094,0,0,0-.312-.8,1.325,1.325,0,0,0-.977-.316,1.351,1.351,0,0,0-.883.258.814.814,0,0,0-.312.656.694.694,0,0,0,.355.605,3.649,3.649,0,0,0,1.2.4,9.72,9.72,0,0,1,1.422.379,2.335,2.335,0,0,1,1.789,2.273,2.2,2.2,0,0,1-.992,1.871,4.274,4.274,0,0,1-2.562.715,4.462,4.462,0,0,1-1.887-.379A3.155,3.155,0,0,1,653.98,10.9a2.41,2.41,0,0,1-.469-1.426h2.141a1.176,1.176,0,0,0,.445.922,1.765,1.765,0,0,0,1.11.321,1.636,1.636,0,0,0,.98-.246.768.768,0,0,0,.332-.645" fill="#12263f"/>
        </g>
      </g>
      <path id="Trazado_199647" data-name="Trazado 199647" d="M721.016.789l2.922,8.25,2.906-8.25h3.078V12.164h-2.351V9.055l.234-5.368-3.07,8.477h-1.61L720.063,3.7l.234,5.36v3.109h-2.344V.789Z" fill="#12263f"/>
      <g id="Grupo_149963" data-name="Grupo 149963">
        <g id="Grupo_149962" data-name="Grupo 149962" clip-path="url(#clip-path-7)">
          <path id="Trazado_199648" data-name="Trazado 199648" d="M736.719,12.164a2.489,2.489,0,0,1-.226-.758,2.731,2.731,0,0,1-2.133.915A3,3,0,0,1,732.3,11.6a2.313,2.313,0,0,1-.816-1.813,2.389,2.389,0,0,1,1-2.062A4.906,4.906,0,0,1,735.36,7H736.4V6.516a1.4,1.4,0,0,0-.3-.938,1.185,1.185,0,0,0-.949-.351,1.348,1.348,0,0,0-.895.273.931.931,0,0,0-.324.75h-2.258a2.269,2.269,0,0,1,.453-1.359,3,3,0,0,1,1.282-.981,4.665,4.665,0,0,1,1.859-.355,3.694,3.694,0,0,1,2.481.785,2.75,2.75,0,0,1,.918,2.207v3.664a4.034,4.034,0,0,0,.335,1.82v.133Zm-1.867-1.57a1.939,1.939,0,0,0,.922-.223,1.463,1.463,0,0,0,.625-.6V8.321h-.844q-1.7,0-1.8,1.171l-.007.133a.9.9,0,0,0,.3.7,1.151,1.151,0,0,0,.812.273" fill="#12263f"/>
          <path id="Trazado_199649" data-name="Trazado 199649" d="M745.148,5.828a6.075,6.075,0,0,0-.812-.062,1.653,1.653,0,0,0-1.68.867v5.531H740.4V3.711h2.133l.062,1.008a2.09,2.09,0,0,1,1.883-1.164,2.385,2.385,0,0,1,.7.1Z" fill="#12263f"/>
          <path id="Trazado_199650" data-name="Trazado 199650" d="M747.008,12.164v-6.8H745.75V3.711h1.258V2.992a2.92,2.92,0,0,1,.816-2.207A3.164,3.164,0,0,1,750.11,0a5.339,5.339,0,0,1,1.148.155l-.023,1.736a2.875,2.875,0,0,0-.688-.071q-1.273,0-1.273,1.205v.686h1.679V5.367h-1.679v6.8Z" fill="#12263f"/>
          <path id="Trazado_199651" data-name="Trazado 199651" d="M752.109,1.523a1.114,1.114,0,0,1,.34-.836,1.466,1.466,0,0,1,1.848,0,1.106,1.106,0,0,1,.344.836,1.112,1.112,0,0,1-.348.844,1.449,1.449,0,0,1-1.836,0,1.108,1.108,0,0,1-.348-.844m2.4,10.641h-2.266V3.711h2.266Z" fill="#12263f"/>
          <rect id="Rectángulo_41677" data-name="Rectángulo 41677" width="2.266" height="12" transform="translate(756.484 0.164)" fill="#12263f"/>
          <path id="Trazado_199652" data-name="Trazado 199652" d="M767.758,9.406l1.57-5.7h2.36l-2.852,8.453H766.68l-2.852-8.453h2.36Z" fill="#12263f"/>
          <path id="Trazado_199653" data-name="Trazado 199653" d="M776.469,12.32a4.152,4.152,0,0,1-3.028-1.14,4.059,4.059,0,0,1-1.168-3.039V7.922a5.1,5.1,0,0,1,.493-2.277A3.616,3.616,0,0,1,774.16,4.1a3.907,3.907,0,0,1,2.059-.543,3.507,3.507,0,0,1,2.73,1.093,4.446,4.446,0,0,1,1,3.1v.922h-5.382a2.093,2.093,0,0,0,.66,1.328,2,2,0,0,0,1.394.5,2.436,2.436,0,0,0,2.039-.945l1.11,1.242a3.4,3.4,0,0,1-1.375,1.121,4.5,4.5,0,0,1-1.922.4m-.258-6.945a1.408,1.408,0,0,0-1.09.455,2.356,2.356,0,0,0-.535,1.3h3.141V6.952a1.681,1.681,0,0,0-.407-1.165,1.457,1.457,0,0,0-1.109-.412" fill="#12263f"/>
          <path id="Trazado_199654" data-name="Trazado 199654" d="M780.9,7.875a4.956,4.956,0,0,1,.926-3.133,3,3,0,0,1,2.5-1.187,2.628,2.628,0,0,1,2.164.953l.094-.8h2.047v8.172a3.612,3.612,0,0,1-.5,1.929,3.235,3.235,0,0,1-1.418,1.25,4.991,4.991,0,0,1-2.141.43,4.637,4.637,0,0,1-1.812-.371,3.207,3.207,0,0,1-1.336-.957l1-1.375a2.643,2.643,0,0,0,2.047.945,1.937,1.937,0,0,0,1.4-.48,1.805,1.805,0,0,0,.5-1.364v-.453a2.611,2.611,0,0,1-2.055.883,2.991,2.991,0,0,1-2.464-1.191,4.95,4.95,0,0,1-.942-3.16Zm2.258.16a3.1,3.1,0,0,0,.461,1.81,1.466,1.466,0,0,0,1.266.655,1.565,1.565,0,0,0,1.476-.778V6.152a1.563,1.563,0,0,0-1.461-.777,1.472,1.472,0,0,0-1.277.667,3.494,3.494,0,0,0-.465,1.993" fill="#12263f"/>
          <path id="Trazado_199655" data-name="Trazado 199655" d="M794.25,12.32a4.152,4.152,0,0,1-3.028-1.14,4.058,4.058,0,0,1-1.168-3.039V7.922a5.1,5.1,0,0,1,.493-2.277A3.616,3.616,0,0,1,791.941,4.1,3.907,3.907,0,0,1,794,3.555a3.507,3.507,0,0,1,2.73,1.093,4.446,4.446,0,0,1,1,3.1v.922h-5.382A2.093,2.093,0,0,0,793,10a2,2,0,0,0,1.394.5,2.436,2.436,0,0,0,2.039-.945l1.11,1.242a3.4,3.4,0,0,1-1.375,1.121,4.5,4.5,0,0,1-1.922.4m-.258-6.945a1.408,1.408,0,0,0-1.09.455,2.356,2.356,0,0,0-.535,1.3h3.141V6.952a1.681,1.681,0,0,0-.407-1.165,1.457,1.457,0,0,0-1.109-.412" fill="#12263f"/>
          <path id="Trazado_199656" data-name="Trazado 199656" d="M801.711,1.633V3.711h1.445V5.367h-1.445V9.586a1.007,1.007,0,0,0,.18.672.9.9,0,0,0,.687.2,3.554,3.554,0,0,0,.664-.055v1.711a4.629,4.629,0,0,1-1.367.2,2.156,2.156,0,0,1-2.422-2.4V5.367h-1.234V3.711h1.234V1.633Z" fill="#12263f"/>
          <path id="Trazado_199657" data-name="Trazado 199657" d="M809.312,12.164a2.489,2.489,0,0,1-.226-.758,2.731,2.731,0,0,1-2.133.915,3,3,0,0,1-2.059-.719,2.313,2.313,0,0,1-.816-1.813,2.389,2.389,0,0,1,1-2.062A4.906,4.906,0,0,1,807.953,7h1.039V6.516a1.4,1.4,0,0,0-.3-.938,1.185,1.185,0,0,0-.949-.351,1.348,1.348,0,0,0-.9.273.931.931,0,0,0-.324.75h-2.258a2.269,2.269,0,0,1,.453-1.359A3,3,0,0,1,806,3.91a4.665,4.665,0,0,1,1.859-.355,3.694,3.694,0,0,1,2.481.785,2.75,2.75,0,0,1,.918,2.207v3.664a4.034,4.034,0,0,0,.335,1.82v.133Zm-1.867-1.57a1.939,1.939,0,0,0,.922-.223,1.463,1.463,0,0,0,.625-.6V8.321h-.844q-1.7,0-1.8,1.171l-.007.133a.9.9,0,0,0,.3.7,1.151,1.151,0,0,0,.812.273" fill="#12263f"/>
          <rect id="Rectángulo_41678" data-name="Rectángulo 41678" width="2.266" height="12" transform="translate(813.109 0.164)" fill="#12263f"/>
          <path id="Trazado_199658" data-name="Trazado 199658" d="M916.236,8.375a4.031,4.031,0,0,1-1.355,2.891,4.764,4.764,0,0,1-3.223,1.054,4.283,4.283,0,0,1-3.442-1.472A6.043,6.043,0,0,1,906.963,6.8v-.7a6.808,6.808,0,0,1,.578-2.89A4.33,4.33,0,0,1,909.193,1.3a5.163,5.163,0,0,1,5.668.387,4.325,4.325,0,0,1,1.391,2.96h-2.344a2.381,2.381,0,0,0-.613-1.6,2.271,2.271,0,0,0-1.606-.5,1.992,1.992,0,0,0-1.754.84,4.7,4.7,0,0,0-.6,2.605v.859a5.043,5.043,0,0,0,.558,2.7,1.956,1.956,0,0,0,1.762.851,2.313,2.313,0,0,0,1.621-.5,2.245,2.245,0,0,0,.613-1.535Z" fill="#12263f"/>
          <path id="Trazado_199659" data-name="Trazado 199659" d="M917.275,7.86a5,5,0,0,1,.485-2.242,3.538,3.538,0,0,1,1.394-1.524,4.072,4.072,0,0,1,2.113-.539A3.848,3.848,0,0,1,924.06,4.6a4.2,4.2,0,0,1,1.207,2.844l.016.578a4.418,4.418,0,0,1-1.086,3.121,4.208,4.208,0,0,1-5.832,0,4.494,4.494,0,0,1-1.09-3.188Zm2.258.16a3.16,3.16,0,0,0,.453,1.843,1.629,1.629,0,0,0,2.578.008,3.462,3.462,0,0,0,.461-2.015,3.13,3.13,0,0,0-.461-1.831,1.5,1.5,0,0,0-1.3-.65,1.472,1.472,0,0,0-1.281.646,3.518,3.518,0,0,0-.453,2" fill="#12263f"/>
          <rect id="Rectángulo_41679" data-name="Rectángulo 41679" width="2.266" height="12" transform="translate(926.79 0.164)" fill="#12263f"/>
          <path id="Trazado_199660" data-name="Trazado 199660" d="M930.564,7.86a5,5,0,0,1,.485-2.242,3.538,3.538,0,0,1,1.394-1.524,4.072,4.072,0,0,1,2.113-.539A3.848,3.848,0,0,1,937.349,4.6a4.2,4.2,0,0,1,1.207,2.844l.016.578a4.418,4.418,0,0,1-1.086,3.121,4.208,4.208,0,0,1-5.832,0,4.494,4.494,0,0,1-1.09-3.188Zm2.258.16a3.16,3.16,0,0,0,.453,1.843,1.629,1.629,0,0,0,2.578.008,3.462,3.462,0,0,0,.461-2.015,3.13,3.13,0,0,0-.461-1.831,1.5,1.5,0,0,0-1.3-.65,1.472,1.472,0,0,0-1.281.646,3.518,3.518,0,0,0-.453,2" fill="#12263f"/>
          <path id="Trazado_199661" data-name="Trazado 199661" d="M944.712,5.828a6.075,6.075,0,0,0-.812-.062,1.653,1.653,0,0,0-1.68.867v5.531h-2.258V3.711h2.133l.062,1.008a2.09,2.09,0,0,1,1.883-1.164,2.384,2.384,0,0,1,.7.1Z" fill="#12263f"/>
          <path id="Trazado_199662" data-name="Trazado 199662" d="M950.462,12.164a2.488,2.488,0,0,1-.226-.758,2.731,2.731,0,0,1-2.133.915,3,3,0,0,1-2.059-.719,2.313,2.313,0,0,1-.816-1.813,2.389,2.389,0,0,1,1-2.062A4.906,4.906,0,0,1,949.1,7h1.039V6.516a1.4,1.4,0,0,0-.3-.938,1.185,1.185,0,0,0-.949-.351,1.348,1.348,0,0,0-.9.273.931.931,0,0,0-.324.75h-2.258a2.269,2.269,0,0,1,.453-1.359,3,3,0,0,1,1.282-.981,4.665,4.665,0,0,1,1.859-.355,3.694,3.694,0,0,1,2.481.785,2.75,2.75,0,0,1,.918,2.207v3.664a4.034,4.034,0,0,0,.335,1.82v.133Zm-1.867-1.57a1.939,1.939,0,0,0,.922-.223,1.464,1.464,0,0,0,.625-.6V8.321H949.3q-1.695,0-1.8,1.171l-.007.133a.9.9,0,0,0,.3.7,1.151,1.151,0,0,0,.812.273" fill="#12263f"/>
          <path id="Trazado_199663" data-name="Trazado 199663" d="M956.22,3.711l.07.977a2.952,2.952,0,0,1,2.43-1.133,2.45,2.45,0,0,1,2,.789,3.687,3.687,0,0,1,.672,2.359v5.461h-2.258V6.745a1.474,1.474,0,0,0-.312-1.045,1.4,1.4,0,0,0-1.04-.325,1.551,1.551,0,0,0-1.429.815v5.974h-2.258V3.711Z" fill="#12263f"/>
          <path id="Trazado_199664" data-name="Trazado 199664" d="M965.806,1.633V3.711h1.445V5.367h-1.445V9.586a1.007,1.007,0,0,0,.18.672.9.9,0,0,0,.687.2,3.554,3.554,0,0,0,.664-.055v1.711a4.628,4.628,0,0,1-1.367.2,2.156,2.156,0,0,1-2.422-2.4V5.367h-1.234V3.711h1.234V1.633Z" fill="#12263f"/>
          <path id="Trazado_199665" data-name="Trazado 199665" d="M972.4,12.32a4.152,4.152,0,0,1-3.028-1.14A4.059,4.059,0,0,1,968.2,8.141V7.922a5.1,5.1,0,0,1,.493-2.277A3.616,3.616,0,0,1,970.091,4.1a3.907,3.907,0,0,1,2.059-.543,3.507,3.507,0,0,1,2.73,1.093,4.446,4.446,0,0,1,1,3.1v.922h-5.382a2.093,2.093,0,0,0,.66,1.328,2,2,0,0,0,1.394.5,2.436,2.436,0,0,0,2.039-.945L975.7,10.8a3.4,3.4,0,0,1-1.375,1.121,4.5,4.5,0,0,1-1.922.4m-.258-6.945a1.408,1.408,0,0,0-1.09.455,2.356,2.356,0,0,0-.535,1.3h3.141V6.952a1.681,1.681,0,0,0-.407-1.165,1.457,1.457,0,0,0-1.109-.412" fill="#12263f"/>
          <path id="Trazado_199666" data-name="Trazado 199666" d="M981.736,9.828a.728.728,0,0,0-.41-.652,4.634,4.634,0,0,0-1.317-.426q-3.015-.633-3.015-2.563a2.324,2.324,0,0,1,.933-1.879,3.769,3.769,0,0,1,2.442-.753,4.055,4.055,0,0,1,2.574.757,2.39,2.39,0,0,1,.965,1.969H981.65a1.094,1.094,0,0,0-.312-.8,1.325,1.325,0,0,0-.977-.316,1.351,1.351,0,0,0-.883.258.814.814,0,0,0-.312.656.694.694,0,0,0,.355.605,3.65,3.65,0,0,0,1.2.4,9.719,9.719,0,0,1,1.422.379,2.335,2.335,0,0,1,1.789,2.273,2.2,2.2,0,0,1-.992,1.871,4.274,4.274,0,0,1-2.562.715,4.462,4.462,0,0,1-1.887-.379A3.155,3.155,0,0,1,977.2,10.9a2.41,2.41,0,0,1-.469-1.426h2.141a1.175,1.175,0,0,0,.445.922,1.765,1.765,0,0,0,1.11.321,1.636,1.636,0,0,0,.98-.246.768.768,0,0,0,.332-.645" fill="#12263f"/>
        </g>
      </g>
    </g>
  </g>
</svg>
