<svg xmlns="http://www.w3.org/2000/svg" xmlns:xlink="http://www.w3.org/1999/xlink" width="60" height="60" viewBox="0 0 60 60">
  <defs>
    <clipPath id="clip-path">
      <circle id="Elipse_4802" data-name="Elipse 4802" cx="30" cy="30" r="30" transform="translate(390 4883.5)" fill="#ffc846"/>
    </clipPath>
    <clipPath id="clip-path-3">
      <rect id="Rectángulo_41533" data-name="Rectángulo 41533" width="39.288" height="52.179" fill="none"/>
    </clipPath>
    <clipPath id="clip-path-5">
      <rect id="Rectángulo_41528" data-name="Rectángulo 41528" width="2.756" height="32.15" fill="none"/>
    </clipPath>
    <clipPath id="clip-path-6">
      <rect id="Rectángulo_41529" data-name="Rectángulo 41529" width="2.756" height="32.15" fill="#9f4633"/>
    </clipPath>
    <clipPath id="clip-path-7">
      <rect id="Rectángulo_41530" data-name="Rectángulo 41530" width="2.757" height="32.145" fill="none"/>
    </clipPath>
  </defs>
  <g id="Grupo_150169" data-name="Grupo 150169" transform="translate(-390 -4883.5)">
    <g id="Enmascarar_grupo_63" data-name="Enmascarar grupo 63" clip-path="url(#clip-path)">
      <circle id="Elipse_4795" data-name="Elipse 4795" cx="30" cy="30" r="30" transform="translate(390 4883.5)" fill="#ffc846"/>
      <g id="Grupo_149785" data-name="Grupo 149785" transform="translate(400.356 4887.411)">
        <g id="Grupo_149784" data-name="Grupo 149784" clip-path="url(#clip-path-3)">
          <path id="Trazado_198132" data-name="Trazado 198132" d="M95.5,0V29.692l17.96,10.368V10.368Z" transform="translate(-74.176 0.001)" fill="#2f6e85"/>
          <g id="Grupo_149783" data-name="Grupo 149783">
            <g id="Grupo_149782" data-name="Grupo 149782" clip-path="url(#clip-path-3)">
              <path id="Trazado_198133" data-name="Trazado 198133" d="M95.245,11.489,77.36,1.207s-.135.514-1.461,1.542a10.057,10.057,0,0,1-3.815,1.407L90.456,14.682a5.536,5.536,0,0,0,3.139-.893,7.868,7.868,0,0,0,1.65-2.3" transform="translate(-55.987 -0.937)" fill="#fff"/>
              <path id="Trazado_198134" data-name="Trazado 198134" d="M90.016,53.753,72.056,43.385V13.692L90.017,24.06Z" transform="translate(-55.965 -10.634)" fill="#2f6e85"/>
              <path id="Trazado_198135" data-name="Trazado 198135" d="M157.3,76.02c-1.6,2.191-3.76,3.222-5.358,3.094q0-14.847,0-29.694c1.6.13,3.76-.9,5.357-3.092q0,14.846,0,29.692" transform="translate(-118.013 -35.983)" fill="#afafaf"/>
              <g id="Grupo_149772" data-name="Grupo 149772" transform="translate(36.532 10.345)" opacity="0.35" style="mix-blend-mode: multiply;isolation: isolate">
                <g id="Grupo_149771" data-name="Grupo 149771">
                  <g id="Grupo_149770" data-name="Grupo 149770" clip-path="url(#clip-path-5)">
                    <path id="Trazado_198136" data-name="Trazado 198136" d="M163.6,48.784q0,14.847,0,29.693a8.286,8.286,0,0,0,2.755-2.458q0-14.846,0-29.692a8.285,8.285,0,0,1-2.755,2.457" transform="translate(-163.596 -46.327)" fill="#2f6e85"/>
                  </g>
                </g>
              </g>
              <path id="Trazado_198137" data-name="Trazado 198137" d="M157.3,59.131c-1.6,2.191-3.76,3.222-5.357,3.092v-.4c1.6.129,3.76-.9,5.357-3.092Z" transform="translate(-118.013 -45.619)" fill="#f5ae00"/>
              <path id="Trazado_198138" data-name="Trazado 198138" d="M157.3,65.463c-1.6,2.191-3.76,3.222-5.357,3.092v-.4c1.6.13,3.76-.9,5.357-3.092v.4" transform="translate(-118.013 -50.537)" fill="#f5ae00"/>
              <path id="Trazado_198139" data-name="Trazado 198139" d="M157.3,104.247c-1.6,2.191-3.76,3.222-5.358,3.093v-.4c1.6.129,3.76-.9,5.358-3.093Z" transform="translate(-118.014 -80.661)" fill="#f5ae00"/>
              <path id="Trazado_198140" data-name="Trazado 198140" d="M157.3,110.58c-1.6,2.191-3.76,3.222-5.357,3.093v-.4c1.6.129,3.76-.9,5.357-3.093v.4" transform="translate(-118.014 -85.58)" fill="#f5ae00"/>
              <path id="Trazado_198141" data-name="Trazado 198141" d="M157.3,160.445c-1.6,2.191-3.76,3.222-5.357,3.093v-.4c1.6.129,3.76-.9,5.357-3.093Z" transform="translate(-118.015 -124.309)" fill="#f5ae00"/>
              <path id="Trazado_198142" data-name="Trazado 198142" d="M157.3,166.778c-1.6,2.191-3.76,3.222-5.357,3.093v-.4c1.6.129,3.76-.9,5.357-3.093v.4" transform="translate(-118.015 -129.228)" fill="#f5ae00"/>
              <path id="Trazado_198143" data-name="Trazado 198143" d="M89.5,53.8,71.542,43.437V13.744L89.5,24.112Z" transform="translate(-55.567 -10.675)" fill="#df0031"/>
              <path id="Trazado_198144" data-name="Trazado 198144" d="M71.286,25.233,53.4,14.951s-.135.514-1.461,1.542A10.057,10.057,0,0,1,48.125,17.9L66.5,28.426a5.536,5.536,0,0,0,3.139-.893,7.868,7.868,0,0,0,1.65-2.3" transform="translate(-37.379 -11.612)" fill="#fff"/>
              <path id="Trazado_198145" data-name="Trazado 198145" d="M66.056,67.5,48.1,57.129V27.436L66.057,37.8Z" transform="translate(-37.356 -21.309)" fill="#df0031"/>
              <path id="Trazado_198146" data-name="Trazado 198146" d="M133.34,89.763c-1.6,2.192-3.76,3.222-5.357,3.094q0-14.847,0-29.694c1.6.13,3.76-.9,5.358-3.092q0,14.846,0,29.692" transform="translate(-99.403 -46.657)" fill="#9f4633"/>
              <g id="Grupo_149775" data-name="Grupo 149775" transform="translate(31.181 13.414)" opacity="0.35" style="mix-blend-mode: multiply;isolation: isolate">
                <g id="Grupo_149774" data-name="Grupo 149774">
                  <g id="Grupo_149773" data-name="Grupo 149773" clip-path="url(#clip-path-6)">
                    <path id="Trazado_198147" data-name="Trazado 198147" d="M139.636,62.529q0,14.847,0,29.693a8.286,8.286,0,0,0,2.755-2.458q0-14.846,0-29.692a8.285,8.285,0,0,1-2.755,2.457" transform="translate(-139.636 -60.072)" fill="#9f4633"/>
                  </g>
                </g>
              </g>
              <path id="Trazado_198148" data-name="Trazado 198148" d="M133.34,72.875c-1.6,2.191-3.76,3.222-5.358,3.092v-.4c1.6.129,3.76-.9,5.358-3.092v.4" transform="translate(-99.403 -56.294)" fill="#f5ae00"/>
              <path id="Trazado_198149" data-name="Trazado 198149" d="M133.34,79.207c-1.6,2.191-3.76,3.222-5.358,3.092v-.4c1.6.13,3.76-.9,5.358-3.092v.4" transform="translate(-99.403 -61.212)" fill="#f5ae00"/>
              <path id="Trazado_198150" data-name="Trazado 198150" d="M133.341,117.991c-1.6,2.191-3.76,3.222-5.358,3.093v-.4c1.6.129,3.76-.9,5.358-3.093Z" transform="translate(-99.404 -91.336)" fill="#f5ae00"/>
              <path id="Trazado_198151" data-name="Trazado 198151" d="M133.341,124.324c-1.6,2.191-3.76,3.222-5.357,3.093v-.4c1.6.129,3.76-.9,5.357-3.093v.4" transform="translate(-99.405 -96.254)" fill="#f5ae00"/>
              <path id="Trazado_198152" data-name="Trazado 198152" d="M133.342,174.19c-1.6,2.191-3.76,3.223-5.357,3.093v-.4c1.6.129,3.76-.9,5.357-3.093Z" transform="translate(-99.405 -134.985)" fill="#f5ae00"/>
              <path id="Trazado_198153" data-name="Trazado 198153" d="M133.344,180.522c-1.6,2.191-3.76,3.223-5.358,3.093v-.4c1.6.129,3.76-.9,5.358-3.093Z" transform="translate(-99.406 -139.903)" fill="#f5ae00"/>
              <path id="Trazado_198154" data-name="Trazado 198154" d="M65.521,67.318,47.561,56.95V27.257l17.96,10.368Z" transform="translate(-36.941 -21.17)" fill="#25b1b6"/>
              <path id="Trazado_198155" data-name="Trazado 198155" d="M47.262,38.873,29.377,28.591s-.135.514-1.461,1.542A10.057,10.057,0,0,1,24.1,31.54L42.473,42.066a5.536,5.536,0,0,0,3.139-.893,7.868,7.868,0,0,0,1.65-2.3" transform="translate(-18.719 -22.207)" fill="#fff"/>
              <path id="Trazado_198156" data-name="Trazado 198156" d="M42.032,81.137,24.073,70.769V41.076l17.96,10.368Z" transform="translate(-18.697 -31.904)" fill="#25b1b6"/>
              <path id="Trazado_198157" data-name="Trazado 198157" d="M109.356,103.277c-1.6,2.192-3.759,3.225-5.358,3.1q0-14.847,0-29.694c1.6.126,3.761-.907,5.359-3.1q0,14.846,0,29.692" transform="translate(-80.773 -57.153)" fill="#f0ddd8"/>
              <g id="Grupo_149778" data-name="Grupo 149778" transform="translate(25.817 16.466)" opacity="0.35" style="mix-blend-mode: multiply;isolation: isolate">
                <g id="Grupo_149777" data-name="Grupo 149777">
                  <g id="Grupo_149776" data-name="Grupo 149776" clip-path="url(#clip-path-7)">
                    <path id="Trazado_198158" data-name="Trazado 198158" d="M115.612,76.192q0,14.847,0,29.693a8.294,8.294,0,0,0,2.756-2.453q0-14.846,0-29.692a8.291,8.291,0,0,1-2.756,2.453" transform="translate(-115.612 -73.739)" fill="#25b1b6"/>
                  </g>
                </g>
              </g>
              <path id="Trazado_198159" data-name="Trazado 198159" d="M109.317,86.542c-1.6,2.187-3.761,3.216-5.358,3.086v-.4c1.6.13,3.759-.9,5.358-3.086v.4" transform="translate(-80.745 -66.909)" fill="#f5ae00"/>
              <path id="Trazado_198160" data-name="Trazado 198160" d="M109.317,92.874c-1.6,2.187-3.761,3.216-5.358,3.086v-.4c1.6.13,3.759-.9,5.358-3.086v.4" transform="translate(-80.745 -71.827)" fill="#f5ae00"/>
              <path id="Trazado_198161" data-name="Trazado 198161" d="M109.319,131.659c-1.6,2.187-3.761,3.216-5.358,3.087v-.4c1.6.129,3.759-.9,5.358-3.087v.4" transform="translate(-80.746 -101.951)" fill="#f5ae00"/>
              <path id="Trazado_198162" data-name="Trazado 198162" d="M109.319,137.991c-1.6,2.187-3.761,3.216-5.358,3.087v-.4c1.6.13,3.759-.9,5.358-3.086v.4" transform="translate(-80.746 -106.87)" fill="#f5ae00"/>
              <path id="Trazado_198163" data-name="Trazado 198163" d="M109.321,187.857c-1.6,2.187-3.761,3.216-5.358,3.087v-.4c1.6.129,3.759-.9,5.358-3.087Z" transform="translate(-80.748 -145.6)" fill="#f5ae00"/>
              <path id="Trazado_198164" data-name="Trazado 198164" d="M109.321,194.19c-1.6,2.187-3.761,3.216-5.358,3.087v-.4c1.6.129,3.759-.9,5.358-3.087Z" transform="translate(-80.748 -150.519)" fill="#f5ae00"/>
              <path id="Trazado_198165" data-name="Trazado 198165" d="M41.406,80.531,23.447,70.163V40.47l17.96,10.368Z" transform="translate(-18.211 -31.433)" fill="#542c37"/>
              <path id="Trazado_198166" data-name="Trazado 198166" d="M23.19,51.96,5.305,41.678s-.135.514-1.461,1.542A10.057,10.057,0,0,1,.029,44.627L18.4,55.153a5.536,5.536,0,0,0,3.139-.893,7.869,7.869,0,0,0,1.65-2.3" transform="translate(-0.023 -32.371)" fill="#fff"/>
              <path id="Trazado_198167" data-name="Trazado 198167" d="M17.96,94.224,0,83.855V54.162l17.96,10.368Z" transform="translate(0 -42.068)" fill="#869d69"/>
              <path id="Trazado_198168" data-name="Trazado 198168" d="M85.244,116.489c-1.6,2.192-3.76,3.223-5.357,3.094q0-14.847,0-29.694c1.6.13,3.76-.9,5.357-3.092q0,14.846,0,29.692" transform="translate(-62.047 -67.415)" fill="#789357"/>
              <g id="Grupo_149781" data-name="Grupo 149781" transform="translate(20.441 19.382)" opacity="0.35" style="mix-blend-mode: multiply;isolation: isolate">
                <g id="Grupo_149780" data-name="Grupo 149780">
                  <g id="Grupo_149779" data-name="Grupo 149779" clip-path="url(#clip-path-5)">
                    <path id="Trazado_198169" data-name="Trazado 198169" d="M91.541,89.255q0,14.847,0,29.693A8.286,8.286,0,0,0,94.3,116.49q0-14.846,0-29.692a8.285,8.285,0,0,1-2.755,2.457" transform="translate(-91.541 -86.798)" fill="#542c37"/>
                  </g>
                </g>
              </g>
              <path id="Trazado_198170" data-name="Trazado 198170" d="M85.243,99.6c-1.6,2.191-3.76,3.222-5.357,3.092v-.4c1.6.129,3.76-.9,5.357-3.092v.4" transform="translate(-62.047 -77.052)" fill="#f5ae00"/>
              <path id="Trazado_198171" data-name="Trazado 198171" d="M85.244,105.933c-1.6,2.191-3.76,3.222-5.357,3.092v-.4c1.6.13,3.76-.9,5.357-3.092v.4" transform="translate(-62.048 -81.97)" fill="#f5ae00"/>
              <path id="Trazado_198172" data-name="Trazado 198172" d="M85.245,144.718c-1.6,2.191-3.76,3.222-5.357,3.093v-.4c1.6.129,3.76-.9,5.357-3.093Z" transform="translate(-62.049 -112.094)" fill="#f5ae00"/>
              <path id="Trazado_198173" data-name="Trazado 198173" d="M85.245,151.05c-1.6,2.191-3.76,3.222-5.357,3.093v-.4c1.6.129,3.76-.9,5.357-3.093v.4" transform="translate(-62.049 -117.012)" fill="#f5ae00"/>
              <path id="Trazado_198174" data-name="Trazado 198174" d="M85.247,200.916c-1.6,2.191-3.76,3.222-5.357,3.093v-.4c1.6.129,3.76-.9,5.357-3.093Z" transform="translate(-62.05 -155.743)" fill="#f5ae00"/>
              <path id="Trazado_198175" data-name="Trazado 198175" d="M85.247,207.248c-1.6,2.191-3.76,3.223-5.357,3.093v-.4c1.6.129,3.76-.9,5.357-3.093Z" transform="translate(-62.05 -160.661)" fill="#f5ae00"/>
            </g>
          </g>
        </g>
      </g>
    </g>
  </g>
</svg>
