<svg xmlns="http://www.w3.org/2000/svg" xmlns:xlink="http://www.w3.org/1999/xlink" width="338.132" height="158.602" viewBox="0 0 338.132 158.602">
  <defs>
    <clipPath id="clip-path">
      <rect id="Rectángulo_41931" data-name="Rectángulo 41931" width="338.132" height="158.602" fill="none"/>
    </clipPath>
    <clipPath id="clip-path-2">
      <rect id="Rectángulo_41930" data-name="Rectángulo 41930" width="338.132" height="158.601" fill="none"/>
    </clipPath>
    <clipPath id="clip-path-3">
      <rect id="Rectángulo_41896" data-name="Rectángulo 41896" width="4.782" height="8.412" fill="none"/>
    </clipPath>
    <clipPath id="clip-path-4">
      <rect id="Rectángulo_41895" data-name="Rectángulo 41895" width="4.778" height="8.412" fill="none"/>
    </clipPath>
    <clipPath id="clip-path-5">
      <rect id="Rectángulo_41898" data-name="Rectángulo 41898" width="4.365" height="4.147" fill="none"/>
    </clipPath>
    <clipPath id="clip-path-6">
      <rect id="Rectángulo_41897" data-name="Rectángulo 41897" width="4.364" height="4.147" fill="none"/>
    </clipPath>
    <clipPath id="clip-path-7">
      <rect id="Rectángulo_41900" data-name="Rectángulo 41900" width="2.796" height="6.767" fill="none"/>
    </clipPath>
    <clipPath id="clip-path-8">
      <rect id="Rectángulo_41899" data-name="Rectángulo 41899" width="2.796" height="6.766" fill="none"/>
    </clipPath>
    <clipPath id="clip-path-9">
      <rect id="Rectángulo_41902" data-name="Rectángulo 41902" width="14.023" height="10.957" fill="none"/>
    </clipPath>
    <clipPath id="clip-path-10">
      <rect id="Rectángulo_41901" data-name="Rectángulo 41901" width="14.023" height="10.954" fill="none"/>
    </clipPath>
    <clipPath id="clip-path-11">
      <rect id="Rectángulo_41904" data-name="Rectángulo 41904" width="10.997" height="5.947" fill="none"/>
    </clipPath>
    <clipPath id="clip-path-12">
      <rect id="Rectángulo_41903" data-name="Rectángulo 41903" width="10.996" height="5.947" fill="none"/>
    </clipPath>
    <clipPath id="clip-path-13">
      <rect id="Rectángulo_41906" data-name="Rectángulo 41906" width="9.359" height="1.695" fill="none"/>
    </clipPath>
    <clipPath id="clip-path-14">
      <rect id="Rectángulo_41905" data-name="Rectángulo 41905" width="9.359" height="1.691" fill="none"/>
    </clipPath>
    <clipPath id="clip-path-15">
      <rect id="Rectángulo_41908" data-name="Rectángulo 41908" width="13.644" height="14.354" fill="none"/>
    </clipPath>
    <clipPath id="clip-path-16">
      <rect id="Rectángulo_41907" data-name="Rectángulo 41907" width="13.643" height="14.354" fill="none"/>
    </clipPath>
    <clipPath id="clip-path-17">
      <rect id="Rectángulo_41910" data-name="Rectángulo 41910" width="3.172" height="5.459" fill="none"/>
    </clipPath>
    <clipPath id="clip-path-18">
      <rect id="Rectángulo_41909" data-name="Rectángulo 41909" width="3.171" height="5.459" fill="none"/>
    </clipPath>
    <clipPath id="clip-path-19">
      <rect id="Rectángulo_41912" data-name="Rectángulo 41912" width="1.839" height="2.611" fill="none"/>
    </clipPath>
    <clipPath id="clip-path-20">
      <rect id="Rectángulo_41911" data-name="Rectángulo 41911" width="1.838" height="2.608" fill="none"/>
    </clipPath>
    <clipPath id="clip-path-21">
      <rect id="Rectángulo_41914" data-name="Rectángulo 41914" width="18.714" height="20.118" fill="none"/>
    </clipPath>
    <clipPath id="clip-path-22">
      <rect id="Rectángulo_41913" data-name="Rectángulo 41913" width="18.714" height="20.113" fill="none"/>
    </clipPath>
    <clipPath id="clip-path-23">
      <rect id="Rectángulo_41916" data-name="Rectángulo 41916" width="19.133" height="8.257" fill="none"/>
    </clipPath>
    <clipPath id="clip-path-24">
      <rect id="Rectángulo_41915" data-name="Rectángulo 41915" width="19.127" height="8.254" fill="none"/>
    </clipPath>
    <clipPath id="clip-path-25">
      <rect id="Rectángulo_41929" data-name="Rectángulo 41929" width="18.262" height="93.522" fill="none"/>
    </clipPath>
    <clipPath id="clip-path-26">
      <rect id="Rectángulo_41928" data-name="Rectángulo 41928" width="18.262" height="93.521" fill="none"/>
    </clipPath>
  </defs>
  <g id="Grupo_150121" data-name="Grupo 150121" transform="translate(35.768 -1)">
    <g id="Grupo_150120" data-name="Grupo 150120" transform="translate(-35.768 1)" clip-path="url(#clip-path)">
      <g id="Grupo_150119" data-name="Grupo 150119" transform="translate(0 0.001)">
        <g id="Grupo_150118" data-name="Grupo 150118" clip-path="url(#clip-path-2)">
          <path id="Trazado_202325" data-name="Trazado 202325" d="M140.556,144.861c1.761-7.113,2.164-14.637,6.445-21.283,3.5-5.432,7.7-8.3,14.01-9.364,3.31-.557,9.3,1.254,12.028.287,4.008-1.423,5.448-9.984,9.253-13.32,7.74-6.779,17.315-6.879,25.575-2.375,2.819-9.283,13.037-13.615,22.4-12.73,5.224.491,5.87,3.931,9.393,5.494,1.617.716,2.429-.491,4.212-.114,5.8,1.228,10.684,4.3,13.355,9.951.843,1.783.378,7.479,1.524,8.61,1.255,1.238,6.428,1.065,8.1,1.749a19.986,19.986,0,0,1,11.4,13.077c2.375,8.085,1.462,2.73,9.384,7.05,5.789,3.156,6.174,9.406,10.318,12.66,3.451,2.707,6.831,2.308,8.142,8.134.714,3.174.19,7.37-.328,10.439a761.958,761.958,0,0,1-83.348-.284c-20.077-1.236-40.416.416-60.369-1.258-10.737-.9-21.378-3.467-32.07-3.384.857-5.955,4.892-13.719,10.57-13.343" transform="translate(5.847 -15.571)" fill="#56a254"/>
          <path id="Trazado_202326" data-name="Trazado 202326" d="M15.2,167.219c.283-5.685-1.217-18.752,9.926-17.914C22.37,135.571,34.31,127.446,47.641,127.8c.138-9.4,4.923-20.361,14.515-23.8,5.17-1.853,12.119-4.081,17.278-1.851,3.7,1.6,5.066,5.7,7.563,7.132,2.272,1.3,1.654.057,4.712.2,8.844.414,13.554,2.755,16.846,10.482,8.675-3.418,22.221,2.361,25.3,11.537,5.271-2.187,11.174-.124,15.085,4.232,1.956,2.18,5.427,5.539,6.856,7.84,2.743,4.415,4.094,16.874-.809,19.5-3.735,2-10.916.949-15.044,1.116-11.278.455-22.463.236-33.769-.231-20.13-.832-40.534-1.392-60.557,0-8.317.573-21.554-.338-30.424,3.264" transform="translate(26.638 -18.333)" fill="#73b88d"/>
          <path id="Trazado_202327" data-name="Trazado 202327" d="M338.132,179.064c0,5.6-75.694,10.134-169.066,10.134S0,184.661,0,179.064,75.694,168.93,169.067,168.93s169.066,4.537,169.066,10.134" transform="translate(0 -30.598)" fill="#c1722e"/>
          <path id="Trazado_202328" data-name="Trazado 202328" d="M72.4,38.635h59.5c1.736-5.014-5.047-7.671-8.989-6.261-.832-5.972-3.314-11.409-9.624-8.117-1.76-3.288-2.357-6.5-5.853-8.926-5.409-3.746-9.393-.747-13.229,2.981-2.471,2.4-3.131.663-6.655,1.146-5.92.81-6.621,6.142-8.353,10.717-2.507-.2-4.184-.5-6.02,1.6-1.392,1.6-2.19,4.887-.779,6.854" transform="translate(16.41 -2.466)" fill="#d5d5d5"/>
          <path id="Trazado_202329" data-name="Trazado 202329" d="M236.266,21.877h52.019c1.517-4.383-4.412-6.707-7.861-5.474-.727-5.221-2.9-9.975-8.414-7.1-1.539-2.873-2.061-5.685-5.117-7.8-4.729-3.276-8.213-.655-11.565,2.606-2.16,2.1-2.737.58-5.819,1-5.175.708-5.788,5.368-7.3,9.37-2.191-.174-3.658-.433-5.264,1.4-1.221,1.392-1.915,4.273-.681,5.992" transform="translate(-13.285 -0.001)" fill="#d5d5d5"/>
          <path id="Trazado_202330" data-name="Trazado 202330" d="M246.8,176.2c0,1.6-8.965,2.9-20.024,2.9s-20.023-1.3-20.023-2.9,8.964-2.9,20.023-2.9,20.024,1.3,20.024,2.9" transform="translate(-8.058 -31.389)" fill="#a44a0d"/>
          <path id="Trazado_202331" data-name="Trazado 202331" d="M239.357,30.36a1.537,1.537,0,0,0,.154.082,1.11,1.11,0,0,1-.154-.082" transform="translate(-13.963 -5.5)" fill="#9e9d9d"/>
          <path id="Trazado_202332" data-name="Trazado 202332" d="M238.366,29.627c.058.058.116.111.18.164-.064-.052-.122-.106-.18-.164" transform="translate(-13.784 -5.367)" fill="#9e9d9d"/>
          <path id="Trazado_202333" data-name="Trazado 202333" d="M237.79,28.93a1.738,1.738,0,0,0,.138.191,1.984,1.984,0,0,1-.138-.191" transform="translate(-13.679 -5.241)" fill="#9e9d9d"/>
          <path id="Trazado_202334" data-name="Trazado 202334" d="M237.616,28.645c.037.069.082.138.122.2-.043-.064-.082-.133-.122-.2" transform="translate(-13.648 -5.189)" fill="#9e9d9d"/>
          <path id="Trazado_202335" data-name="Trazado 202335" d="M252.2,117.182l-.246,2.15L250.461,132.5l-.074.651-.082.754a11.559,11.559,0,0,1-6.9.074c-.983-.34-1.44-.454-1.44-.454-.082-.38-.143-1.277-.2-1.9-.025-.266-.044-.552-.069-.853-.256-3.792-.246-10.163-.217-13.763.015-1.548.034-2.584.034-2.678a28.91,28.91,0,0,0,10.69,2.851" transform="translate(-14.345 -20.709)" fill="#859089"/>
          <path id="Trazado_202336" data-name="Trazado 202336" d="M252.2,117.183l-.246,2.15a14.517,14.517,0,0,1-5.732-.32,13.869,13.869,0,0,1-4.749-2c.015-1.548.034-2.584.034-2.678a28.91,28.91,0,0,0,10.69,2.851" transform="translate(-14.347 -20.709)" fill="#676f6a"/>
          <path id="Trazado_202337" data-name="Trazado 202337" d="M250.438,136.789l-.082.754a11.558,11.558,0,0,1-6.9.074c-.983-.34-1.44-.454-1.44-.454-.082-.38-.143-1.277-.2-1.9-.025-.266-.044-.552-.069-.853a10.533,10.533,0,0,0,2.515,1.622,11.654,11.654,0,0,0,4.354.888,8.929,8.929,0,0,0,1.146,0c.207-.02.444-.1.676-.133" transform="translate(-14.396 -24.345)" fill="#676f6a"/>
          <path id="Trazado_202338" data-name="Trazado 202338" d="M214.809,113.8l-.129-1.775-.769-10.5-.848-11.563c-.31.124-10.858,4.31-2.593,25.015.143.37.3.744.459,1.124l4.019-.409Zm3.1-10.966a2.42,2.42,0,0,1,1.524-2.249l2.924-1.159a20.545,20.545,0,0,0-6.4-6.075l.276,5.557.2,4,.617,12.564,3.343-.35-2.431-11.792a2.753,2.753,0,0,1-.049-.491" transform="translate(-8.16 -16.295)" fill="#859089"/>
          <path id="Trazado_202339" data-name="Trazado 202339" d="M219.931,104.689l2.43,11.792-3.343.35-.617-12.564-.2-4a33.363,33.363,0,0,1,3.318-2.805,19.975,19.975,0,0,1,2.805,3.324l-2.924,1.159a2.42,2.42,0,0,0-1.524,2.249,2.754,2.754,0,0,0,.05.491" transform="translate(-10.132 -17.654)" fill="#676f6a"/>
          <path id="Trazado_202340" data-name="Trazado 202340" d="M215.643,120.965l-4.019.409c-.158-.38-.315-.754-.459-1.124a16.3,16.3,0,0,1,1.7-.592c.834-.188,1.676-.36,2.51-.547a.939.939,0,0,0,.133-.034Z" transform="translate(-8.857 -21.569)" fill="#676f6a"/>
          <path id="Trazado_202341" data-name="Trazado 202341" d="M215.9,148.783c-4.924,2.486-8.063,2.417-9.382,2.2a1.181,1.181,0,0,1-.933-.769s-.848,1.866,1.494,2.189a17.767,17.767,0,0,0,3.8-.434,15.512,15.512,0,0,0,4.383-1.633,11.923,11.923,0,0,0,1.06-.684l-.075-1.024c-.116.048-.238.1-.35.154m5.21-1.548a.9.9,0,0,1-.679.5c-.8.122-1.8.328-2.62.509l.069,1.405s.879.074,1.951.074c.307,0,.636-.006.959-.021a.914.914,0,0,0,.87-.933,2.545,2.545,0,0,0-.546-1.537" transform="translate(-7.82 -26.669)" fill="#b36504"/>
          <path id="Trazado_202342" data-name="Trazado 202342" d="M221.181,141.806l-1.07-3.876a10,10,0,0,1-.2-1.322,10.5,10.5,0,0,1-.049-1.178l.2-14.74-3.343.35.853,17.273.251,5.129c.824-.183,1.824-.385,2.62-.508a.9.9,0,0,0,.759-1.023.788.788,0,0,0-.022-.106m-5.222-2.18-1.341-18.368-4.019.409L212.24,138a4.208,4.208,0,0,1-2.4,4.231l-3.634,1.7a1.188,1.188,0,0,0,.32,2.249c1.124.183,3.57.261,7.313-1.258.651-.261,1.341-.573,2.071-.942a3.235,3.235,0,0,1,.35-.153Z" transform="translate(-7.836 -21.861)" fill="#fbb800"/>
          <path id="Trazado_202343" data-name="Trazado 202343" d="M217.358,143.814l.305,4.2a3.148,3.148,0,0,0-.35.153c-.73.37-1.42.68-2.071.942l-.207.059c-1,.291-2.086.527-1.731-.814a5.718,5.718,0,0,1,1.982-2.653q1.028-.954,2.071-1.888" transform="translate(-9.232 -26.049)" fill="#ed8a00"/>
          <path id="Trazado_202344" data-name="Trazado 202344" d="M223.8,145.953a.908.908,0,0,1-.68.5c-.8.124-1.8.328-2.62.508l-.251-5.129c.522-.355,1.065-.685,1.556-1.06.1-.082.463-.39.784-.646a9.991,9.991,0,0,0,.2,1.322l1.07,3.876a.9.9,0,0,1-.054.626" transform="translate(-10.501 -25.381)" fill="#ed8a00"/>
          <path id="Trazado_202345" data-name="Trazado 202345" d="M246.46,162.485c0,.082,0,.153,0,.227a13.824,13.824,0,0,1,1.563,2.83,1.854,1.854,0,0,1,.082,1.173,1.8,1.8,0,0,1-1,1.232c-1.987.912-5.513.286-5.513.286a1.906,1.906,0,0,1-1.332-1l-.015-.044-.207-.468,0-.01a4.642,4.642,0,0,1-.227-1.317,2.941,2.941,0,0,0-.158-.824c-.749-2.145.409-7.392.409-7.392V137.317l3.018.737a11.22,11.22,0,0,0,6.854.02l1.31-.217s-1.218,4.778-2.431,10.3c-1.146,5.271-2.293,11.228-2.342,14.33" transform="translate(-13.969 -24.872)" fill="#fbb800"/>
          <path id="Trazado_202346" data-name="Trazado 202346" d="M248.229,173.215a1.4,1.4,0,0,1-.2,1.973c-.02.016-.04.032-.061.047-2.9,1.856-7.155.419-7.155.419-1.14-.541-.662-2.439-.662-2.439l.006.011a2.487,2.487,0,0,0,.206.472l.016.043a1.9,1.9,0,0,0,1.331,1s3.521.626,5.513-.286a1.79,1.79,0,0,0,1-1.235Z" transform="translate(-14.089 -31.374)" fill="#b36504"/>
          <path id="Trazado_202347" data-name="Trazado 202347" d="M250.621,147.544c-1.146,5.271-2.845,13.692-2.894,16.793a1.134,1.134,0,0,0-.1-.069,3.642,3.642,0,0,1-.937-1.006c-.573-.848-.2-1.647-.1-2.6.153-1.469,3.7-12.463,4.033-13.114" transform="translate(-15.234 -26.725)" fill="#ed8a00"/>
          <path id="Trazado_202348" data-name="Trazado 202348" d="M247.656,168.176a.266.266,0,0,1-.216-.111,12.437,12.437,0,0,0-1.333-1.577.265.265,0,1,1,.364-.386l.011.011a13.023,13.023,0,0,1,1.392,1.645.265.265,0,0,1-.216.418" transform="translate(-15.171 -30.073)" fill="#b36504"/>
          <path id="Trazado_202349" data-name="Trazado 202349" d="M245.4,32.9c-.491-.138-.779-.2-.779-.2l.039.335s.31,4.817-5.232,5.522a2.708,2.708,0,0,1-.346.02c-.834-.01-3.782-.315-4.117-4.354-.562.059-1.11.129-1.632.217a35.9,35.9,0,0,1-2.12,6.987c.246.054,7.7,1.731,13.763-.31A31,31,0,0,1,245.4,32.9m1.756.547a58.6,58.6,0,0,1-.232,7.042s.518,1.006.991,2.234a11.917,11.917,0,0,1,.725,2.62,2.6,2.6,0,0,1,.178-.315,8.491,8.491,0,0,1,.814-1.051,11.531,11.531,0,0,1,1.9-1.7,6.65,6.65,0,0,1,3.117-1.415c.459-.064.917-.1,1.376-.129V40.7c-.888-3.9-5.784-6.183-8.866-7.254M217.777,45.986a9.3,9.3,0,0,1,1.42.36,9.755,9.755,0,0,1,4.478,2.784,6.4,6.4,0,0,1,.991,1.544,5.706,5.706,0,0,0,.573,1.051,2.49,2.49,0,0,0,1.129.983l.192.01a36.629,36.629,0,0,1,1.937-9.759c.414-1.173.72-1.844.72-1.844l.044.01A44.143,44.143,0,0,1,231.53,34.8a19.777,19.777,0,0,0-13.752,11.178m37.254-2.027a.84.84,0,0,1-.824-.237c-.281-.261-.459-.552-.883-.646-.518-.119-.942.31-1.351.592a7.139,7.139,0,0,0-1.178,1.1c-.164.178-.32.365-.473.542a3.81,3.81,0,0,0-.72,1.237,4.212,4.212,0,0,1-.212.71l-.01.015c.049.029.1.059.158.1a2.382,2.382,0,0,1,.769,1.392l.069.025a2.933,2.933,0,0,1,.395-.853,1.064,1.064,0,0,1,.834-.483v0c.473-.582.839-1.247,1.366-1.824.082-.093.173-.188.266-.276a8.341,8.341,0,0,1,1.81-1.361Zm2.524,1.608c-.271-.715-1.435-.573-1.978-.375a6.007,6.007,0,0,0-1.124.567,5.938,5.938,0,0,0-1.938,2.051l-.02.015a1.715,1.715,0,0,1,.35.789,5,5,0,0,1,.088.976c.015,0,.029,0,.049.01.4-.7.983-1.49,1.612-1.632l-.015-.082a4.068,4.068,0,0,1,2.653-2.2,1.833,1.833,0,0,1,.328-.044Z" transform="translate(-10.054 -5.924)" fill="#fff"/>
          <path id="Trazado_202350" data-name="Trazado 202350" d="M229.8,45.233a36.63,36.63,0,0,0-1.938,9.759l-.192-.01A2.49,2.49,0,0,1,226.541,54a5.707,5.707,0,0,1-.573-1.051,6.4,6.4,0,0,0-.991-1.544,1.894,1.894,0,0,1,.251-.335A4.4,4.4,0,0,0,226.6,47.8c.015-.4-.124-1.056.143-1.392.35-.449.582-.114,1.056-.044,1.129.158,1.544-.468,2-1.124" transform="translate(-11.359 -8.194)" fill="#e5e5e5"/>
          <path id="Trazado_202351" data-name="Trazado 202351" d="M255.394,45.546c-.2-.143-.508-.39-.819-.6a11.917,11.917,0,0,1,.725,2.62,2.6,2.6,0,0,1,.178-.315,8.484,8.484,0,0,1,.813-1.051c-.3-.222-.6-.444-.9-.655M263.9,47.9c-.051,0-.1-.006-.153,0-.863.029-1.751.1-2.628.074a5.938,5.938,0,0,0-1.938,2.051l-.02.015a1.716,1.716,0,0,1,.35.789,5,5,0,0,1,.088.976c.015,0,.03,0,.049.01.4-.7.983-1.49,1.612-1.632l-.015-.082a4.07,4.07,0,0,1,2.653-2.2m-6.079-.7c-.119-.069-.246-.138-.36-.212-.164.178-.32.365-.472.542a3.8,3.8,0,0,0-.721,1.237,4.139,4.139,0,0,1-.212.71l-.01.015c.05.029.1.059.158.1a2.374,2.374,0,0,1,.769,1.392l.069.025a2.927,2.927,0,0,1,.4-.847,1.064,1.064,0,0,1,.834-.483v-.008c.474-.582.839-1.247,1.367-1.824a5.728,5.728,0,0,1-1.815-.636" transform="translate(-16.72 -8.141)" fill="#e5e5e5"/>
          <path id="Trazado_202352" data-name="Trazado 202352" d="M237.6,39.763c.95,1.859,4.394,3.22,6.336,2.432a6.3,6.3,0,0,1-4.1-1.256,17.289,17.289,0,0,1-2.394-2.347,2.309,2.309,0,0,0,.157,1.171" transform="translate(-13.613 -6.991)" fill="#e5e5e5"/>
          <path id="Trazado_202353" data-name="Trazado 202353" d="M250.961,41.165a31.009,31.009,0,0,1,.424-8.216c.44.122,1.049.3,1.754.546a58.762,58.762,0,0,1-.233,7.042c-.175,1.431-.467,2.528-.954,2.581,0,0-.7.038-.991-1.955" transform="translate(-16.043 -5.969)" fill="#d5aa7a"/>
          <path id="Trazado_202354" data-name="Trazado 202354" d="M247.155,47.289a26.017,26.017,0,0,1-3.89.875c-5.676.811-8.178-1.1-8.178-1.1s-1.993,6.779,4.527,7.065l.069-.043-.875-1.479a1.286,1.286,0,0,1,2.227-1.288l1.3,2.211c.032-.011.069-.027.1-.038l-.011-2.729a1.289,1.289,0,0,1,1.033-1.256,1.384,1.384,0,0,1,.26-.027A1.294,1.294,0,0,1,245,50.771l0,1.914q.409-.112.811-.207c1.744-1.934,1.336-5.189,1.336-5.189" transform="translate(-13.138 -8.525)" fill="#ffe0bb"/>
          <path id="Trazado_202355" data-name="Trazado 202355" d="M234.03,35.192q.867-.215,1.8-.366a35.289,35.289,0,0,1-2.12,6.987H233.7c-1.119,2.375-1.834,1.807-1.834,1.807-.387-.2-.35-1.033-.106-2.1a43.968,43.968,0,0,1,2.269-6.323" transform="translate(-12.554 -6.309)" fill="#d5aa7a"/>
          <path id="Trazado_202356" data-name="Trazado 202356" d="M252.238,78.42c-.491,11.825-4.369,25.7-4.369,25.7a28.91,28.91,0,0,1-10.69-2.851,38.107,38.107,0,0,1-12.559-9.852c-.133-.217-.271-.429-.409-.636a20.747,20.747,0,0,0-6.4-6.075l-.271-5.513a20.193,20.193,0,0,0,6.736-8.388,28.683,28.683,0,0,0,2.25-8.318c.082-.7.129-1.277.148-1.686a8.007,8.007,0,0,0-.039-1.237,29.941,29.941,0,0,1-.119-5.119,35.238,35.238,0,0,1,2.658-11.6l.044.01c-.246,1.075-.281,1.9.109,2.105,0,0,.715.567,1.834-1.8h0c.246.054,7.7,1.731,13.762-.31.281,1.923.947,1.958.991,1.958.491-.054.779-1.146.956-2.584a18.438,18.438,0,0,1,1.72,4.857c-.276.617-.232,1.213-.473,1.839l.029.049c-.37.237-.328.858-.328,1.253q0,.318.015.636l.025.346a3.315,3.315,0,0,0-.5-.315,2.659,2.659,0,0,0-2.89.36c-.6.1-1.188.222-1.78.36,1.741-1.933,1.336-5.188,1.336-5.188a26.013,26.013,0,0,1-3.89.873c-5.681.814-8.181-1.1-8.181-1.1s-1.992,6.78,4.527,7.066l.069-.039.276.468c-3.456,1.72-5.809,4.058-5.232,6.534a3.4,3.4,0,0,0,1.036,1.726,4.719,4.719,0,0,0,1.006.705l4.4,5.025.237.088a.806.806,0,0,0,.328.839s-.991,2.417,5.429,3.319l0,.015s0,2.973,8.1.346l.01.039a46.1,46.1,0,0,1,.1,6.11" transform="translate(-10.011 -7.648)" fill="#ebcba3"/>
          <path id="Trazado_202357" data-name="Trazado 202357" d="M224.974,84.02a2.315,2.315,0,0,1,1.72.465,7.888,7.888,0,0,1,1.387,1.19,19.209,19.209,0,0,1,2.129,2.959c1.256,2.077,2.121,4.374,3.2,6.486a23.33,23.33,0,0,0,4.135,5.8,17.014,17.014,0,0,0,2.743,2.293,12.321,12.321,0,0,0,3.208,1.6,13.857,13.857,0,0,1-6.236-3.6,22.536,22.536,0,0,1-4.32-5.852c-.541-1.089-1.026-2.211-1.5-3.3s-1.024-2.168-1.582-3.227a19.187,19.187,0,0,0-1.965-2.989,7.656,7.656,0,0,0-1.272-1.246,3.362,3.362,0,0,0-.768-.445,1.556,1.556,0,0,0-.871-.134" transform="translate(-11.358 -15.215)" fill="#d5aa7a"/>
          <path id="Trazado_202358" data-name="Trazado 202358" d="M231.207,85.69a21.984,21.984,0,0,0,1.883,1.78,23.4,23.4,0,0,0,2.047,1.576,20.759,20.759,0,0,0,4.525,2.4,15.925,15.925,0,0,0,4.989,1.031,13.7,13.7,0,0,0,2.564-.12,18.087,18.087,0,0,0,2.539-.506,13.647,13.647,0,0,1-5.11,1.033,14.286,14.286,0,0,1-5.168-.942,17.845,17.845,0,0,1-4.578-2.566,18.6,18.6,0,0,1-3.69-3.685" transform="translate(-12.487 -15.521)" fill="#d5aa7a"/>
          <path id="Trazado_202359" data-name="Trazado 202359" d="M255.372,82.781a10.38,10.38,0,0,1-5.7-.064,33.053,33.053,0,0,1-5.633-2.331,16.828,16.828,0,0,1-3.525-2.732c-.291-.261-2.056-1.474-1.277-1.982.328-.217,1.124.463,1.529.468-.557-.68-.9-1.469-1.529-2.1-1.3-1.322-3-2.653-3.91-4.31-.385-.71-.749-2.367-.2-3.082a.921.921,0,0,1,.646-.35A4.717,4.717,0,0,0,236.78,67l4.4,5.025.237.088a.806.806,0,0,0,.328.839s-.991,2.417,5.429,3.319l0,.015s0,2.973,8.1.345l.01.039a46.091,46.091,0,0,1,.1,6.11" transform="translate(-13.147 -12.009)" fill="#d5aa7a"/>
          <path id="Trazado_202360" data-name="Trazado 202360" d="M238.942,84.881a14.994,14.994,0,0,1-7.861-5.271c-1.371-1.593-3.063-3.959-5.323-4.32a28.66,28.66,0,0,0,2.254-8.319,14.714,14.714,0,0,1,2.81,6.036c.547,2.579.8,5.323,2.614,7.431a19.461,19.461,0,0,0,5.5,4.443" transform="translate(-11.5 -12.131)" fill="#d5aa7a"/>
          <path id="Trazado_202361" data-name="Trazado 202361" d="M271.807,47.668a.6.6,0,0,1,.111.069c.8.562.5,1.485,1.092,2.115.753.811,1.392,1.1,1.3,2.343a4.763,4.763,0,0,0-.1,1.368,7.187,7.187,0,0,1,.44,1.622,3.427,3.427,0,0,1-1.288,2.784,14.142,14.142,0,0,1-.811-1.214c-.4-.769-.2-1.824-.366-2.677a4.2,4.2,0,0,0-1.765-2.932,14.143,14.143,0,0,1-2.688-1.415c-.827-.748-1.331-1.77-2.566-1.77a.866.866,0,0,0-.122.006l-.006-.082c-.27-.716-1.436-.577-1.977-.376A5.958,5.958,0,0,0,260,50.129l-.021.016a1.041,1.041,0,0,0-.541-.334,1.008,1.008,0,0,0-.35-.032v-.007a18.47,18.47,0,0,1,1.633-2.1,8.48,8.48,0,0,1,1.807-1.363,6.505,6.505,0,0,1,1.235-.5,2.951,2.951,0,0,1,3.106.392c.663.641.837,1.392,1.924,1.405.983.006,2.109-.472,3.016.064" transform="translate(-17.536 -8.252)" fill="#3b7832"/>
          <path id="Trazado_202362" data-name="Trazado 202362" d="M273.711,62.135c.2.891,1.065,1.612.954,2.608-.082.716-.906,1.531-1.675,1.228a1.182,1.182,0,0,1-.578-.546c-.429-.769-.434-1.956-1.585-1.924-.477.016-.8.409-1.3.36a1.709,1.709,0,0,1-1.146-.944,3.827,3.827,0,0,1-.429-2.523,8.371,8.371,0,0,1,.276-1.314c.292-1.05.562-1.919-.392-2.692-.655-.53-.631-.965-.392-1.755.491-1.58.716-3.194-.615-4.668a1.277,1.277,0,0,0-1.368-.491c-.79.223-1.49,1.146-2,1.505a.881.881,0,0,0-.716-.148l-.016-.082A3.96,3.96,0,0,1,265.7,48.5a1.007,1.007,0,0,1,.122,0c1.235,0,1.738,1.023,2.566,1.77a14.071,14.071,0,0,0,2.688,1.415,4.2,4.2,0,0,1,1.765,2.931c.169.853-.032,1.908.366,2.677a14.173,14.173,0,0,0,.811,1.214,2.086,2.086,0,0,1,.387,1.346c-.052.838-.906,1.363-.694,2.285" transform="translate(-18.195 -8.785)" fill="#56a455"/>
          <path id="Trazado_202363" data-name="Trazado 202363" d="M270.612,42.951a2.684,2.684,0,0,1,1.314,2.227,2.557,2.557,0,0,1-.879,1.537c-.906-.536-2.036-.058-3.016-.064-1.087-.011-1.261-.763-1.924-1.405A2.951,2.951,0,0,0,263,44.853a6.525,6.525,0,0,0-1.235.5l-.011-.021a.855.855,0,0,1-.827-.238c-.281-.26-.455-.551-.88-.646-.519-.117-.943.313-1.352.594a9.719,9.719,0,0,0-1.654,1.643,3.884,3.884,0,0,0-.721,1.24,3.978,3.978,0,0,1-.212.711l-.011.016a1.35,1.35,0,0,0-1.07-.1.474.474,0,0,0-.117.058l-.026-.047c.238-.626.2-1.228.472-1.839a2.351,2.351,0,0,1,.175-.318,10.784,10.784,0,0,1,2.714-2.746,6.721,6.721,0,0,1,3.117-1.415c.461-.064.916-.1,1.378-.127l.429-.032a2.742,2.742,0,0,1,2.258-1.72,2.817,2.817,0,0,1,1.9.218c.53.355.491.906.758,1.41.556,1.007,1.653.578,2.528.954" transform="translate(-16.776 -7.299)" fill="#56a455"/>
          <path id="Trazado_202364" data-name="Trazado 202364" d="M268.372,56.587c.954.774.684,1.643.392,2.692a8.526,8.526,0,0,0-.275,1.31l-.053,0a1.727,1.727,0,0,0-.917-.737c0-.006,0-.006-.011-.006-.387-.133-1.012-.016-1.363-.287-.467-.355-.371-.9-.174-1.4.106-.281.246-.551.334-.769.307-.753.006-.983-.35-1.585a1.939,1.939,0,0,1-.2-.461,2.114,2.114,0,0,1,.174-1.447,4.53,4.53,0,0,0,.445-2.457,5.4,5.4,0,0,0-.217-1.228,2.016,2.016,0,0,1-.143-.455l-.021-.09a1.278,1.278,0,0,1,1.368.491c1.331,1.479,1.1,3.09.615,4.668-.238.79-.26,1.228.392,1.755" transform="translate(-18.735 -8.989)" fill="#3b7832"/>
          <path id="Trazado_202365" data-name="Trazado 202365" d="M267.145,61.717l-.021.047s-.265.588-.753,1.458c-.45-.456-1.326.082-1.326.082a1.216,1.216,0,0,1-1.41-.075v0l.414-2.555v-.006a4.988,4.988,0,0,0,.455-.753.8.8,0,0,0,1.087.116h0c-.2.5-.291,1.044.175,1.4.35.27.975.154,1.363.286,0,0,0,0,.011.006" transform="translate(-18.36 -10.852)" fill="#1d401b"/>
          <path id="Trazado_202366" data-name="Trazado 202366" d="M265.968,51.452a4.538,4.538,0,0,1-.445,2.457,2.114,2.114,0,0,0-.175,1.447l-.662.058a3.53,3.53,0,0,0-1.256-1.7c.387-.705.983-1.965.154-2.529.514-.355,1.214-1.282,2-1.505l.021.09a2.022,2.022,0,0,0,.143.456,5.348,5.348,0,0,1,.218,1.228" transform="translate(-18.323 -8.999)" fill="#2b5922"/>
          <path id="Trazado_202367" data-name="Trazado 202367" d="M264.882,63.993s.875-.536,1.325-.082a20.283,20.283,0,0,1-3.477,4.606l-.006-.006.748-4.6a1.216,1.216,0,0,0,1.41.075" transform="translate(-18.195 -11.544)" fill="#56a455"/>
          <path id="Trazado_202368" data-name="Trazado 202368" d="M265.774,57.075c.355.6.655.832.35,1.585-.082.218-.228.491-.334.769h0a.8.8,0,0,1-1.087-.117,3.439,3.439,0,0,0,.3-2.353,2.3,2.3,0,0,0-.082-.287l.662-.058a1.923,1.923,0,0,0,.2.461" transform="translate(-18.553 -10.255)" fill="#2b5922"/>
          <path id="Trazado_202369" data-name="Trazado 202369" d="M259.549,56.594a3.439,3.439,0,0,1-.3,2.353,4.917,4.917,0,0,1-.455.753v.006c-1.744,2.427-5.942,4.458-10.336,5.491-.307.074-.615.143-.922.2a.006.006,0,0,1-.006.006,28.5,28.5,0,0,1-3.222.472H244.3c-.716.064-1.415.095-2.083.095a11.747,11.747,0,0,1-5.475-1.082l0,0h-.006a3.782,3.782,0,0,1-2.041-2.433c-.578-2.475,1.775-4.813,5.231-6.531l.8,1.362c-.175.082-.35.17-.514.26a1.436,1.436,0,0,0-.3-.027,1.991,1.991,0,0,0-1.917,1.454c-1.31,1.049-1.978,2.146-1.749,3.117l.032.111V62.2c.292.922,1.392,1.574,3.016,1.913.154.032.318.058.482.082a15.576,15.576,0,0,0,2.948.17h.006a.14.14,0,0,0,.069,0,26.6,26.6,0,0,0,5.3-.721l.53-.127c.075-.021.148-.043.223-.058a24.1,24.1,0,0,0,5.613-2.195c.159-.09.318-.18.467-.271,2.157-1.31,3.376-2.784,3.08-4.039a1.891,1.891,0,0,0-.646-1c.286-.418.562-.837.811-1.277a.513.513,0,0,1,.043-.074,3.53,3.53,0,0,1,1.256,1.7,2.153,2.153,0,0,1,.082.287" transform="translate(-13.102 -9.891)" fill="#a7560b"/>
          <path id="Trazado_202370" data-name="Trazado 202370" d="M259.266,60.835l-.414,2.554v0l-.749,4.6,0,0a8.021,8.021,0,0,1-4.709,2.412l-.592-.246-3.836-1.583a.864.864,0,0,0-.858,1.485l2.327,1.79a4.716,4.716,0,0,1-2.272.246,9.435,9.435,0,0,1-2.457-.592l-2.842-.947a.806.806,0,0,0-.957.395c-.025.059-.044.119-.064.173l-.237-.088-4.4-5.025h0l.006,0a11.728,11.728,0,0,0,5.473,1.08c.671,0,1.371-.029,2.086-.093h.006A26.844,26.844,0,0,0,248,66.532l0,0c.31-.054.617-.124.922-.2a27.7,27.7,0,0,0,5.617-1.948,12.529,12.529,0,0,0,4.724-3.541" transform="translate(-13.574 -11.02)" fill="#c1722e"/>
          <path id="Trazado_202371" data-name="Trazado 202371" d="M262.4,54.01a.358.358,0,0,0-.04.074c-.251.439-.527.858-.814,1.277a13.149,13.149,0,0,0-1.454,2.51c-.059.153-.124.3-.2.454a8.769,8.769,0,0,0-.789,2.056l.01.02c-.148.088-.31.183-.468.271a3.041,3.041,0,0,0-.9-1.529c.029-.143.039-.315.074-.444a9.881,9.881,0,0,1,.522-1.612c.093-.227.188-.454.276-.68.276-.671.547-1.341.863-2,.082-.183.168-.365.262-.542a9.561,9.561,0,0,1,.478-.9c.4-.7.983-1.49,1.612-1.632a.875.875,0,0,1,.716.148c.834.562.236,1.824-.153,2.53" transform="translate(-17.293 -9.294)" fill="#e85536"/>
          <path id="Trazado_202372" data-name="Trazado 202372" d="M262.494,57.259c.3,1.256-.922,2.73-3.079,4.039l-.011-.021a13.62,13.62,0,0,1,.983-2.507,12.969,12.969,0,0,1,1.458-2.512,1.9,1.9,0,0,1,.647,1" transform="translate(-17.594 -10.19)" fill="#6a320c"/>
          <path id="Trazado_202373" data-name="Trazado 202373" d="M259.948,52.859a9.569,9.569,0,0,0-.478.9c-.093.178-.183.36-.261.542-.315.661-.587,1.331-.863,2-.089.227-.183.454-.276.68a9.955,9.955,0,0,0-.522,1.612c-.034.129-.044.3-.074.444a2.972,2.972,0,0,0-1.242-.676,14.862,14.862,0,0,1,.414-3.812c.049-.173.089-.34.138-.513l.015-.059c.133-.518.271-1.046.424-1.556,0,0,0,0,0-.01.034-.119.069-.237.113-.355a2.934,2.934,0,0,1,.395-.853,1.088,1.088,0,0,1,1.726-.119,1.719,1.719,0,0,1,.35.789,5.007,5.007,0,0,1,.088.976c.015,0,.029,0,.049.01" transform="translate(-17.019 -9.188)" fill="#c22f15"/>
          <path id="Trazado_202374" data-name="Trazado 202374" d="M257.521,62.23c-.272.153-.557.305-.853.444a24.873,24.873,0,0,1-4.758,1.751,2.33,2.33,0,0,1-.183-.395.533.533,0,0,0,0-.088,3.082,3.082,0,0,0-.2-1.095,3.017,3.017,0,0,1,.829-1.987,2.969,2.969,0,0,1,.794-.6,3.034,3.034,0,0,1,1.415-.35c.064,0,.133,0,.2,0a2.77,2.77,0,0,1,.611.113,2.975,2.975,0,0,1,1.243.676,3.041,3.041,0,0,1,.9,1.529" transform="translate(-16.169 -10.851)" fill="#c22f15"/>
          <path id="Trazado_202375" data-name="Trazado 202375" d="M257.031,51.978a3.709,3.709,0,0,0-.113.355s0,0,0,.01c-.153.513-.291,1.041-.424,1.556l-.015.059c-.049.173-.088.341-.138.513a14.862,14.862,0,0,0-.414,3.812,2.778,2.778,0,0,0-.612-.113l0-.108a8.535,8.535,0,0,0-.291-1.277c-.025-.129-.049-.251-.074-.38-.1-.626-.153-1.247-.217-1.879s-.133-1.248-.173-1.869c-.01-.113-.02-.227-.025-.346,0-.082,0-.158,0-.237-.01-.133-.01-.266-.01-.4,0-.395-.044-1.015.328-1.253a.364.364,0,0,1,.113-.059,1.365,1.365,0,0,1,1.075.1c.049.029.1.059.158.1a2.378,2.378,0,0,1,.769,1.392Z" transform="translate(-16.709 -9.111)" fill="#e85536"/>
          <path id="Trazado_202376" data-name="Trazado 202376" d="M254.925,59.414l-.006.111c-.064-.006-.133-.006-.2-.006a3.029,3.029,0,0,0-2.205.949,2.362,2.362,0,0,0,.09-.646,2.508,2.508,0,0,0-.246-1.087.647.647,0,0,0,.143.011,2.631,2.631,0,0,0,2.062-.983c.021.127.048.246.075.377a9.337,9.337,0,0,1,.292,1.277" transform="translate(-16.318 -10.463)" fill="#bf8f00"/>
          <path id="Trazado_202377" data-name="Trazado 202377" d="M254,56.8a2.626,2.626,0,0,1-2.062.983.7.7,0,0,1-.143-.01,2.485,2.485,0,0,0-2.179-1.4h-.025a.179.179,0,0,1-.02-.044l0,0a2.6,2.6,0,0,1-.212-.567,2.689,2.689,0,0,1-.074-.631,1.825,1.825,0,0,1,.015-.232,2.587,2.587,0,0,1,.927-1.8,2.659,2.659,0,0,1,2.89-.36,2.768,2.768,0,0,1,.479.3s.014.01.019.015c.04.622.109,1.242.173,1.869s.114,1.252.217,1.878" transform="translate(-15.761 -9.502)" fill="#f48735"/>
          <path id="Trazado_202378" data-name="Trazado 202378" d="M251.561,59.725a2.366,2.366,0,0,1-.093.651,3.021,3.021,0,0,0-.829,1.987,3.134,3.134,0,0,0-2.939-2.041,2.1,2.1,0,0,0-.35.025.85.85,0,0,0-.158.02,2.1,2.1,0,0,0-.246.049,1.281,1.281,0,0,0-.134.034h0l-.1.029a.67.67,0,0,1-.029-.113,2.43,2.43,0,0,1-.074-.375,2.4,2.4,0,0,1-.015-.266,2.342,2.342,0,0,1,.082-.622,2.462,2.462,0,0,1,2.4-1.864h.059a2.489,2.489,0,0,1,2.179,1.4,2.517,2.517,0,0,1,.252,1.085" transform="translate(-15.273 -10.368)" fill="#fbb800"/>
          <path id="Trazado_202379" data-name="Trazado 202379" d="M250.389,64.14a.541.541,0,0,1,0,.088,2.633,2.633,0,0,1-.039.454q-.267.059-.532.129a26.782,26.782,0,0,1-5.3.72.162.162,0,0,1-.069,0h0a3.181,3.181,0,0,1-.305-1.075c-.01-.1-.015-.212-.015-.315a3.237,3.237,0,0,1,.2-1.114,2.8,2.8,0,0,1,.148-.328,3.031,3.031,0,0,1,.251-.4,3.162,3.162,0,0,1,1.544-1.134l.1-.029h0a1.275,1.275,0,0,1,.134-.034,2.1,2.1,0,0,1,.246-.049,1.219,1.219,0,0,1,.133-.02.022.022,0,0,1,.025,0,.751.751,0,0,1,.148-.015,1.4,1.4,0,0,1,.2-.01,3.135,3.135,0,0,1,2.939,2.041,3.082,3.082,0,0,1,.2,1.095" transform="translate(-14.825 -11.05)" fill="#f48735"/>
          <path id="Trazado_202380" data-name="Trazado 202380" d="M249.231,56.915H249.2a2.457,2.457,0,0,0-1.913.9l-.006-1.971c.382-.111.769-.212,1.166-.3.164-.037.328-.075.491-.106a1.625,1.625,0,0,0-.016.228,2.627,2.627,0,0,0,.313,1.251" transform="translate(-15.398 -10.042)" fill="#6a320c"/>
          <path id="Trazado_202381" data-name="Trazado 202381" d="M248.076,53.6c.594-.138,1.187-.26,1.781-.36a2.6,2.6,0,0,0-.928,1.8c-.164.032-.328.069-.491.106-.4.09-.785.191-1.166.3l-.011-1.643q.409-.111.811-.206" transform="translate(-15.395 -9.643)" fill="#a7560b"/>
          <path id="Trazado_202382" data-name="Trazado 202382" d="M246.71,56.05v.784a2.465,2.465,0,0,0-.484.961l-.255-.439L245,55.709l-.153-.261h0l-.716-1.213v-.212l-.009-2.727a1.29,1.29,0,0,1,1.03-1.258,1.55,1.55,0,0,1,.261-.025,1.288,1.288,0,0,1,1.282,1.292l0,1.913v.32l.011,1.322Z" transform="translate(-14.825 -9.06)" fill="#3b7832"/>
          <path id="Trazado_202383" data-name="Trazado 202383" d="M245.422,59.432a3.154,3.154,0,0,0-1.544,1.134l-.228-.38-.346-.587v0l-.232-.395-.3-.5,0,0a1.979,1.979,0,0,0-.8-1.361l-.365-.617-.8-1.366-.276-.468-.872-1.48a1.286,1.286,0,0,1,.464-1.758l0,0a1.3,1.3,0,0,1,1.756.473l1.3,2.211.1.164v0L244,55.707h0l.153.261.971,1.647.256.439a2.341,2.341,0,0,0-.082.622,2.507,2.507,0,0,0,.119.754" transform="translate(-13.986 -9.324)" fill="#56a455"/>
          <path id="Trazado_202384" data-name="Trazado 202384" d="M243.9,61.2l.573.965a2.9,2.9,0,0,0-.255.4,1.973,1.973,0,0,0-1.392-.562.394.394,0,0,0-.082.006,1.991,1.991,0,0,0,.636-1.463,2.034,2.034,0,0,0-.016-.255l.53.9Z" transform="translate(-14.577 -10.922)" fill="#6a320c"/>
          <path id="Trazado_202385" data-name="Trazado 202385" d="M243.507,64.707a3.181,3.181,0,0,0,.305,1.075,15.673,15.673,0,0,1-2.944-.173,1.527,1.527,0,0,1-.192-.3,1.9,1.9,0,0,0,.557-.8,1.848,1.848,0,0,0,.133-.7,1.9,1.9,0,0,0-.212-.883.052.052,0,0,0-.025-.044,1.941,1.941,0,0,1,1.237-.491h0a.459.459,0,0,1,.082,0,1.973,1.973,0,0,1,1.392.562,2.8,2.8,0,0,0-.148.328,3.236,3.236,0,0,0-.2,1.114c0,.1,0,.212.015.315" transform="translate(-14.202 -11.301)" fill="#bf8f00"/>
          <path id="Trazado_202386" data-name="Trazado 202386" d="M242.64,60.163a2.066,2.066,0,0,1-.082.557s0,0,0,0a1.96,1.96,0,0,1-.552.907h0a1.941,1.941,0,0,0-1.237.491,1.977,1.977,0,0,0-1.77-1.075c-.044,0-.1,0-.148,0a1.579,1.579,0,0,1-.118-.3,1.906,1.906,0,0,1-.088-.587,2.064,2.064,0,0,1,.082-.552,2,2,0,0,1,1.923-1.449,1.54,1.54,0,0,1,.3.025,1.993,1.993,0,0,1,1.681,1.72l0,0a2.143,2.143,0,0,1,.015.251" transform="translate(-13.832 -10.535)" fill="#c22f15"/>
          <path id="Trazado_202387" data-name="Trazado 202387" d="M240.636,63.686a1.967,1.967,0,0,1-.691,1.5,1.538,1.538,0,0,1-.291.212,6.613,6.613,0,0,1-1.824-.636,2.321,2.321,0,0,1-1.194-1.277v0a2.011,2.011,0,0,1,1.691-1.775l.153-.015c.049,0,.1,0,.148,0a1.977,1.977,0,0,1,1.77,1.075.052.052,0,0,1,.025.044,1.893,1.893,0,0,1,.213.883" transform="translate(-13.47 -11.173)" fill="#fbb800"/>
          <path id="Trazado_202388" data-name="Trazado 202388" d="M238.338,59.934a1.9,1.9,0,0,0-.082.551,1.976,1.976,0,0,0,.206.885,2,2,0,0,0-1.845,1.792l-.032-.111c-.228-.97.44-2.067,1.749-3.117" transform="translate(-13.453 -10.856)" fill="#6a320c"/>
          <path id="Trazado_202389" data-name="Trazado 202389" d="M241.447,58.136a4.445,4.445,0,0,1,.514-.26l.365.621a1.91,1.91,0,0,0-.879-.36" transform="translate(-14.342 -10.484)" fill="#6a320c"/>
          <path id="Trazado_202390" data-name="Trazado 202390" d="M262.715,60.835l-.414,2.554v0l-.749,4.6,0,0a8.021,8.021,0,0,1-4.709,2.412l-.591-.246a18.589,18.589,0,0,0,1.736-5.784,12.528,12.528,0,0,0,4.724-3.541" transform="translate(-17.024 -11.02)" fill="#af5e23"/>
          <g id="Grupo_150062" data-name="Grupo 150062" transform="translate(237.817 42.966)" opacity="0.34">
            <g id="Grupo_150061" data-name="Grupo 150061">
              <g id="Grupo_150060" data-name="Grupo 150060" clip-path="url(#clip-path-3)">
                <g id="Grupo_150059" data-name="Grupo 150059" transform="translate(0.004)">
                  <g id="Grupo_150058" data-name="Grupo 150058" clip-path="url(#clip-path-4)">
                    <path id="Trazado_202391" data-name="Trazado 202391" d="M258.522,60.593l.009.02c-.148.088-.31.183-.468.271a3.042,3.042,0,0,0-.9-1.529,2.975,2.975,0,0,0-1.243-.676,2.77,2.77,0,0,0-.611-.113l0-.108a8.633,8.633,0,0,0-.292-1.277c-.024-.129-.049-.251-.074-.38-.1-.626-.153-1.247-.217-1.878s-.133-1.247-.173-1.869c-.01-.114-.019-.227-.025-.346,0-.082,0-.158,0-.237a2.58,2.58,0,0,0,1.943,1.883.086.086,0,0,0,.04.01,2.205,2.205,0,0,0,1.523,2.254l.039.015a1.981,1.981,0,0,0,.983,1.741c.094.059.178.114.251.164a8.736,8.736,0,0,0-.789,2.056" transform="translate(-254.532 -52.471)" fill="#040405"/>
                  </g>
                </g>
              </g>
            </g>
          </g>
          <g id="Grupo_150067" data-name="Grupo 150067" transform="translate(224.36 50.078)" opacity="0.34">
            <g id="Grupo_150066" data-name="Grupo 150066">
              <g id="Grupo_150065" data-name="Grupo 150065" clip-path="url(#clip-path-5)">
                <g id="Grupo_150064" data-name="Grupo 150064">
                  <g id="Grupo_150063" data-name="Grupo 150063" clip-path="url(#clip-path-6)">
                    <path id="Trazado_202392" data-name="Trazado 202392" d="M242.458,61.266a1.968,1.968,0,0,1-.553.907h0a1.945,1.945,0,0,0-1.238.491.052.052,0,0,1,.025.044,1.892,1.892,0,0,1,.213.883,1.967,1.967,0,0,1-.691,1.5,1.537,1.537,0,0,1-.291.212,6.613,6.613,0,0,1-1.824-.636,1.442,1.442,0,0,1,.241-.617c.261-.36.69-.468.853-.932.271-.764-.35-1.026-.6-1.509a.793.793,0,0,1-.088-.271.824.824,0,0,1,.124-.044,3.663,3.663,0,0,1,2.154.088,3.218,3.218,0,0,0,1.677-.119" transform="translate(-238.094 -61.158)" fill="#040405"/>
                  </g>
                </g>
              </g>
            </g>
          </g>
          <g id="Grupo_150072" data-name="Grupo 150072" transform="translate(229.089 44.479)" opacity="0.34">
            <g id="Grupo_150071" data-name="Grupo 150071">
              <g id="Grupo_150070" data-name="Grupo 150070" clip-path="url(#clip-path-7)">
                <g id="Grupo_150069" data-name="Grupo 150069" transform="translate(0 0.002)">
                  <g id="Grupo_150068" data-name="Grupo 150068" clip-path="url(#clip-path-8)">
                    <path id="Trazado_202393" data-name="Trazado 202393" d="M246.665,56.834a.494.494,0,0,0,0,.276v.5a2.466,2.466,0,0,0-.484.961,2.343,2.343,0,0,0-.082.622,2.507,2.507,0,0,0,.119.754,3.154,3.154,0,0,0-1.544,1.134l-.228-.382-.346-.587v0l-.232-.395a.076.076,0,0,0,.015-.025,6.586,6.586,0,0,0,.173-1.051c.133-.434.328-.843.491-1.273a5.843,5.843,0,0,1,.4-.883,4.011,4.011,0,0,1,.769-.917,4.4,4.4,0,0,0,.926-1.253l.011,1.322,0,1.188Z" transform="translate(-243.869 -54.32)" fill="#040405"/>
                  </g>
                </g>
              </g>
            </g>
          </g>
          <g id="Grupo_150077" data-name="Grupo 150077" transform="translate(226.476 43.533)" opacity="0.34">
            <g id="Grupo_150076" data-name="Grupo 150076">
              <g id="Grupo_150075" data-name="Grupo 150075" clip-path="url(#clip-path-9)">
                <g id="Grupo_150074" data-name="Grupo 150074">
                  <g id="Grupo_150073" data-name="Grupo 150073" clip-path="url(#clip-path-10)">
                    <path id="Trazado_202394" data-name="Trazado 202394" d="M254.7,61.453a24.861,24.861,0,0,1-4.758,1.751,2.426,2.426,0,0,1-.183-.395,2.627,2.627,0,0,1-.039.454q-.267.059-.532.129a26.781,26.781,0,0,1-5.3.72.162.162,0,0,1-.069,0h0a15.671,15.671,0,0,1-2.944-.173,1.527,1.527,0,0,1-.192-.3,1.9,1.9,0,0,0,.557-.8,2.729,2.729,0,0,1,2.051.069c.069.034.143.082.222.124.414.227.947.491,1.341.217.449-.315.409-.824,1.026-.976s1.183-.034,1.607-.6a.921.921,0,0,0-.124-1.3l-.029-.024c-.468-.439-1.051-.385-1.568-.631a.088.088,0,0,1-.02-.015h0a.5.5,0,0,1-.129-.082.289.289,0,0,1-.074-.375.862.862,0,0,1,.582-.385c.764-.183,1.479.328,2.19-.069a1.154,1.154,0,0,0,.4-1.583,1.108,1.108,0,0,0-.106-.148,7.657,7.657,0,0,0-.537-.567l-.044-.044,0,0c-.217-.232-.37-.449-.212-.567a.727.727,0,0,1,.385-.093,5.33,5.33,0,0,0,2.7-.573,3.151,3.151,0,0,0,1.146-2.051s.015.01.02.015c.039.622.109,1.242.173,1.869s.114,1.253.217,1.879a2.619,2.619,0,0,1-2.061.983.7.7,0,0,1-.143-.01,2.515,2.515,0,0,1,.251,1.085,2.366,2.366,0,0,1-.093.651,2.942,2.942,0,0,1,.794-.6,1.724,1.724,0,0,0,.148,1.469c.573.819,1.41.246,2.2.355a1.89,1.89,0,0,1,1.159.592" transform="translate(-240.678 -53.164)" fill="#040405"/>
                  </g>
                </g>
              </g>
            </g>
          </g>
          <path id="Trazado_202395" data-name="Trazado 202395" d="M246.058,11.931c-.732.069-1.453.148-2.158.246a55.651,55.651,0,0,0-11.11,2.666,49.973,49.973,0,0,0-5.4,2.258,23.359,23.359,0,0,0,5.9.562h0l.563,3.207c-10.876,2.4-11.679-1.656-11.679-1.656s-1.31-4.034,10.8-7.5c.5-.143,1.028-.286,1.58-.429a71.777,71.777,0,0,1,9.376-2.047c4.579-.646,9.446-.689,11.061,1.585a1.671,1.671,0,0,1,.292,1.108c-.127,1.319-1.257,4.34-8.693,6.18a1.524,1.524,0,0,0-.848-1.092l.148-2.322h.016a32.975,32.975,0,0,0,5.077-2.984c-1.7-.006-3.339.075-4.918.218" transform="translate(-10.843 -1.604)" fill="#845318"/>
          <path id="Trazado_202396" data-name="Trazado 202396" d="M250.758,12.473a16.328,16.328,0,0,0,1.945-.235c.285-.029,1.612-.278,1.847-.052.433.417-.438,1.71-.721,2.028a5.212,5.212,0,0,1-1.176.828,13.964,13.964,0,0,1-2.9,1.612,61.267,61.267,0,0,1-11.65,2.981c-2.211.314-4.375.965-6.6,1.172-1.676.156-3.673.272-5.177-.614-.9-.531-1.117-1.238-.154-1.787a8.649,8.649,0,0,1,1.992-.768,12.539,12.539,0,0,1,2.064-.3,24.62,24.62,0,0,0,3.428-.83c1.556-.394,3.063-.956,4.618-1.331,1.773-.428,3.512-.819,5.271-1.324a21.627,21.627,0,0,1,3.551-.587,13.051,13.051,0,0,0,2.521-.454,5.11,5.11,0,0,1,1.137-.342" transform="translate(-11.462 -2.191)" fill="#654010"/>
          <path id="Trazado_202397" data-name="Trazado 202397" d="M251.312,12.563c1.579-.143,3.222-.223,4.918-.218a32.977,32.977,0,0,1-5.077,2.984h-.016Z" transform="translate(-16.097 -2.237)" fill="#2f1f0f"/>
          <path id="Trazado_202398" data-name="Trazado 202398" d="M246.3,8.477a71.154,71.154,0,0,0-9.374,2.047c-.552.143-1.075.286-1.583.429,0,0-.02-.1-.039-.281-.1-.976-.114-4.241,3.91-5.705a4.611,4.611,0,0,1,.983-.237,6.991,6.991,0,0,1,3.324.276A4.388,4.388,0,0,1,246.3,8.478" transform="translate(-13.225 -0.842)" fill="#654010"/>
          <path id="Trazado_202399" data-name="Trazado 202399" d="M234.23,17.734l.223,1.251h-.006a23.359,23.359,0,0,1-5.9-.562,49.97,49.97,0,0,1,5.4-2.258Z" transform="translate(-12.006 -2.929)" fill="#2f1f0f"/>
          <g id="Grupo_150082" data-name="Grupo 150082" transform="translate(222.081 4.164)" opacity="0.34">
            <g id="Grupo_150081" data-name="Grupo 150081">
              <g id="Grupo_150080" data-name="Grupo 150080" clip-path="url(#clip-path-11)">
                <g id="Grupo_150079" data-name="Grupo 150079" transform="translate(0.001)">
                  <g id="Grupo_150078" data-name="Grupo 150078" clip-path="url(#clip-path-12)">
                    <path id="Trazado_202400" data-name="Trazado 202400" d="M246.307,8.558a71.151,71.151,0,0,0-9.374,2.047c-.552.143-1.075.286-1.583.429,0,0-.02-.1-.039-.281a2.393,2.393,0,0,1,.34-.232,21.394,21.394,0,0,1,3.047-1.2c1.371-.537,3.275-.8,4.266-1.992a2.8,2.8,0,0,0,.6-2c0-.054-.015-.143-.029-.246a4.389,4.389,0,0,1,2.776,3.471" transform="translate(-235.312 -5.086)" fill="#040405"/>
                  </g>
                </g>
              </g>
            </g>
          </g>
          <path id="Trazado_202401" data-name="Trazado 202401" d="M250.877,12.612l-.109,1.671-.069,1.095-.148,2.322a1.366,1.366,0,0,0-.414-.133,1.415,1.415,0,0,0-.518.015l-.689-3.546-.192-1.006-.019-.178c.705-.093,1.425-.173,2.159-.246" transform="translate(-15.659 -2.284)" fill="#6a320c"/>
          <path id="Trazado_202402" data-name="Trazado 202402" d="M248.45,31.885s.313,4.818-5.231,5.523a2.556,2.556,0,0,1-.345.021c-.832-.011-3.785-.318-4.118-4.357-.011-.159-.021-.318-.026-.491,4.831.774,6.684-3.779,6.922-4.422l.255-.238c.6-.583,1.392-.954,1.965-1.58l.546,5.2Z" transform="translate(-13.85 -4.772)" fill="#f9ae81"/>
          <path id="Trazado_202403" data-name="Trazado 202403" d="M245.671,28.484a.291.291,0,0,1-.021.069c-.238.641-2.094,5.194-6.922,4.422-.006-.181-.006-.366,0-.557l-.006-2.735a3.109,3.109,0,0,0,.519.339,1.028,1.028,0,0,0,.154.082l.18.082a3.716,3.716,0,0,0,.382.127c2.784.753,5.568-1.691,5.714-1.824" transform="translate(-13.848 -5.16)" fill="#cd7e5b"/>
          <path id="Trazado_202404" data-name="Trazado 202404" d="M248.941,18.845a1.519,1.519,0,0,0-.848-1.09,1.371,1.371,0,0,0-.414-.133,1.41,1.41,0,0,0-.517.015l-.69-3.546-.192-1.006-.02-.178a55.371,55.371,0,0,0-7.2,1.449c-1.42.385-2.727.8-3.91,1.218l.276,1.568.222,1.253.562,3.205.266,1.5a8.981,8.981,0,0,1,1.213-1.647,4.073,4.073,0,0,1,2-1.1,4.334,4.334,0,0,1,1.346-.129,4.917,4.917,0,0,1,2.776,1.154,1.984,1.984,0,0,0,2.1.491c.291-.088.68-.439,1.031-.582l-.082-.764a1.576,1.576,0,0,0,.592.114,1.517,1.517,0,0,0,1.519-1.516,1.548,1.548,0,0,0-.025-.274m-10.6-.36a.655.655,0,0,1-.655-.651.644.644,0,0,1,.632-.655h.023a.655.655,0,0,1,0,1.31m4.9-.4a.655.655,0,1,1,.661-.651.655.655,0,0,1-.661.651h0" transform="translate(-13.201 -2.339)" fill="#f9ae81"/>
          <path id="Trazado_202405" data-name="Trazado 202405" d="M245.316,27.279c-.148.133-2.931,2.576-5.714,1.824-.132-.037-.26-.082-.382-.127a2.968,2.968,0,0,1-.334-.159,3.108,3.108,0,0,1-.519-.339c-.037-.032-.075-.058-.111-.095-.064-.053-.122-.106-.18-.164a2.9,2.9,0,0,1-.334-.382,1.845,1.845,0,0,1-.138-.191c-.006-.011-.016-.021-.021-.032-.043-.064-.082-.132-.122-.2a3.555,3.555,0,0,1-.366-.906,3.08,3.08,0,0,1-.069-.3l-.26-1.485a9,9,0,0,1,1.214-1.648,4.077,4.077,0,0,1,2-1.1,4.311,4.311,0,0,1,1.346-.132,4.96,4.96,0,0,1,2.777,1.155,1.974,1.974,0,0,0,2.1.491c.291-.09.679-.441,1.028-.583l.281,2.629c-.573.626-1.362,1-1.961,1.58l-.255.238a.258.258,0,0,0,.021-.069" transform="translate(-13.494 -3.955)" fill="#e96937"/>
          <path id="Trazado_202406" data-name="Trazado 202406" d="M244.888,17.635a.655.655,0,1,1-.655.655.655.655,0,0,1,.655-.655" transform="translate(-14.846 -3.195)" fill="#040405"/>
          <path id="Trazado_202407" data-name="Trazado 202407" d="M238.9,18.119a.655.655,0,1,1-.655.655.651.651,0,0,1,.658-.658" transform="translate(-13.762 -3.282)" fill="#040405"/>
          <path id="Trazado_202408" data-name="Trazado 202408" d="M239.452,25.222a2.83,2.83,0,0,0,2.115.608,4.15,4.15,0,0,0,1.065-.335l.527-.268c.174-.1.348-.2.542-.291a5.65,5.65,0,0,1-.383.5,5.63,5.63,0,0,1-.477.418,2.854,2.854,0,0,1-1.2.5,2.18,2.18,0,0,1-1.31-.22,1.922,1.922,0,0,1-.883-.911" transform="translate(-13.979 -4.517)" fill="#b44213"/>
          <path id="Trazado_202409" data-name="Trazado 202409" d="M240.865,18.645a13.351,13.351,0,0,1,.048,2.156,19.549,19.549,0,0,1-.228,2.129l-.218-.238a11.2,11.2,0,0,1,1.616.219,11.2,11.2,0,0,1-1.616.219.2.2,0,0,1-.218-.186h0V22.89a20.731,20.731,0,0,1,.172-2.136,12.212,12.212,0,0,1,.444-2.11" transform="translate(-14.125 -3.378)" fill="#b44213"/>
          <path id="Trazado_202410" data-name="Trazado 202410" d="M237.015,17.86a1.7,1.7,0,0,1,.536-.655,2.131,2.131,0,0,1,.779-.377,1.8,1.8,0,0,1,.879,0,1.451,1.451,0,0,1,.737.436,7.617,7.617,0,0,0-.785-.025,3.212,3.212,0,0,0-.706.1,9.933,9.933,0,0,0-1.438.518" transform="translate(-13.539 -3.039)" fill="#6a320c"/>
          <path id="Trazado_202411" data-name="Trazado 202411" d="M242.962,17a2.638,2.638,0,0,1,.842-.59,3.476,3.476,0,0,1,1-.289,2.852,2.852,0,0,1,1.053.074,1.939,1.939,0,0,1,.9.53,7.252,7.252,0,0,0-.966-.123,6.439,6.439,0,0,0-.923.044c-.618.074-1.228.224-1.9.354" transform="translate(-14.616 -2.917)" fill="#6a320c"/>
          <path id="Trazado_202412" data-name="Trazado 202412" d="M249.763,20.987a1.144,1.144,0,0,1,.266-.93,1.249,1.249,0,0,1,.856-.452,4.087,4.087,0,0,0-.667.608,2.966,2.966,0,0,0-.455.773" transform="translate(-15.845 -3.552)" fill="#a3563b"/>
          <g id="Grupo_150087" data-name="Grupo 150087" transform="translate(225.859 10.324)" opacity="0.44">
            <g id="Grupo_150086" data-name="Grupo 150086">
              <g id="Grupo_150085" data-name="Grupo 150085" clip-path="url(#clip-path-13)">
                <g id="Grupo_150084" data-name="Grupo 150084" transform="translate(0 0.003)">
                  <g id="Grupo_150083" data-name="Grupo 150083" clip-path="url(#clip-path-14)">
                    <path id="Trazado_202413" data-name="Trazado 202413" d="M249.284,12.612l-.109,1.671c-.562-.082-1.085-.183-1.331-.207-.172-.015-.34-.029-.508-.039a27.081,27.081,0,0,0-4.463.119c-.976.093-1.973.069-2.948.148a55.371,55.371,0,0,1,7.2-1.449c.705-.093,1.425-.173,2.159-.246" transform="translate(-239.925 -12.612)" fill="#040405"/>
                  </g>
                </g>
              </g>
            </g>
          </g>
          <path id="Trazado_202414" data-name="Trazado 202414" d="M227.309,170.578l-1.445-6.9-.5-2.388a3.728,3.728,0,0,0-3.654-2.968h-1.235l2.081-8.042c.305,0,.636,0,.956-.02l3.515.266.2,14.034Z" transform="translate(-10.542 -27.217)" fill="#2c2c2c"/>
          <path id="Trazado_202415" data-name="Trazado 202415" d="M223.789,163.072l1.946,9.292-2,.843a12.182,12.182,0,0,1-10.283-.382l-1.67-.859L213.845,163a3.732,3.732,0,0,1,3.641-2.9h2.645a3.735,3.735,0,0,1,3.657,2.968" transform="translate(-8.969 -28.999)" fill="#565656"/>
          <path id="Trazado_202416" data-name="Trazado 202416" d="M222.005,150.265l-2.081,8.042-2.061-7.386-.424-.044a11.824,11.824,0,0,0,1.06-.685h1.556s.878.074,1.953.074" transform="translate(-9.993 -27.204)" fill="#1c1c1d"/>
          <path id="Trazado_202417" data-name="Trazado 202417" d="M218.9,158.459h-1.415a3.744,3.744,0,0,0-3.639,2.9l-2.061,8.959.222-15.957.025-1.7a15.511,15.511,0,0,0,4.383-1.632l.424.044Z" transform="translate(-8.969 -27.356)" fill="#2c2c2c"/>
          <path id="Trazado_202418" data-name="Trazado 202418" d="M211.783,171.905c.482-2.579,1.019-5.145,1.565-7.709a14.422,14.422,0,0,1,.477-1.944,3.989,3.989,0,0,1,1.256-1.638,3.942,3.942,0,0,1,1.915-.789,8.351,8.351,0,0,1,1.012-.039l.983-.006.983.006a4.2,4.2,0,0,1,1.032.106,3.977,3.977,0,0,1,2.923,2.723c.173.675.269,1.295.4,1.946l.737,3.864c.225,1.291.468,2.58.679,3.875-.328-1.27-.622-2.548-.933-3.822l-.879-3.833c-.152-.628-.283-1.3-.437-1.9a3.515,3.515,0,0,0-.979-1.535,3.469,3.469,0,0,0-1.612-.834,3.739,3.739,0,0,0-.92-.082L219,160.3l-.983-.006a7.839,7.839,0,0,0-.951.024,3.449,3.449,0,0,0-1.685.671,3.517,3.517,0,0,0-1.125,1.431,5.894,5.894,0,0,0-.267.906l-.238.954c-.629,2.545-1.266,5.089-1.96,7.616" transform="translate(-8.969 -28.941)" fill="#1c1c1d"/>
          <g id="Grupo_150092" data-name="Grupo 150092" transform="translate(203.039 122.987)" opacity="0.3">
            <g id="Grupo_150091" data-name="Grupo 150091">
              <g id="Grupo_150090" data-name="Grupo 150090" clip-path="url(#clip-path-15)">
                <g id="Grupo_150089" data-name="Grupo 150089">
                  <g id="Grupo_150088" data-name="Grupo 150088" clip-path="url(#clip-path-16)">
                    <path id="Trazado_202419" data-name="Trazado 202419" d="M225.7,164.545c-.459-.286-.907-.587-1.361-.878-.562-.365-1.124-.725-1.7-1.07a44.935,44.935,0,0,1-5.883-4.206c-1.43-1.173-2.805-2.417-4.112-3.669-.148-.143-.36-.32-.587-.513l.025-1.7a15.51,15.51,0,0,0,4.383-1.632,11.823,11.823,0,0,0,1.06-.685h1.556s.878.074,1.953.074c.305,0,.636,0,.956-.02l3.516.266Z" transform="translate(-212.057 -150.191)" fill="#040405"/>
                  </g>
                </g>
              </g>
            </g>
          </g>
          <path id="Trazado_202420" data-name="Trazado 202420" d="M220.357,68.485c.36,0,.655.6.655,1.336s-.292,1.331-.655,1.331l-.074-.006c-.323-.074-.578-.641-.578-1.325,0-.737.292-1.336.655-1.336" transform="translate(-10.404 -12.405)" fill="#3d260f"/>
          <path id="Trazado_202421" data-name="Trazado 202421" d="M219.3,136.263h-1.556l-.074-1.021-1.645-22.572-1.883-25.73-.73-10.015-.119-1.632a.78.78,0,0,0,.754.573.658.658,0,0,0,.1,0,.768.768,0,0,0,.676-.819c-.01-.138-.02-.281-.029-.434l.082,0a1.675,1.675,0,0,0,1.322-1.31l.015.346.252,5.113.3,6.07.271,5.513.473,9.556.617,12.564,1.1,22.4Z" transform="translate(-9.243 -13.276)" fill="#654010"/>
          <path id="Trazado_202422" data-name="Trazado 202422" d="M219.8,71.123l-.434-.044-1.065-.1-1.2-.119H217.1a7.588,7.588,0,0,0-.025-.819,6.223,6.223,0,0,1,.37-1.671h0l1.464.059.39.015.573.02c-.36,0-.651.6-.651,1.336,0,.685.256,1.253.577,1.327" transform="translate(-9.927 -12.384)" fill="#654010"/>
          <g id="Grupo_150097" data-name="Grupo 150097" transform="translate(204.053 60.017)" opacity="0.3">
            <g id="Grupo_150096" data-name="Grupo 150096">
              <g id="Grupo_150095" data-name="Grupo 150095" clip-path="url(#clip-path-17)">
                <g id="Grupo_150094" data-name="Grupo 150094" transform="translate(0.001 0.001)">
                  <g id="Grupo_150093" data-name="Grupo 150093" clip-path="url(#clip-path-18)">
                    <path id="Trazado_202423" data-name="Trazado 202423" d="M216.215,73.639l.251,5.113c-.246-.164-.491-.346-.749-.518a24.838,24.838,0,0,0-2.3-1.31l-.119-1.632a.78.78,0,0,0,.754.573.658.658,0,0,0,.1,0,.768.768,0,0,0,.676-.819c-.01-.138-.02-.281-.029-.434l.082,0a1.675,1.675,0,0,0,1.322-1.31Z" transform="translate(-213.297 -73.294)" fill="#040405"/>
                  </g>
                </g>
              </g>
            </g>
          </g>
          <g id="Grupo_150102" data-name="Grupo 150102" transform="translate(207.15 55.981)" opacity="0.3">
            <g id="Grupo_150101" data-name="Grupo 150101">
              <g id="Grupo_150100" data-name="Grupo 150100" clip-path="url(#clip-path-19)">
                <g id="Grupo_150099" data-name="Grupo 150099" transform="translate(0.001 0.003)">
                  <g id="Grupo_150098" data-name="Grupo 150098" clip-path="url(#clip-path-20)">
                    <path id="Trazado_202424" data-name="Trazado 202424" d="M218.537,69.171a4.05,4.05,0,0,0-.227,1.8l-1.2-.119h0a7.588,7.588,0,0,0-.025-.819,6.222,6.222,0,0,1,.37-1.671h0l1.464.059a5.89,5.89,0,0,0-.38.744" transform="translate(-217.079 -68.367)" fill="#040405"/>
                  </g>
                </g>
              </g>
            </g>
          </g>
          <path id="Trazado_202425" data-name="Trazado 202425" d="M223.7,54.744a10.962,10.962,0,0,0-2.086,1.095,13.648,13.648,0,0,0-4.408,5.054,11.314,11.314,0,0,0-.71,1.617v0l-.059.069A4.313,4.313,0,0,1,217.893,65l-1.854-.074h0a6.222,6.222,0,0,0-.37,1.671,7.591,7.591,0,0,1,.025.819,5.5,5.5,0,0,1-.217,1.544,1.675,1.675,0,0,1-1.322,1.31l-.082,0c.01.153.02.3.029.434a.768.768,0,0,1-.676.819.659.659,0,0,1-.1,0,.78.78,0,0,1-.754-.573,16.219,16.219,0,0,1-.39-1.775,2.037,2.037,0,0,1-1.464-1.5c-2.2-.666-1.232-4.166-1.232-4.166,0-.715,1.164-1.534,1.164-1.534l.227-3.817a5.784,5.784,0,0,1,.8-2.663,24.6,24.6,0,0,1,5.416-5.712c.328-.261.537-.414.562-.429,1.647.518,4.285,1.731,5.468,4.329a5.705,5.705,0,0,0,.573,1.051" transform="translate(-8.514 -8.942)" fill="#f9ae81"/>
          <path id="Trazado_202426" data-name="Trazado 202426" d="M217.067,71.411l2.263.223c-.246,1.7-2.47,1.665-2.47,1.665l-.016-.345a5.465,5.465,0,0,0,.218-1.543Z" transform="translate(-9.885 -12.935)" fill="#cd7e5b"/>
          <path id="Trazado_202427" data-name="Trazado 202427" d="M212.711,72.86a.265.265,0,0,1-.261-.22,11.443,11.443,0,0,1-.034-4.266.265.265,0,0,1,.518.111,10.915,10.915,0,0,0,.039,4.066.265.265,0,0,1-.216.305h0a.208.208,0,0,1-.045,0" transform="translate(-9.05 -12.349)" fill="#a3563b"/>
          <path id="Trazado_202428" data-name="Trazado 202428" d="M215.027,74.022a.265.265,0,0,1-.265-.25c-.116-1.984-.2-4.881-.2-4.913a.264.264,0,0,1,.257-.272h.007a.266.266,0,0,1,.265.258c0,.029.082,2.918.195,4.9a.264.264,0,0,1-.246.279h-.016" transform="translate(-9.473 -12.424)" fill="#a3563b"/>
          <path id="Trazado_202429" data-name="Trazado 202429" d="M210.9,71.216a.266.266,0,0,1-.251-.179,9.121,9.121,0,0,1-.288-3.418.262.262,0,0,1,.287-.234h.006a.265.265,0,0,1,.234.293,8.747,8.747,0,0,0,.262,3.186.266.266,0,0,1-.164.337.278.278,0,0,1-.086.014" transform="translate(-8.703 -12.206)" fill="#a3563b"/>
          <path id="Trazado_202430" data-name="Trazado 202430" d="M225.426,54.744a10.962,10.962,0,0,0-2.086,1.095c-.093-.286-.164-.547-.227-.69a13.39,13.39,0,0,0-1.31-2.6,13.844,13.844,0,0,0-2.983-2.751c.328-.261.537-.414.562-.429,1.647.518,4.285,1.731,5.468,4.329a5.705,5.705,0,0,0,.573,1.051" transform="translate(-10.243 -8.942)" fill="#cd7e5b"/>
          <path id="Trazado_202431" data-name="Trazado 202431" d="M217.911,63.334a11.412,11.412,0,0,0-.711,1.617,12.563,12.563,0,0,0-4.019-1.247,5.136,5.136,0,0,1,2.9-.858,3.916,3.916,0,0,1,1.825.491" transform="translate(-9.222 -11.384)" fill="#cd7e5b"/>
          <path id="Trazado_202432" data-name="Trazado 202432" d="M217.418,65.46a.264.264,0,0,1-.17-.062,5.282,5.282,0,0,0-2.314-1.092.265.265,0,0,1,.082-.524,5.741,5.741,0,0,1,2.574,1.209.266.266,0,0,1,.03.374.263.263,0,0,1-.2.093" transform="translate(-9.5 -11.553)" fill="#a3563b"/>
          <path id="Trazado_202433" data-name="Trazado 202433" d="M216.785,72.53a.275.275,0,0,1-.082-.012.266.266,0,0,1-.172-.333,5.247,5.247,0,0,0,.2-1.465,6.7,6.7,0,0,0-.025-.79.342.342,0,0,1,0-.058,6.641,6.641,0,0,1,.389-1.74,1.5,1.5,0,0,1,.255-.442.265.265,0,0,1,.389.36,1.213,1.213,0,0,0-.154.285,6.029,6.029,0,0,0-.349,1.569,7.705,7.705,0,0,1,.025.825,5.752,5.752,0,0,1-.229,1.617.265.265,0,0,1-.252.184" transform="translate(-9.827 -12.247)" fill="#a3563b"/>
          <path id="Trazado_202434" data-name="Trazado 202434" d="M268.81,67.886a9.13,9.13,0,0,1-1.834,2.081,43.136,43.136,0,0,1-8.319,5.2,2.083,2.083,0,0,1-.328.143q-.86.318-1.622.562c-8.1,2.629-8.1-.346-8.1-.346l0-.015c-6.42-.9-5.429-3.319-5.429-3.319a.806.806,0,0,1-.328-.839c.02-.054.039-.113.064-.173a.8.8,0,0,1,.956-.395l2.846.942a9.435,9.435,0,0,0,2.457.592,4.72,4.72,0,0,0,2.273-.246l-2.327-1.79a.865.865,0,0,1,.858-1.485l4.428,1.829a8.021,8.021,0,0,0,4.709-2.412,17.3,17.3,0,0,0,1.982-2.283,22.483,22.483,0,0,0,1.494-2.322c.491-.868.754-1.459.754-1.459l.02-.044a1.723,1.723,0,0,1,.917.737l.054,0a3.8,3.8,0,0,0,.429,2.525,1.714,1.714,0,0,0,1.146.942c.5.054.829-.346,1.31-.36,1.146-.029,1.154,1.154,1.583,1.923" transform="translate(-14.594 -11.251)" fill="#f9ae81"/>
          <path id="Trazado_202435" data-name="Trazado 202435" d="M272.852,67.887a9.132,9.132,0,0,1-1.834,2.081c-.064-.088-.129-.178-.192-.261a7.456,7.456,0,0,0-1.692-1.556,13.662,13.662,0,0,0-1.647-1.208c-.409-.212-.878-.335-1.3-.542-.335-.164-.7-.32-1.041-.459a22.345,22.345,0,0,0,1.494-2.322c.491-.868.754-1.459.754-1.459l.02-.044a1.72,1.72,0,0,1,.917.737l.054,0a3.8,3.8,0,0,0,.429,2.525,1.722,1.722,0,0,0,1.146.942c.5.054.829-.346,1.31-.36,1.146-.029,1.154,1.154,1.583,1.923" transform="translate(-18.635 -11.252)" fill="#cd7e5b"/>
          <path id="Trazado_202436" data-name="Trazado 202436" d="M248.077,76.372a9.158,9.158,0,0,1-5.02-1.785.265.265,0,0,1,.3-.434c.91.639,3.293,2.07,5.766,1.589a.265.265,0,1,1,.1.52,5.984,5.984,0,0,1-1.152.11" transform="translate(-14.615 -13.425)" fill="#a3563b"/>
          <path id="Trazado_202437" data-name="Trazado 202437" d="M250.066,78.007c-.409-.042-.784-.082-1.141-.131-.171-.024-.337-.049-.5-.075a10.4,10.4,0,0,1-3.678-1.16.265.265,0,0,0-.3.44l.019.011a10.9,10.9,0,0,0,3.87,1.228c.164.027.334.052.512.078.362.048.747.09,1.157.133h.028a.265.265,0,0,0,.027-.529" transform="translate(-14.865 -13.874)" fill="#a3563b"/>
          <path id="Trazado_202438" data-name="Trazado 202438" d="M172.007,176.367c0,1.891-8.964,3.424-20.023,3.424s-20.024-1.533-20.024-3.424,8.965-3.424,20.024-3.424,20.023,1.533,20.023,3.424" transform="translate(5.489 -31.325)" fill="#a44a0d"/>
          <path id="Trazado_202439" data-name="Trazado 202439" d="M192.442,95.324a.568.568,0,0,1-.21.775c-.016.009-.033.018-.05.025a.64.64,0,0,1-.763-.074,1.934,1.934,0,0,1-.143-.133,1.523,1.523,0,0,1-.5-.907.574.574,0,0,1,.339-.509,1.135,1.135,0,0,1,1.161.557,1.688,1.688,0,0,1,.17.265" transform="translate(-5.163 -17.115)" fill="#bf6859"/>
          <path id="Trazado_202440" data-name="Trazado 202440" d="M190.8,95.815c.246.53-.43.858-.43.858-.185.133-.546-.058-.869-.3a6.689,6.689,0,0,1-.636-.541,1.8,1.8,0,0,1-.705-1.029A.828.828,0,0,1,188.5,94c.753-.435,1.792.906,1.792.906a1.523,1.523,0,0,0,.5.907" transform="translate(-4.688 -17.011)" fill="#bf6859"/>
          <path id="Trazado_202441" data-name="Trazado 202441" d="M189.144,96.4a.485.485,0,0,1-.143.662,1.072,1.072,0,0,1-1.363-.032,2.464,2.464,0,0,1-.276-.255,6.051,6.051,0,0,1-.5-.567,2.3,2.3,0,0,1-.69-1.378.772.772,0,0,1,.392-.705c.631-.36,1.228.705,1.228.705h0a1.8,1.8,0,0,0,.705,1.029,6.686,6.686,0,0,0,.636.541" transform="translate(-4.33 -17.036)" fill="#bf6859"/>
          <path id="Trazado_202442" data-name="Trazado 202442" d="M186.708,96.381a6.064,6.064,0,0,0,.5.567c-.928.928-1.839-.943-1.839-.943a1.222,1.222,0,0,1-.082-.472c.016-.626.732-.53.732-.53a2.285,2.285,0,0,0,.689,1.378" transform="translate(-4.169 -17.207)" fill="#bf6859"/>
          <path id="Trazado_202443" data-name="Trazado 202443" d="M191.36,96.369a.267.267,0,0,1-.164-.06s-.065-.054-.164-.15a1.72,1.72,0,0,1-.581-1.094.265.265,0,0,1,.53-.029.173.173,0,0,1,0,.029,1.246,1.246,0,0,0,.426.719c.07.07.12.112.124.115a.265.265,0,0,1-.169.469" transform="translate(-5.105 -17.169)" fill="#94453b"/>
          <path id="Trazado_202444" data-name="Trazado 202444" d="M189.446,96.78a.261.261,0,0,1-.156-.052,7.054,7.054,0,0,1-.665-.564,2.064,2.064,0,0,1-.781-1.178.265.265,0,0,1,.524-.082,1.615,1.615,0,0,0,.616.867,6.466,6.466,0,0,0,.621.528.265.265,0,0,1-.157.479" transform="translate(-4.632 -17.151)" fill="#94453b"/>
          <path id="Trazado_202445" data-name="Trazado 202445" d="M187.3,97.158a.262.262,0,0,1-.188-.082,6.206,6.206,0,0,1-.522-.595,2.539,2.539,0,0,1-.743-1.533.265.265,0,0,1,.53-.009,2.133,2.133,0,0,0,.625,1.21,6.2,6.2,0,0,0,.485.552.265.265,0,0,1-.188.452" transform="translate(-4.272 -17.152)" fill="#94453b"/>
          <path id="Trazado_202446" data-name="Trazado 202446" d="M160.015,138.623c-.064.246-.1.37-.1.37h-6.09l.346-2.574,1.114-8.309.6-4.448a3.011,3.011,0,0,0-.138-1.392l-7.15-20.641-.1-.3c-1.287,11.637-3.432,34.512-3.7,37.367-.015.192-.025.3-.025.3H139.3a10.521,10.521,0,0,1-.567-1.81c-1.351-5.848-1.183-18.588-1.056-21.139a4.051,4.051,0,0,0-.059-.912,165.828,165.828,0,0,1-2.164-18.261c-.029-.547-.064-1.08-.082-1.607,6.327-.705,5.991-9.62,5.991-9.62v0c.573.074,1.173.129,1.81.173a31.662,31.662,0,0,0,3.57.025,31.094,31.094,0,0,0,3.249-.328v4.966l1.164.207L161.616,92.6c6.1,16.923-.661,42.654-1.6,46.031" transform="translate(4.871 -15.488)" fill="#fbb800"/>
          <path id="Trazado_202447" data-name="Trazado 202447" d="M157.1,50.564l.409,2.422-1.2.238c0-.127-.174-.965-.45-2.189-.918-4.108-2.916-12.514-2.916-12.514v-.006a13.136,13.136,0,0,1,2.2.345Z" transform="translate(1.689 -6.977)" fill="#ed8a00"/>
          <path id="Trazado_202448" data-name="Trazado 202448" d="M143.315,52.351l.557,3.307-1.2.233c0-.148-.246-1.288-.6-2.878-.983-4.34-2.81-12.033-2.81-12.033a13.565,13.565,0,0,1,1.792-.318,5.575,5.575,0,0,0,.514,1.256Z" transform="translate(4.168 -7.366)" fill="#ed8a00"/>
          <path id="Trazado_202449" data-name="Trazado 202449" d="M161.61,66.57c-.007.029-.016.055-.025.082.007-.029.016-.055.025-.082" transform="translate(0.123 -12.058)" fill="#fbb800"/>
          <path id="Trazado_202450" data-name="Trazado 202450" d="M156.793,60.5a34.372,34.372,0,0,0-2.417-6.44h0c-.246-.522-.4-.834-.4-.834h0l.409,2.421-1.2.237c0-.124-.173-.961-.449-2.185-3.926,2.268-10.059.927-10.059.927l.552,3.3-1.2.237c0-.148-.246-1.292-.6-2.88l-.868,4.793A24.578,24.578,0,0,0,150.085,71.7V65.75l1.095-.2h.006a3.431,3.431,0,0,1,.183-1.036,4.567,4.567,0,0,1-2.027.37s-6.169.592-5.38-6.715c0,0,5.9,1.529,9.832-.483a10.988,10.988,0,0,1-.206,3.89A7.221,7.221,0,0,1,156.8,60.5m-.6,3.841c-.025.1-.049.2-.069.291l.7-.129a2.195,2.195,0,0,1,.06-.261c-.1.31-.691.1-.691.1M148.579,76.2l-6.406-2.692a13.053,13.053,0,0,1-5.369-4.422,29.5,29.5,0,0,0-.853,4.329c-.113.784-.222,1.681-.315,2.688h0a26.515,26.515,0,0,0,14.4,1.42v-.708Z" transform="translate(4.823 -9.642)" fill="#fbb800"/>
          <path id="Trazado_202451" data-name="Trazado 202451" d="M150,82.6v2.12a31.591,31.591,0,0,1-6.816.3c-.636-.043-1.241-.1-1.813-.17a26.071,26.071,0,0,1-5.947-1.346c.048-.832.111-1.606.175-2.327h0A26.545,26.545,0,0,0,150,82.6" transform="translate(4.862 -14.704)" fill="#ffd53c"/>
          <path id="Trazado_202452" data-name="Trazado 202452" d="M141.332,85.372s.334,8.915-5.99,9.62a102.829,102.829,0,0,1,.043-10.973,26.077,26.077,0,0,0,5.947,1.346Z" transform="translate(4.899 -15.219)" fill="#ffd53c"/>
          <path id="Trazado_202453" data-name="Trazado 202453" d="M135.422,96.947a6.752,6.752,0,0,0,1.829-.375,6.105,6.105,0,0,0,1.656-.8,7.854,7.854,0,0,0,2.452-2.659l.423-.815c.128-.278.217-.573.332-.86l.164-.431.119-.448c.076-.3.158-.6.246-.9.127-.608.223-1.228.328-1.842.07-.622.121-1.247.207-1.875.034.629.034,1.261.052,1.9-.052.631-.1,1.266-.185,1.9a11.246,11.246,0,0,1-1.228,3.637,7.35,7.35,0,0,1-2.7,2.743,6.3,6.3,0,0,1-3.7.823" transform="translate(4.863 -15.568)" fill="#b36504"/>
          <path id="Trazado_202454" data-name="Trazado 202454" d="M149.254,85.948a37.416,37.416,0,0,1,.726,4.668,36.373,36.373,0,0,1,.2,4.722,42.286,42.286,0,0,1-.922-9.393" transform="translate(2.357 -15.568)" fill="#b36504"/>
          <path id="Trazado_202455" data-name="Trazado 202455" d="M135.643,81.178a30.682,30.682,0,0,0,3.533.9,36.851,36.851,0,0,0,7.215.684c1.214.013,2.424-.091,3.648-.164-.6.138-1.195.275-1.8.373-.608.082-1.218.164-1.832.2a22.3,22.3,0,0,1-7.322-.7q-.892-.246-1.761-.549a14.482,14.482,0,0,1-1.681-.749" transform="translate(4.822 -14.704)" fill="#b36504"/>
          <path id="Trazado_202456" data-name="Trazado 202456" d="M135.422,84.02c.6.164,1.191.31,1.794.427s1.2.246,1.8.342c1.207.194,2.422.341,3.638.432,1.213.126,2.437.147,3.659.156.611,0,1.228-.016,1.837-.046.614-.013,1.228-.062,1.844-.1-.6.154-1.209.255-1.82.356q-.919.123-1.847.194a22.716,22.716,0,0,1-3.717-.035,24.3,24.3,0,0,1-3.673-.562,17.94,17.94,0,0,1-3.521-1.167" transform="translate(4.863 -15.219)" fill="#b36504"/>
          <path id="Trazado_202457" data-name="Trazado 202457" d="M159.614,127.323c-.483.883-.983,1.854-1.41,2.784l.6-4.448a3.011,3.011,0,0,0-.138-1.392l-7.15-20.641a26.761,26.761,0,0,1,.35-4.758c.32-2.012.341-2.421,2.293-2.3,1.114-.082,2.538,3.343,3.022,4.34.183.38.829,1.435.36,1.746-.266.173-1.317-.518-1.642-.552.3,2.5,1.691,5.323,2.457,7.806a62.2,62.2,0,0,1,2.332,8.758c.483,3.161.449,5.907-1.07,8.659" transform="translate(1.948 -17.488)" fill="#ed8a00"/>
          <path id="Trazado_202458" data-name="Trazado 202458" d="M151.326,103.621h-.03a.266.266,0,0,1-.233-.293c.391-3.506.655-5.6.809-6.4a.265.265,0,0,1,.521.1c-.149.789-.409,2.866-.8,6.362a.264.264,0,0,1-.263.236" transform="translate(2.029 -17.519)" fill="#b36504"/>
          <path id="Trazado_202459" data-name="Trazado 202459" d="M151.385,96.087a19.471,19.471,0,0,1,3.071-.744l-.218.287c-.082-.629-.139-1.26-.179-1.895a15.569,15.569,0,0,1,0-1.915,15.477,15.477,0,0,1,.437,1.865c.107.626.2,1.254.261,1.883v.007a.258.258,0,0,1-.219.28c-.519.077-1.041.139-1.566.179a13.863,13.863,0,0,1-1.586.052" transform="translate(1.971 -16.632)" fill="#b36504"/>
          <path id="Trazado_202460" data-name="Trazado 202460" d="M164.1,149.885c-.064.246-.1.37-.1.37H157.9l.345-2.574a22.051,22.051,0,0,1,3.058,1.253c.912.37,1.864.622,2.784.952Z" transform="translate(0.79 -26.749)" fill="#f6a300"/>
          <path id="Trazado_202461" data-name="Trazado 202461" d="M145.567,149.7c-.015.192-.065.721-.065.721h-5.459a10.519,10.519,0,0,1-.567-1.81c1.218.36,5.306.947,6.09,1.089" transform="translate(4.128 -26.918)" fill="#f6a300"/>
          <path id="Trazado_202462" data-name="Trazado 202462" d="M148.649,79.718a15,15,0,0,1-3.714.173,17,17,0,0,1-5.744-1.381,7.991,7.991,0,0,1-3.171-1.573,29.4,29.4,0,0,1,.857-4.329,13.053,13.053,0,0,0,5.369,4.422Z" transform="translate(4.754 -13.152)" fill="#ed8a00"/>
          <path id="Trazado_202463" data-name="Trazado 202463" d="M155.616,58.672a10.969,10.969,0,0,1-.206,3.89,5.513,5.513,0,0,0-2.147,2.719c-.026.075-.052.143-.074.218a4.545,4.545,0,0,1-2.025.366s-6.169.593-5.38-6.711c0,0,5.9,1.532,9.832-.482" transform="translate(2.998 -10.628)" fill="#ffd53c"/>
          <path id="Trazado_202464" data-name="Trazado 202464" d="M146.376,60.34c.737.115,1.474.214,2.211.287s1.474.124,2.211.14A21.554,21.554,0,0,0,153,60.7a16.358,16.358,0,0,0,2.189-.364,8.6,8.6,0,0,1-2.153.646,12.392,12.392,0,0,1-2.25.151,15.233,15.233,0,0,1-2.24-.228,12.563,12.563,0,0,1-2.171-.568" transform="translate(2.878 -10.93)" fill="#b36504"/>
          <path id="Trazado_202465" data-name="Trazado 202465" d="M166.289,59.191a5.279,5.279,0,0,0-3.151,1.2,8.237,8.237,0,0,0-1.49-.064c-.222,0-.459.02-.71.049a34.428,34.428,0,0,0-2.417-6.44L162.453,53l1.973-.473s1.464,4.532,1.859,6.6Z" transform="translate(0.678 -9.514)" fill="#ef9986"/>
          <path id="Trazado_202466" data-name="Trazado 202466" d="M162.453,53.1c-.044.212-.069.414-.1.573-.271,1.336-.5,2.668-.671,4.019a16.419,16.419,0,0,0-.034,2.737c-.222,0-.459.02-.71.049a34.428,34.428,0,0,0-2.416-6.44Z" transform="translate(0.678 -9.619)" fill="#bf6859"/>
          <path id="Trazado_202467" data-name="Trazado 202467" d="M166.923,84.506a.739.739,0,0,1-.37.3l-.464,0a.537.537,0,0,1-.148-.054L162,82.391a6.581,6.581,0,0,0,1.661,2.457,2.187,2.187,0,0,0,1.01.483.288.288,0,0,1,.265.31.283.283,0,0,1-.063.159,1.617,1.617,0,0,1-1.139.573,2.232,2.232,0,0,1-1.474-.385,1.613,1.613,0,0,1-1.978-.049h0c-1.173.592-2.211-.01-3.068-1.036a14.4,14.4,0,0,1-2.12-4.012c-.291-.784-.459-1.361-.478-1.444v0l0,0-3.767-1.583-1.464-.617v0l-7.861-3.3a13.061,13.061,0,0,1-5.37-4.422c-3.476-4.749-4.094-11.011-4.166-11.884,0-.054-.01-.088-.01-.1l6.509-2.017a16.927,16.927,0,0,0,.491,2.3A25.1,25.1,0,0,0,149.42,72.1a25.054,25.054,0,0,0,2.909,1.612,29.4,29.4,0,0,0,5.662,2s4.211-.646,6.633,1.223a.706.706,0,0,1,.222.839.7.7,0,0,1-.8.4l-2.11-.532a.579.579,0,0,0-.631.878,14.053,14.053,0,0,0,1.583,1.928,16.787,16.787,0,0,0,3.792,3.047.72.72,0,0,1,.271.981l-.015.025" transform="translate(5.488 -10.054)" fill="#ef9986"/>
          <path id="Trazado_202468" data-name="Trazado 202468" d="M168.457,92.385a.263.263,0,0,1-.148-.045,2.743,2.743,0,0,1-.586-.528,15.485,15.485,0,0,1-1.5-2.047.265.265,0,0,1,.461-.262,15.014,15.014,0,0,0,1.445,1.965,2.24,2.24,0,0,0,.477.429.264.264,0,0,1-.148.484" transform="translate(-0.711 -16.189)" fill="#94453b"/>
          <path id="Trazado_202469" data-name="Trazado 202469" d="M166.1,92.391a.261.261,0,0,1-.151-.047,6.471,6.471,0,0,1-1.791-2.293.265.265,0,0,1,.481-.223,6.046,6.046,0,0,0,1.612,2.077.265.265,0,0,1-.151.483" transform="translate(-0.339 -16.244)" fill="#94453b"/>
          <path id="Trazado_202470" data-name="Trazado 202470" d="M159.21,83.227a3.564,3.564,0,0,1-.321.843c-.039.089-.074.178-.1.266l0,0-3.767-1.583c.943-.039,1.878-.069,2.835-.158.737-.069,1.485-.222,1.362.636" transform="translate(1.313 -14.95)" fill="#bf6859"/>
          <path id="Trazado_202471" data-name="Trazado 202471" d="M138.965,57.81c-.082-.01-.158-.015-.237-.025-1.7-.153-3.334.074-5.034.064a5.84,5.84,0,0,1-1.72-.222c0-.054-.009-.088-.009-.1l6.509-2.017a16.915,16.915,0,0,0,.491,2.3" transform="translate(5.488 -10.055)" fill="#bf6859"/>
          <path id="Trazado_202472" data-name="Trazado 202472" d="M168.764,174.347c.87,1.293-.2,2.083-1.341,2.528a7.351,7.351,0,0,1-3.767.371c-4.855-.732-6.2-4.214-6.2-4.214-.583-.334-1.3-.8-1.919-1.219-.8-.54-1.431-1-1.431-1a1.453,1.453,0,0,1,.265-1.479,1.636,1.636,0,0,0,.8,1.082c.711.4,1.627.848,2.248,1.146a2.121,2.121,0,0,1,.949.853,12.393,12.393,0,0,0,3.17,3.005,9.777,9.777,0,0,0,6.418.021,1.174,1.174,0,0,0,.812-1.1" transform="translate(1.495 -30.672)" fill="#111212"/>
          <path id="Trazado_202473" data-name="Trazado 202473" d="M168.835,170.991a1.173,1.173,0,0,1-.809,1.1,9.814,9.814,0,0,1-6.42-.02,12.391,12.391,0,0,1-3.171-3.008,2.12,2.12,0,0,0-.947-.853c-.074-.034-.148-.074-.232-.108-.6-.291-1.392-.68-2.017-1.036a1.63,1.63,0,0,1-.793-1.08,1.549,1.549,0,0,1,0-.779,63.3,63.3,0,0,0,1.647-9.917c.124-1.425.2-2.929.2-4.468h8.189l-2.282,8.585a5.645,5.645,0,0,0,.328,3.8l2.239,4.857-.01.082a5.5,5.5,0,0,1,3.9,2.219,1.1,1.1,0,0,1,.173.622" transform="translate(1.425 -27.318)" fill="#242425"/>
          <path id="Trazado_202474" data-name="Trazado 202474" d="M166.731,172.173h-.039a7.149,7.149,0,0,0-1.13-.082.287.287,0,0,1-.273-.257.265.265,0,0,1,.256-.274h0a7.762,7.762,0,0,1,1.224.088.265.265,0,0,1-.038.527" transform="translate(-0.547 -31.075)" fill="#040405"/>
          <path id="Trazado_202475" data-name="Trazado 202475" d="M157.657,168.474a1.208,1.208,0,0,1-.4.617c-.6-.291-1.392-.68-2.017-1.036a1.63,1.63,0,0,1-.794-1.08,1.548,1.548,0,0,1,0-.779,63.3,63.3,0,0,0,1.647-9.917,14.4,14.4,0,0,1,.942,2.145,6.34,6.34,0,0,1,.31,2.968c-.124,1.405-.7,2.835-.631,4.236.044,1.01,1.258,1.869.942,2.846" transform="translate(1.425 -28.307)" fill="#171717"/>
          <path id="Trazado_202476" data-name="Trazado 202476" d="M153.235,175.577c.752,1.839-1.458,1.861-2.185,1.818a2.1,2.1,0,0,1-.4-.058,7.955,7.955,0,0,0-3.767-.138,12.657,12.657,0,0,1-3.194.409,1.388,1.388,0,0,1-1.288-1.8,3.221,3.221,0,0,1,.127-.355c.819,1.531,3.393.689,3.393.689.334-.064.726-.122,1.128-.164a16.246,16.246,0,0,1,4.061.127,3.211,3.211,0,0,0,1.579-.127.884.884,0,0,0,.491-.43Z" transform="translate(3.608 -31.78)" fill="#111212"/>
          <path id="Trazado_202477" data-name="Trazado 202477" d="M152.449,171.089a.877.877,0,0,1-.491.429,3.214,3.214,0,0,1-1.577.128,16.229,16.229,0,0,0-4.058-.128c-.4.039-.8.1-1.129.164,0,0-2.574.843-3.393-.69a1.847,1.847,0,0,1-.206-.617s-.183-2.071-.478-5.355a6.022,6.022,0,0,0-.124-.829l-2.722-13.368h8.653s.305,4.615,1.021,9.221a29.566,29.566,0,0,0,2.026,7.87l-.034.143c.029,0,.055.015.082.02a3.561,3.561,0,0,1,1.3.612,3.825,3.825,0,0,1,1.164,1.514,1.018,1.018,0,0,1-.034.888" transform="translate(4.346 -27.318)" fill="#242425"/>
          <path id="Trazado_202478" data-name="Trazado 202478" d="M151.773,170.116c-.7.029-1.287-.346-2.086-.143-.636.158-1.253.491-1.622-.251a4.108,4.108,0,0,1,.01-2.076,27.917,27.917,0,0,1,1.02-3.215c.178-.626.434-1.48.6-2.347a29.532,29.532,0,0,0,2.027,7.87l-.034.143c.029,0,.054.015.082.02" transform="translate(2.595 -29.358)" fill="#171717"/>
          <path id="Trazado_202479" data-name="Trazado 202479" d="M148.394,172.338a.265.265,0,0,1-.1-.511,6.547,6.547,0,0,1,3.485-.3.265.265,0,0,1-.119.517,6.122,6.122,0,0,0-3.172.274.265.265,0,0,1-.1.019" transform="translate(2.56 -31.049)" fill="#040405"/>
          <path id="Trazado_202480" data-name="Trazado 202480" d="M150.31,21.276c.334-7.018-5.015-6.26-5.884-6.164a1.451,1.451,0,0,0-.212.043c-8.782,2.236-5.6,9.286-5.3,9.9a.206.206,0,0,1,.021.043,1.537,1.537,0,0,0-.933.318c-5.316-11.206,7.034-12.037,7.034-12.037,8.12-.491,5.417,8.66,5.417,8.66-.043-.228-.1-.456-.148-.689a.319.319,0,0,1,.006-.074" transform="translate(4.635 -2.42)" fill="#fbb800"/>
          <path id="Trazado_202481" data-name="Trazado 202481" d="M157.593,22.932a5.451,5.451,0,0,0-.661,1.652c-.029.266-.054.537-.1.8l-.024.143a2.167,2.167,0,0,1-.8,1.4c-.725.547-1.617.557-2.342,1.031a.385.385,0,0,0-.082.059l-.1.074c-.459.38-.737.942-1.223,1.287a2.686,2.686,0,0,1-3.462-.784c.029-.088.055-.178.075-.261a16.4,16.4,0,0,0,.113-6.928s2.5-8.461-4.532-8.674c-.064,0-.128,0-.192,0-.223,0-.454,0-.7.02,0,0-.082,0-.217.02-.049,0-.1.01-.164.02-2.042.256-11.4,1.982-6.648,12a1.517,1.517,0,0,0,.933,2.712,1.414,1.414,0,0,0,.591-.124l.573,4.2-.029,0a3.364,3.364,0,0,1-1.918.424c-.082-.01-.164-.02-.252-.034-.069-.01-.138-.025-.2-.039a2.124,2.124,0,0,1-1-.527c-.39-.38-.537-.947-.918-1.327-.947-.947-2.268.212-3.289-.671a3.331,3.331,0,0,1-.459-.483,1.318,1.318,0,0,1-.093-.129,1.963,1.963,0,0,1-.4-1.075c-.006-.715.364-1.415.118-2.129-.305-.9-1.139-1.485-1.445-2.431a4.578,4.578,0,0,1,.305-3.373,4.457,4.457,0,0,1,.992-1.346c.064-.069.128-.133.2-.2l0,0a4.467,4.467,0,0,0,1.617-2.357c.31-1.7.808-3.276,2.48-4.068,1.133-.547,2.457-.188,3.491-.932a4.123,4.123,0,0,1,3.708-.819,5.778,5.778,0,0,1,2.353,1.075,5.547,5.547,0,0,1,2.554-1.277c.971-.082,1.534.789,2.407.983a4,4,0,0,0,1.449-.082c.064-.01.133-.015.2-.02s.147,0,.217,0a4.091,4.091,0,0,1,1.987.612,3.44,3.44,0,0,1,1.745,2.14,6.993,6.993,0,0,0,.434,1.824c.414.73,1.218,1.11,1.583,1.874a4.319,4.319,0,0,1,.222,1.978c.055,1.361,1.549,2.283.9,3.773" transform="translate(6.106 -1.785)" fill="#d73c18"/>
          <path id="Trazado_202482" data-name="Trazado 202482" d="M144.745,15.484c.87-.1,6.218-.853,5.884,6.164a1.215,1.215,0,0,1-.737-.779c-.313-.774-.246-1.325-1.033-1.749-.615-.339-.8-1.235-1.6-1.293-.35-.027-.578.111-.922-.027-.387-.159-.435-.392-.689-.684-.233-.271-.365-.246-.662,0a4.1,4.1,0,0,1-1.007.779c-.35.154-.694.074-1.038.212-.4.159-.514.513-.763.832-.445.557-1.146.52-1.436,1.246a7.187,7.187,0,0,1-.716,1.919c-.387.525-.662.774-.594,1.452a5.05,5.05,0,0,1,.064,1.055c-.021.2-.246.731-.207.79l-.053.026c-.3-.615-3.483-7.665,5.3-9.9a1.452,1.452,0,0,1,.212-.043" transform="translate(4.318 -2.793)" fill="#d73c18"/>
          <path id="Trazado_202483" data-name="Trazado 202483" d="M142.844,12.289a4.538,4.538,0,0,1,1.44.868c-.049,0-.1.01-.164.02a4.31,4.31,0,0,0-1.31-.769,2.7,2.7,0,0,0-3.22.655,1.168,1.168,0,0,1-.937.5c-.07.015-.153.025-.246.039-1.341.227-2.14.971-2.752,2.574l-.044.124a1.97,1.97,0,0,1-.7,1.065,4.258,4.258,0,0,0-.873,4.088,2.84,2.84,0,0,0,.251.5,2.081,2.081,0,0,1,.32.754.734.734,0,0,1-.1.434,1.8,1.8,0,0,0-.082.192,4.551,4.551,0,0,0,.784,3.931,3.43,3.43,0,0,0,.473.4,2.322,2.322,0,0,1,.737.764,1.022,1.022,0,0,1-.015.607,1.562,1.562,0,0,0-.044.246,3.85,3.85,0,0,0,1.01,3.077c-.069-.01-.138-.025-.2-.039a3.978,3.978,0,0,1-.932-3.052,1.7,1.7,0,0,1,.049-.256.935.935,0,0,0,.02-.532,2.226,2.226,0,0,0-.7-.715,3.616,3.616,0,0,1-.491-.424,4.594,4.594,0,0,1-.8-4.049,1.554,1.554,0,0,1,.082-.207.615.615,0,0,0,.093-.37,2.024,2.024,0,0,0-.3-.7,2.707,2.707,0,0,1-.261-.522,4.385,4.385,0,0,1,.907-4.221,1.856,1.856,0,0,0,.661-1.015l.049-.124a3.6,3.6,0,0,1,2.845-2.648c.093-.02.178-.029.252-.039a1.087,1.087,0,0,0,.863-.459,2.841,2.841,0,0,1,3.348-.7" transform="translate(5.169 -2.177)" fill="#ef8163"/>
          <path id="Trazado_202484" data-name="Trazado 202484" d="M157.058,28.43l-.1.074a3,3,0,0,0-1.464-1.691.058.058,0,0,1-.034-.064c.039-.276.093-.547.147-.8a4.848,4.848,0,0,0,.124-2.071,4.186,4.186,0,0,0-.907-1.859c-.049-.054-.1-.1-.152-.148a.653.653,0,0,1-.272-.414,2.906,2.906,0,0,1,.305-1.193,4.553,4.553,0,0,0,.237-.68,4.984,4.984,0,0,0-.2-2.673c-.251-.661-.839-2.219-1.72-2.332a.059.059,0,0,1-.055-.059,2.994,2.994,0,0,1,.02-.419,1.587,1.587,0,0,0-.1-.9c-.429-.814-1.449-.927-2.3-.937h-.05a4.092,4.092,0,0,0-2.609.888c-.064,0-.129,0-.192,0a4.241,4.241,0,0,1,2.8-1.006h.054a2.54,2.54,0,0,1,2.4,1.006,1.672,1.672,0,0,1,.118.966c-.01.114-.02.237-.02.355.927.173,1.514,1.731,1.766,2.4a5.1,5.1,0,0,1,.2,2.742,4.512,4.512,0,0,1-.237.7,2.8,2.8,0,0,0-.3,1.134.5.5,0,0,0,.232.335,1.712,1.712,0,0,1,.164.164,4.35,4.35,0,0,1,.932,1.913,4.92,4.92,0,0,1-.124,2.12c-.049.246-.1.491-.138.749a3.149,3.149,0,0,1,1.474,1.711" transform="translate(2.632 -2.199)" fill="#ef8163"/>
          <path id="Trazado_202485" data-name="Trazado 202485" d="M161.684,25.577l-.025.143-.164-.164a1.354,1.354,0,0,1-.119-.119c-.246-.246-.552-.537-.863-.4a.084.084,0,0,1-.049,0,.062.062,0,0,1-.029-.039,2.222,2.222,0,0,1-.064-.853c0-.1.01-.2.01-.3a3.369,3.369,0,0,0-1.07-2.48,1.623,1.623,0,0,0-.31-.227.569.569,0,0,1-.341-.491,2.653,2.653,0,0,1,.069-.873,3.212,3.212,0,0,0,.082-.537,4.923,4.923,0,0,0-.158-1.5,4.211,4.211,0,0,0-1.327-2.288l-.088-.074c-.173-.148-.183-.173-.153-.39.01-.069.025-.164.039-.3a4.485,4.485,0,0,0-.612-2.5,3.165,3.165,0,0,0-1.146-1.242c.074,0,.148,0,.217,0a3.306,3.306,0,0,1,1.033,1.191,4.654,4.654,0,0,1,.626,2.579c-.015.138-.029.232-.039.305-.025.164-.025.164.108.276a1.051,1.051,0,0,1,.088.082,4.276,4.276,0,0,1,1.366,2.347,4.823,4.823,0,0,1,.164,1.534,3.761,3.761,0,0,1-.082.557,2.568,2.568,0,0,0-.074.829.462.462,0,0,0,.286.409,1.678,1.678,0,0,1,.328.246,3.472,3.472,0,0,1,1.11,2.569c0,.1,0,.2-.01.305a2.674,2.674,0,0,0,.034.749c.365-.1.69.217.932.459.044.039.082.082.119.113a1.124,1.124,0,0,1,.108.108" transform="translate(1.25 -1.98)" fill="#ef8163"/>
          <path id="Trazado_202486" data-name="Trazado 202486" d="M132.13,28.416c-.01.246-.251.491-.463.705a2.248,2.248,0,0,0-.271.3,3.952,3.952,0,0,0-.532,1.351,1.32,1.32,0,0,1-.093-.129,3.847,3.847,0,0,1,.522-1.287,3.1,3.1,0,0,1,.286-.328c.2-.2.419-.424.429-.622a.831.831,0,0,0-.164-.355,1.179,1.179,0,0,1-.093-.158,5.921,5.921,0,0,1-.5-1.361,2.731,2.731,0,0,1,.054-1.273c.025-.133.054-.266.082-.409a.8.8,0,0,0-.049-.508,1.5,1.5,0,0,0-.227-.36,2.855,2.855,0,0,1-.2-.3,8.343,8.343,0,0,1-.592-1.578,3.13,3.13,0,0,1,.015-1.82c.064-.069.129-.133.2-.2a3.081,3.081,0,0,0-.093,1.982,8.636,8.636,0,0,0,.582,1.556,3.25,3.25,0,0,0,.188.276,1.558,1.558,0,0,1,.246.39.9.9,0,0,1,.054.573c-.025.143-.049.281-.082.414a2.64,2.64,0,0,0-.054,1.218,5.936,5.936,0,0,0,.491,1.336c.02.039.049.088.082.143a.84.84,0,0,1,.188.429" transform="translate(5.809 -3.64)" fill="#ef8163"/>
          <path id="Trazado_202487" data-name="Trazado 202487" d="M139.1,25.8a.258.258,0,0,0-.021-.043l.052-.027c-.037-.058.185-.594.206-.789a4.943,4.943,0,0,0-.064-1.055c-.069-.679.207-.928.594-1.453a7.144,7.144,0,0,0,.716-1.919c.287-.726.992-.689,1.436-1.246.246-.318.36-.673.763-.832.345-.138.689-.058,1.039-.211a4.125,4.125,0,0,0,1.007-.78c.3-.246.429-.27.662,0,.255.292.3.525.689.684.344.138.573,0,.922.027.8.058.983.954,1.6,1.293.784.423.721.974,1.033,1.749a1.217,1.217,0,0,0,.737.779.371.371,0,0,0,0,.074c.052.233.106.461.148.689a16.4,16.4,0,0,1-.111,6.928c-.021.082-.047.175-.075.26a3.809,3.809,0,0,1-1.7,2.168,3.631,3.631,0,0,1-.859.36,5.79,5.79,0,0,1-4.3-.769s2.56,4,5.64,2.953c1.262,4.516-2.518,5.645-2.518,5.645a4.972,4.972,0,0,1-5.432-2.607,5.575,5.575,0,0,1-.514-1.256l-.482-3.514-.573-4.2a1.466,1.466,0,0,1-.588.122,1.518,1.518,0,0,1-.933-2.714,1.537,1.537,0,0,1,.933-.318m9.631-1.892a.655.655,0,1,0-.655.655.655.655,0,0,0,.655-.655m-5.284.308a.655.655,0,1,0-.655.655.655.655,0,0,0,.655-.655" transform="translate(4.471 -3.126)" fill="#ef9986"/>
          <path id="Trazado_202488" data-name="Trazado 202488" d="M150.086,35.352l.445,2.486c-3.08,1.044-5.64-2.952-5.64-2.952a5.79,5.79,0,0,0,4.3.769,3.624,3.624,0,0,0,.858-.36Z" transform="translate(3.147 -6.32)" fill="#bf6859"/>
          <path id="Trazado_202489" data-name="Trazado 202489" d="M150.251,24.58a.655.655,0,1,1-.655.655.655.655,0,0,1,.655-.655" transform="translate(2.295 -4.453)" fill="#040405"/>
          <path id="Trazado_202490" data-name="Trazado 202490" d="M143.8,24.955a.655.655,0,1,1-.655.655.655.655,0,0,1,.655-.655" transform="translate(3.464 -4.521)" fill="#040405"/>
          <path id="Trazado_202491" data-name="Trazado 202491" d="M144.876,30.981a5.256,5.256,0,0,0,2.457.5,3.613,3.613,0,0,0,1.186-.282,5.531,5.531,0,0,0,.573-.269c.192-.1.37-.226.579-.328a3.025,3.025,0,0,1-.963.967,2.833,2.833,0,0,1-1.337.443,3.034,3.034,0,0,1-1.386-.23,2.846,2.846,0,0,1-1.107-.8" transform="translate(3.15 -5.544)" fill="#94453b"/>
          <path id="Trazado_202492" data-name="Trazado 202492" d="M148.621,23.178a.785.785,0,0,1,.3-.276,2.045,2.045,0,0,1,.351-.164,2.39,2.39,0,0,1,.766-.133,1.994,1.994,0,0,1,1.431.537c-.53.013-.97-.018-1.428-.008-.228,0-.455.006-.691.008l-.361.006a1.761,1.761,0,0,0-.365.025" transform="translate(2.471 -4.095)" fill="#d73c18"/>
          <path id="Trazado_202493" data-name="Trazado 202493" d="M146.708,28.361a9.018,9.018,0,0,1,1.409-.31l-.164.2a13.192,13.192,0,0,1-.173-1.423,8.868,8.868,0,0,1,.006-1.444,8.784,8.784,0,0,1,.35,1.4,12.982,12.982,0,0,1,.172,1.423v.018a.17.17,0,0,1-.158.18,8.929,8.929,0,0,1-1.442-.045" transform="translate(2.818 -4.598)" fill="#bf6859"/>
          <path id="Trazado_202494" data-name="Trazado 202494" d="M141.339,24.233a1.889,1.889,0,0,1,.631-.617,2.569,2.569,0,0,1,.825-.335,2.323,2.323,0,0,1,.9-.02,1.819,1.819,0,0,1,.819.341c-.3.035-.568.035-.833.072a6.279,6.279,0,0,0-.77.124c-.511.1-1,.265-1.567.434" transform="translate(3.79 -4.208)" fill="#d73c18"/>
          <path id="Trazado_202495" data-name="Trazado 202495" d="M138.449,28.9a1.153,1.153,0,0,1,.914.317,1.25,1.25,0,0,1,.4.88,4.086,4.086,0,0,0-.573-.7,2.951,2.951,0,0,0-.747-.5" transform="translate(4.314 -5.234)" fill="#94453b"/>
          <path id="Trazado_202496" data-name="Trazado 202496" d="M144.278,27.767c.04.278-.384.573-.949.655s-1.055-.076-1.095-.354.384-.573.948-.655,1.056.076,1.1.354" transform="translate(3.629 -4.962)" fill="#ec6f5c"/>
          <path id="Trazado_202497" data-name="Trazado 202497" d="M152.58,27.036c.023.279-.419.545-.988.592s-1.048-.142-1.071-.422.418-.545.988-.592,1.048.142,1.071.422" transform="translate(2.127 -4.82)" fill="#ec6f5c"/>
          <path id="Trazado_202498" data-name="Trazado 202498" d="M198.261,87.841v5.067L182.837,90.1V85.218Z" transform="translate(-3.726 -15.436)" fill="#e8873f"/>
          <path id="Trazado_202499" data-name="Trazado 202499" d="M198.261,83.126v3.89L182.836,84.4V80.664Z" transform="translate(-3.726 -14.611)" fill="#b85815"/>
          <path id="Trazado_202500" data-name="Trazado 202500" d="M198.261,78.338v3.8l-15.424-2.465v-4.46Z" transform="translate(-3.726 -13.624)" fill="#e8873f"/>
          <path id="Trazado_202501" data-name="Trazado 202501" d="M198.261,72.962V77.2L182.837,74.07V68.911Z" transform="translate(-3.726 -12.482)" fill="#b85815"/>
          <path id="Trazado_202502" data-name="Trazado 202502" d="M198.261,68.544V71.9l-15.424-4.047V63.073l1.092.387,5.241,1.855,5.159,1.833h.006Z" transform="translate(-3.726 -11.425)" fill="#e8873f"/>
          <path id="Trazado_202503" data-name="Trazado 202503" d="M192.9,93.988l-7.426.472a1.135,1.135,0,0,0-1.161-.557.574.574,0,0,0-.339.509s-1.038-1.341-1.792-.906a.829.829,0,0,0-.344.806h-.006s-.6-1.065-1.228-.705a.772.772,0,0,0-.392.705s-.716-.1-.732.53h-.006l-5.883.371-8.741-1.6L154.39,91.7l-1.166-.212,7.8-.1.037-.032c.858,1.028,1.9,1.627,3.069,1.039h0a1.617,1.617,0,0,0,1.978.047,2.243,2.243,0,0,0,1.474.387,1.638,1.638,0,0,0,1.14-.573.29.29,0,0,0-.2-.472,2.156,2.156,0,0,1-1.012-.482l2.432-.032a.571.571,0,0,0,.212.038.811.811,0,0,0,.246-.043l7.07-.09Z" transform="translate(1.638 -16.515)" fill="#6c310d"/>
          <path id="Trazado_202504" data-name="Trazado 202504" d="M196.748,65.938a2.246,2.246,0,0,1-.133.192,2.653,2.653,0,0,1-.888.737h0l-5.159-1.834c.113-.113.217-.232.31-.346a2.848,2.848,0,0,0,.31-.454,3.158,3.158,0,0,0,.444-1.72c.01-.01.044-.044.082-.088a3.116,3.116,0,0,1,5.192,1.322,2.733,2.733,0,0,1-.158,2.195" transform="translate(-5.125 -11.142)" fill="#fbb800"/>
          <path id="Trazado_202505" data-name="Trazado 202505" d="M190.471,61.976a3.156,3.156,0,0,1-.445,1.72,2.814,2.814,0,0,1-.31.454c-.093.113-.2.232-.31.346l-5.241-1.854c.025-.246.045-.491.064-.725,0-.025,0-.044,0-.069.044-.587.074-1.139.093-1.657,0,0,1.529-2.056,3.678-1.556a3.162,3.162,0,0,1,2.175,1.987,4.234,4.234,0,0,1,.287,1.356" transform="translate(-3.967 -10.607)" fill="#f48735"/>
          <path id="Trazado_202506" data-name="Trazado 202506" d="M183.093,58.751c-.02.518-.049,1.07-.093,1.657,0,.025,0,.044,0,.069-.02.237-.039.478-.064.725l-1.09-.385-4.393.8s-.114-1.218-.119-2.846c0-.491,0-1.015.03-1.556,0-.124.01-.251.02-.38.164-2.851.819-5.952,2.82-6.183,0,0,3.239-.932,2.895,8.092" transform="translate(-2.728 -9.171)" fill="#e85536"/>
          <path id="Trazado_202507" data-name="Trazado 202507" d="M180.46,85.217V90.1l-5.537.069-1.534.02a.739.739,0,0,0,.37-.3.72.72,0,0,0-.232-.991l-.025-.015a16.787,16.787,0,0,1-3.792-3.047l4.532-.261Z" transform="translate(-1.349 -15.436)" fill="#c1722e"/>
          <path id="Trazado_202508" data-name="Trazado 202508" d="M180.09,80.659v3.73l-6.218.355-4.532.261a14.055,14.055,0,0,1-1.583-1.928.579.579,0,0,1,.631-.878l2.11.532a.7.7,0,0,0,.8-.4.706.706,0,0,0-.222-.839l.937-.088Z" transform="translate(-0.978 -14.61)" fill="#a7560b"/>
          <path id="Trazado_202509" data-name="Trazado 202509" d="M178.128,75.214v4.463l-8.068.749-.937.088c-2.421-1.869-6.633-1.223-6.633-1.223a29.373,29.373,0,0,1-5.661-2l7.835-.764Z" transform="translate(0.984 -13.624)" fill="#c1722e"/>
          <path id="Trazado_202510" data-name="Trazado 202510" d="M177.484,68.91v5.159l-13.461,1.317-7.835.764a25.055,25.055,0,0,1-2.909-1.612V72.274l6.387-.888.069-.01c.138,1.09.491,2.688,1.341,2.485a9.74,9.74,0,0,0,.5-2.742h.01l2.978-.414Z" transform="translate(1.628 -12.482)" fill="#a7560b"/>
          <path id="Trazado_202511" data-name="Trazado 202511" d="M179.321,63.075v4.778l-12.916,1.795-2.978.414h-.01c.034-.444.059-.942.059-1.5,0,0,2.224,1.7,2.49-2.15v0a.6.6,0,0,0,.01-.093s2.027,1.612,3.289-1.361a.144.144,0,0,0,.02-.034l3.439-.631,2.2-.409Z" transform="translate(-0.209 -11.425)" fill="#c1722e"/>
          <path id="Trazado_202512" data-name="Trazado 202512" d="M175.722,61.957l-2.2.409c-.054-.044-.1-.093-.158-.138-.133-.119-.266-.237-.39-.35-.143-.129-.281-.256-.419-.38-.814-.754-1.494-1.449-2.061-2.086-3.979-4.448-2.457-6.164-2.135-6.449.01,0,.01,0,.02-.01s.01,0,.015-.015c.256-.256,2.973-2.185,6.938,4.171.088.143.178.3.271.449h.029c-.025.537-.029,1.065-.029,1.556,0,1.627.119,2.846.119,2.846" transform="translate(-1.003 -9.504)" fill="#c22f15"/>
          <path id="Trazado_202513" data-name="Trazado 202513" d="M174.028,64.414l-3.445.631a1.911,1.911,0,0,1,.885-.928,2.23,2.23,0,0,1,2.009-.191c.175.16.36.328.551.491" transform="translate(-1.507 -11.551)" fill="#3b7832"/>
          <path id="Trazado_202514" data-name="Trazado 202514" d="M173.638,91.29l.461-.006a.786.786,0,0,1-.246.043.588.588,0,0,1-.212-.037" transform="translate(-2.06 -16.535)" fill="#ef9986"/>
          <path id="Trazado_202515" data-name="Trazado 202515" d="M172.733,90.757l-2.431.034a6.574,6.574,0,0,1-1.661-2.457l3.945,2.367a.537.537,0,0,0,.148.054" transform="translate(-1.155 -16)" fill="#c1722e"/>
          <path id="Trazado_202516" data-name="Trazado 202516" d="M161.06,90.516l-.04.029-7.8.1V86.837l5.715-.328a14.4,14.4,0,0,0,2.121,4.012" transform="translate(1.638 -15.67)" fill="#c1722e"/>
          <path id="Trazado_202517" data-name="Trazado 202517" d="M159.655,70.067s.015.419.082.961l-.069.01-6.387.888V68.241l1.095-.2h0a2.881,2.881,0,0,0,.148,1.06c.237.725.774,1.232,1.933-.2,0,0,1.893,1.965,2.86-1.77l.7-.129h0a15.714,15.714,0,0,0-.365,3.067" transform="translate(1.627 -12.136)" fill="#c1722e"/>
          <path id="Trazado_202518" data-name="Trazado 202518" d="M158.937,85.7l-5.715.328V82.04l5.232,2.2s.164.607.483,1.454" transform="translate(1.638 -14.86)" fill="#a7560b"/>
          <path id="Trazado_202519" data-name="Trazado 202519" d="M168.86,64.484c-.006.011-.011.027-.016.037-1.267,2.973-3.291,1.357-3.291,1.357-.238,3.981-2.5,2.253-2.5,2.253,0,.557-.021,1.055-.058,1.5a9.74,9.74,0,0,1-.5,2.746c-.853.2-1.2-1.4-1.34-2.486-.069-.546-.082-.965-.082-.965a15.871,15.871,0,0,1,.366-3.063c.016-.09.037-.18.058-.265l.006,0a6.871,6.871,0,0,1,2.109-3.721,5.253,5.253,0,0,1,3.149-1.2,7.165,7.165,0,0,1,2.457.3l.069-.064a32.172,32.172,0,0,0,2.481,2.465,2.23,2.23,0,0,0-2.009.191,1.911,1.911,0,0,0-.885.928" transform="translate(0.217 -10.987)" fill="#56a455"/>
          <path id="Trazado_202520" data-name="Trazado 202520" d="M160.238,62.1a9.026,9.026,0,0,1,2.2.016,6.872,6.872,0,0,0-2.11,3.721l-.006.006c-.1.313-.689.1-.689.1-.021.1-.048.2-.069.292-.965,3.737-2.857,1.77-2.857,1.77-1.16,1.436-1.7.928-1.934.2a2.877,2.877,0,0,1-.149-1.06,3.469,3.469,0,0,1,.18-1.033c.021-.074.047-.143.074-.218a5.507,5.507,0,0,1,2.146-2.719,7.289,7.289,0,0,1,3.212-1.076" transform="translate(1.385 -11.237)" fill="#3b7832"/>
          <g id="Grupo_150107" data-name="Grupo 150107" transform="translate(154.862 54.86)" opacity="0.25">
            <g id="Grupo_150106" data-name="Grupo 150106">
              <g id="Grupo_150105" data-name="Grupo 150105" clip-path="url(#clip-path-21)">
                <g id="Grupo_150104" data-name="Grupo 150104" transform="translate(0 0.005)">
                  <g id="Grupo_150103" data-name="Grupo 150103" clip-path="url(#clip-path-22)">
                    <path id="Trazado_202521" data-name="Trazado 202521" d="M158.456,81.517l-5.232-2.2v7.8l7.8-.1.039-.029a14.4,14.4,0,0,1-2.12-4.012c-.315-.848-.483-1.454-.483-1.454m7.391,2.954a6.575,6.575,0,0,0,1.661,2.457l2.431-.034a.538.538,0,0,1-.148-.054Zm4.556,2.417,1.534-.02c.02-1.449-6.973-18.787-7.722-19.653a.559.559,0,0,0-.093-.093c-.266,3.849-2.49,2.15-2.49,2.15,0,.557-.025,1.056-.059,1.5a9.74,9.74,0,0,1-.5,2.742c-.853.2-1.2-1.392-1.341-2.485-.069-.542-.082-.961-.082-.961A15.711,15.711,0,0,1,160.012,67H160l-.7.129c-.966,3.737-2.86,1.77-2.86,1.77-1.159,1.435-1.7.927-1.933.2a2.879,2.879,0,0,1-.148-1.06h0l-1.095.2v5.947a25.052,25.052,0,0,0,2.909,1.612,29.375,29.375,0,0,0,5.661,2s4.211-.646,6.633,1.223a.706.706,0,0,1,.222.839.7.7,0,0,1-.8.4l-2.11-.532a.579.579,0,0,0-.631.878,14.055,14.055,0,0,0,1.583,1.928,16.787,16.787,0,0,0,3.792,3.047.72.72,0,0,1,.271.981l-.015.025a.739.739,0,0,1-.37.3" transform="translate(-153.224 -67)" fill="#4c1f20"/>
                  </g>
                </g>
              </g>
            </g>
          </g>
          <g id="Grupo_150112" data-name="Grupo 150112" transform="translate(172.356 47.469)" opacity="0.34">
            <g id="Grupo_150111" data-name="Grupo 150111">
              <g id="Grupo_150110" data-name="Grupo 150110" clip-path="url(#clip-path-23)">
                <g id="Grupo_150109" data-name="Grupo 150109" transform="translate(0.006)">
                  <g id="Grupo_150108" data-name="Grupo 150108" clip-path="url(#clip-path-24)">
                    <path id="Trazado_202522" data-name="Trazado 202522" d="M193.721,65.489a2.653,2.653,0,0,1-.888.737h0l-5.159-1.834-5.241-1.854-1.09-.385-4.393.8-2.2.409c-.054-.044-.1-.093-.158-.138a13.855,13.855,0,0,1,.848-3.343,2.949,2.949,0,0,1,1.119-1.775,1.438,1.438,0,0,1,.286-.138.807.807,0,0,0,.034.207,7.463,7.463,0,0,0,1.169,1.9,4.3,4.3,0,0,0,2.653,1.49,7.657,7.657,0,0,0,1.8.178c.074,0,.143-.015.217-.025a3.925,3.925,0,0,1,2.919.5,11.423,11.423,0,0,1,1.1.9c.237.217.395.646.641.829.291.212.32.178.6.1.049-.015.109-.029.183-.049.518-.119,1.065-.178,1.588-.276a3.576,3.576,0,0,1,3.629,1.213,2.769,2.769,0,0,1,.34.557" transform="translate(-174.594 -57.969)" fill="#040405"/>
                  </g>
                </g>
              </g>
            </g>
          </g>
          <path id="Trazado_202523" data-name="Trazado 202523" d="M148.706,38.517v0a7.935,7.935,0,0,0-.947-.025c1.263,4.517-2.515,5.646-2.515,5.646a4.977,4.977,0,0,1-5.434-2.608l1.756,10.433s6.133,1.341,10.058-.927c-.917-4.112-2.919-12.515-2.919-12.515m-8.945,11.7c-.983-4.29-2.258-9.63-2.258-9.63-3.575.858-10.912,3.9-6.593,14.044l.622-.188,6.509-2.017s.01.082.034.246a22.5,22.5,0,0,0,1.371,4.744l.868-4.793c-.164-.725-.35-1.539-.552-2.4m11.149-11.366,1.253,7.5s0,.01,0,.01l.7,4.191h0s.164.31.4.834h0l2.293-.547,3.61-.863.641-.153c-.819-7.693-5.622-10.178-8.915-10.973" transform="translate(5.919 -6.971)" fill="#fff"/>
          <path id="Trazado_202524" data-name="Trazado 202524" d="M144.5,50.229a5.384,5.384,0,0,0,4.568-1.3c1.254-.983,2.021-2.447,3.138-3.4.008,2.129-2.082,4.3-3.7,5.475-1.833,1.334-2.667.305-4-.775" transform="translate(3.217 -8.247)" fill="#e5e5e5"/>
          <path id="Trazado_202525" data-name="Trazado 202525" d="M160.571,52.589l-2.293.547h0c-.246-.522-.4-.834-.4-.834h0l-.7-4.191c.059.133.113.266.183.4a10.221,10.221,0,0,0,1.494,1.987c.567.676,1.2,1.361,1.731,2.091" transform="translate(0.924 -8.715)" fill="#e5e5e5"/>
          <path id="Trazado_202526" data-name="Trazado 202526" d="M142.191,55.216l-.868,4.793a22.5,22.5,0,0,1-1.371-4.744,2.772,2.772,0,0,1,.36-.478,7.305,7.305,0,0,0,1.327-1.973c.2.863.39,1.676.552,2.4" transform="translate(4.041 -9.567)" fill="#e5e5e5"/>
          <path id="Trazado_202527" data-name="Trazado 202527" d="M139.387,53.9a.265.265,0,0,1-.257-.2l-2.088-8.221a.265.265,0,0,1,.513-.13l2.089,8.221a.265.265,0,0,1-.192.322.246.246,0,0,1-.065.008" transform="translate(4.57 -8.179)" fill="#b8b7b8"/>
          <path id="Trazado_202528" data-name="Trazado 202528" d="M117.965,148.216v5.414h-3.486v-.01H83.354v-5.4Z" transform="translate(14.293 -26.846)" fill="#a7560b"/>
          <rect id="Rectángulo_41917" data-name="Rectángulo 41917" width="34.611" height="6.258" transform="translate(97.647 115.112)" fill="#c1722e"/>
          <rect id="Rectángulo_41918" data-name="Rectángulo 41918" width="34.611" height="6.263" transform="translate(97.647 108.85)" fill="#a7560b"/>
          <rect id="Rectángulo_41919" data-name="Rectángulo 41919" width="34.611" height="5.454" transform="translate(97.647 103.396)" fill="#c1722e"/>
          <path id="Trazado_202529" data-name="Trazado 202529" d="M117.965,91.107v5.414h-3.486v-.01H83.354v-5.4Z" transform="translate(14.293 -16.502)" fill="#a7560b"/>
          <rect id="Rectángulo_41920" data-name="Rectángulo 41920" width="34.611" height="6.258" transform="translate(97.647 68.352)" fill="#c1722e"/>
          <rect id="Rectángulo_41921" data-name="Rectángulo 41921" width="34.611" height="6.258" transform="translate(97.647 62.094)" fill="#a7560b"/>
          <path id="Trazado_202530" data-name="Trazado 202530" d="M117.965,69.163v5.459H83.354V69.163H116.88c.3.01.612.01.937,0Z" transform="translate(14.293 -12.528)" fill="#c1722e"/>
          <rect id="Rectángulo_41922" data-name="Rectángulo 41922" width="34.606" height="5.409" transform="translate(94.166 144.748)" fill="#b85815"/>
          <rect id="Rectángulo_41923" data-name="Rectángulo 41923" width="34.606" height="6.258" transform="translate(94.166 138.49)" fill="#e8873f"/>
          <rect id="Rectángulo_41924" data-name="Rectángulo 41924" width="34.606" height="6.258" transform="translate(94.166 132.233)" fill="#b85815"/>
          <path id="Trazado_202531" data-name="Trazado 202531" d="M113.71,154.826v5.449H79.1v-5.459h3.481v.01Z" transform="translate(15.062 -28.042)" fill="#e8873f"/>
          <rect id="Rectángulo_41925" data-name="Rectángulo 41925" width="34.606" height="5.409" transform="translate(94.166 97.987)" fill="#b85815"/>
          <rect id="Rectángulo_41926" data-name="Rectángulo 41926" width="34.606" height="6.258" transform="translate(94.166 91.729)" fill="#e8873f"/>
          <rect id="Rectángulo_41927" data-name="Rectángulo 41927" width="34.606" height="6.258" transform="translate(94.166 85.472)" fill="#b85815"/>
          <path id="Trazado_202532" data-name="Trazado 202532" d="M113.71,97.722v5.449H79.1V97.712h3.481v.01Z" transform="translate(15.062 -17.699)" fill="#e8873f"/>
          <g id="Grupo_150117" data-name="Grupo 150117" transform="translate(113.996 56.635)" opacity="0.35">
            <g id="Grupo_150116" data-name="Grupo 150116">
              <g id="Grupo_150115" data-name="Grupo 150115" clip-path="url(#clip-path-25)">
                <g id="Grupo_150114" data-name="Grupo 150114">
                  <g id="Grupo_150113" data-name="Grupo 150113" clip-path="url(#clip-path-26)">
                    <path id="Trazado_202533" data-name="Trazado 202533" d="M121.581,69.163V92.551h-3.486v23.373h3.486v23.388h-3.486V162.68l-14.776,0,12.395-93.521H120.5c.3.01.612.01.937,0Z" transform="translate(-103.319 -69.163)" fill="#4c1f20"/>
                  </g>
                </g>
              </g>
            </g>
          </g>
        </g>
      </g>
    </g>
  </g>
</svg>
